<?xml version="1.0" encoding="utf-8"?>
<!-- Generator: Adobe Illustrator 24.1.2, SVG Export Plug-In . SVG Version: 6.00 Build 0)  -->
<svg version="1.1" id="Layer_1" xmlns="http://www.w3.org/2000/svg" xmlns:xlink="http://www.w3.org/1999/xlink" x="0px" y="0px"
	 viewBox="0 0 43.4 43.4" style="enable-background:new 0 0 43.4 43.4;" xml:space="preserve">
<style type="text/css">
	.st0{opacity:0.5;fill:#B6B6B6;}
	.st1{opacity:0.5;}
	.st2{fill:none;stroke:#B6B6B6;stroke-width:0.3872;stroke-linecap:round;stroke-linejoin:round;stroke-miterlimit:10;}
	.st3{fill:none;stroke:#B6B6B6;stroke-width:0.453;stroke-linecap:round;stroke-linejoin:round;stroke-miterlimit:10;}
	.st4{fill:#B6B6B6;}
	.st5{fill:none;stroke:#B6B6B6;stroke-width:0.3014;stroke-linecap:round;stroke-linejoin:round;stroke-miterlimit:10;}
	.st6{fill:#010101;stroke:#010101;stroke-width:0.3088;stroke-miterlimit:10;}
	.st7{fill:#454545;}
	.st8{fill:#888888;}
	.st9{fill:#525251;}
	.st10{fill:#493A15;}
</style>
<g>
	<path class="st0" d="M21.7,38.9c-9.4,0-17.1-7.7-17.1-17.1S12.3,4.7,21.7,4.7c9.4,0,17.1,7.7,17.1,17.1S31.1,38.9,21.7,38.9z
		 M21.7,5.7c-8.9,0-16.1,7.2-16.1,16.1s7.2,16.1,16.1,16.1s16.1-7.2,16.1-16.1S30.6,5.7,21.7,5.7z"/>
	<g class="st1">
		<g>
			<g>
				<path class="st2" d="M21.4,37.6c0.1,0,0.2,0,0.3,0c0,0,0.1,0,0.1,0c-0.1,0-0.1,0-0.2-0.1C21.5,37.6,21.4,37.6,21.4,37.6z"/>
				<path class="st2" d="M21.8,6.1C21.7,6.1,21.7,6.1,21.8,6.1c-0.2,0-0.3,0-0.4,0c0.1,0,0.1,0,0.2,0.1C21.6,6.1,21.7,6.1,21.8,6.1z
					"/>
				<path class="st2" d="M21.4,37.6c-8.6-0.2-15.5-7.2-15.5-15.8c0-8.6,6.9-15.6,15.5-15.8l0.4,0c8.7,0,15.7,7.1,15.7,15.8
					c0,8.7-7,15.7-15.7,15.8L21.4,37.6z"/>
				<ellipse class="st2" cx="21.6" cy="21.8" rx="11.5" ry="15.7"/>
			</g>
			<g>
				<path class="st3" d="M14.2,35.7c-2-1.1-3.8-2.6-5.1-4.4"/>
				<path class="st3" d="M34.3,31.2c-1.4,1.8-3.1,3.3-5.1,4.4"/>
				<path class="st3" d="M21.7,27.6c5.8,0,10.7,1.5,12.6,3.7c2-2.6,3.1-5.9,3.1-9.4c0-3.6-1.2-6.9-3.2-9.5c-2,2.1-6.8,3.6-12.5,3.6
					s-10.5-1.5-12.5-3.6C7.2,15,6,18.3,6,21.8c0,3.5,1.2,6.8,3.1,9.4C11,29.1,15.9,27.6,21.7,27.6z"/>
				<path class="st3" d="M21.7,32.8c-3.1,0-5.9,1.1-7.5,2.9c2.2,1.2,4.8,1.9,7.5,1.9s5.2-0.7,7.5-1.9C27.5,34,24.8,32.8,21.7,32.8z"
					/>
				<path class="st3" d="M14.6,7.8c1.6,1.5,4.2,2.5,7.1,2.5s5.5-1,7.1-2.5c-2.1-1.1-4.5-1.7-7.1-1.7S16.7,6.7,14.6,7.8z"/>
			</g>
			<line class="st2" x1="21.7" y1="6.1" x2="21.7" y2="37.5"/>
		</g>
		<line class="st2" x1="5.9" y1="21.8" x2="37.5" y2="21.8"/>
	</g>
	<g>
		<path class="st4" d="M2.5,28.7l-0.1-0.4l1.5-0.5c0.6-0.2,0.9,0,1.1,0.5C5,28.4,5,28.5,5,28.6l-0.3,0.1c0-0.1,0-0.2,0-0.3
			c-0.1-0.2-0.2-0.3-0.6-0.2L2.5,28.7z"/>
		<path class="st4" d="M2.8,25.3c0.8-0.2,1.3,0.2,1.5,0.8c0.2,0.7-0.3,1.2-0.9,1.4c-0.7,0.2-1.3-0.2-1.5-0.8
			C1.7,25.9,2.1,25.4,2.8,25.3z M3.2,27c0.5-0.1,0.8-0.4,0.7-0.8c-0.1-0.4-0.5-0.6-1-0.4c-0.4,0.1-0.8,0.4-0.7,0.8
			C2.3,27,2.8,27.1,3.2,27z"/>
		<path class="st4" d="M1.5,24.4l2.4-0.3L4,24.6l-2.4,0.3L1.5,24.4z"/>
		<path class="st4" d="M3.8,23.6l-2.4,0.1l0-0.5l1-0.7c0.3-0.2,0.5-0.3,0.8-0.4l0,0c-0.3,0-0.6,0.1-1,0.1l-0.8,0l0-0.4l2.4-0.1
			l0,0.5l-1,0.7c-0.3,0.2-0.5,0.3-0.8,0.5l0,0c0.3,0,0.6,0,1-0.1l0.9,0L3.8,23.6z"/>
		<path class="st4" d="M1.8,20.5l-0.1,0.7l-0.4,0l0.2-1.8l0.4,0l-0.1,0.7l2,0.2l0,0.4L1.8,20.5z"/>
		<path class="st4" d="M4.3,15.9c0.1-0.1,0.3-0.3,0.4-0.5c0.1-0.3,0-0.5-0.1-0.5c-0.2-0.1-0.3,0-0.5,0.2c-0.3,0.3-0.6,0.5-0.9,0.3
			c-0.4-0.1-0.5-0.6-0.3-1C2.9,14.2,3,14.1,3.1,14l0.3,0.2c-0.1,0.1-0.2,0.2-0.3,0.4c-0.1,0.3,0,0.4,0.1,0.5c0.2,0.1,0.3,0,0.5-0.3
			c0.3-0.3,0.6-0.4,0.9-0.3C5,14.6,5.2,15,5,15.6c-0.1,0.2-0.3,0.5-0.4,0.5L4.3,15.9z"/>
		<path class="st4" d="M3.4,13.3c0-0.2,0.1-0.4,0.3-0.6c0.1-0.3,0.3-0.5,0.5-0.5c0.2-0.1,0.4-0.1,0.6,0c0.2,0.1,0.3,0.3,0.4,0.4
			c0.1,0.2,0,0.5-0.1,0.8c0,0.1-0.1,0.1-0.1,0.2L5.7,14l-0.2,0.4L3.4,13.3z M4.6,13.4c0,0,0.1-0.1,0.1-0.2c0.2-0.3,0.1-0.5-0.1-0.7
			c-0.2-0.1-0.4,0-0.6,0.2C3.9,12.9,3.9,13,3.9,13L4.6,13.4z"/>
		<path class="st4" d="M6.3,10.9l-0.5,0.7L6.4,12L7,11.2l0.3,0.2l-0.8,1.2l-2-1.3l0.8-1.2l0.3,0.2L5,11.1l0.5,0.3L6,10.7L6.3,10.9z"
			/>
		<path class="st4" d="M8.6,9.7c0,0.1-0.1,0.3-0.3,0.5c-0.5,0.6-1.2,0.6-1.7,0.1C6,9.9,6,9.1,6.4,8.6c0.2-0.2,0.4-0.3,0.5-0.4
			l0.2,0.3C7,8.6,6.8,8.7,6.7,8.8C6.4,9.2,6.4,9.6,6.8,10c0.4,0.3,0.9,0.3,1.2-0.1c0.1-0.1,0.2-0.3,0.2-0.4L8.6,9.7z"/>
		<path class="st4" d="M7.6,7.4l1.7,1.7L9,9.4L7.3,7.7L7.6,7.4z"/>
		<path class="st4" d="M9.6,7.9l0.3,0.7L9.5,8.9L8.6,6.5L9,6.2l2.1,1.4l-0.4,0.3l-0.6-0.4L9.6,7.9z M9.9,7.2L9.4,6.9
			C9.3,6.8,9.1,6.7,9,6.6l0,0C9.1,6.8,9.1,6.9,9.2,7l0.2,0.6L9.9,7.2z"/>
		<path class="st4" d="M10.2,5.3l0.4-0.2l1.1,1.7l0.8-0.5l0.2,0.3l-1.2,0.8L10.2,5.3z"/>
		<path class="st4" d="M17.7,3.3c0.2,0.8-0.1,1.3-0.8,1.5c-0.7,0.2-1.2-0.2-1.4-0.9c-0.2-0.7,0.1-1.3,0.8-1.5
			C16.9,2.2,17.5,2.6,17.7,3.3z M15.9,3.8c0.1,0.5,0.5,0.8,0.9,0.7c0.4-0.1,0.5-0.6,0.4-1c-0.1-0.4-0.4-0.8-0.9-0.7
			C15.9,2.9,15.8,3.3,15.9,3.8z"/>
		<path class="st4" d="M18,2.1C18.2,2,18.4,2,18.7,1.9c0.3,0,0.6,0,0.7,0.1c0.2,0.1,0.3,0.3,0.3,0.5c0,0.2,0,0.4-0.1,0.6
			c-0.2,0.2-0.4,0.3-0.7,0.4c-0.1,0-0.2,0-0.2,0l0.1,0.9l-0.4,0.1L18,2.1z M18.6,3.1c0.1,0,0.1,0,0.2,0c0.3,0,0.5-0.2,0.5-0.5
			c0-0.3-0.2-0.4-0.5-0.3c-0.1,0-0.2,0-0.2,0.1L18.6,3.1z"/>
		<path class="st4" d="M21.7,3.1l-0.9,0l0,0.7l1,0l0,0.4l-1.4,0l-0.1-2.4l1.4,0l0,0.4l-1,0l0,0.6l0.9,0L21.7,3.1z"/>
		<path class="st4" d="M22.4,1.8c0.2,0,0.4,0,0.7,0c0.3,0,0.6,0.1,0.7,0.2C23.9,2.1,24,2.3,24,2.5c0,0.3-0.2,0.5-0.5,0.6l0,0
			c0.2,0.1,0.3,0.3,0.3,0.5c0.1,0.3,0.1,0.6,0.1,0.7l-0.4,0c0-0.1-0.1-0.3-0.1-0.6c0-0.3-0.2-0.4-0.4-0.4l-0.2,0l-0.1,1l-0.4,0
			L22.4,1.8z M22.8,2.9l0.3,0c0.3,0,0.5-0.1,0.5-0.4c0-0.3-0.2-0.4-0.4-0.4c-0.1,0-0.2,0-0.3,0L22.8,2.9z"/>
		<path class="st4" d="M24.9,3.7l-0.3,0.6l-0.4-0.1l1.2-2.2l0.5,0.1l0.3,2.5l-0.5-0.1l-0.1-0.7L24.9,3.7z M25.7,3.5l-0.1-0.6
			c0-0.2,0-0.3,0-0.5l0,0c-0.1,0.1-0.1,0.3-0.2,0.4l-0.3,0.5L25.7,3.5z"/>
		<path class="st4" d="M27.3,2.9l-0.7-0.2l0.1-0.3l1.7,0.5l-0.1,0.3L27.7,3L27.2,5l-0.4-0.1L27.3,2.9z"/>
		<path class="st4" d="M29.4,3.3l-0.9,2.2l-0.4-0.2L29,3.1L29.4,3.3z"/>
		<path class="st4" d="M31.5,5.6c-0.4,0.7-1,0.9-1.6,0.6c-0.6-0.3-0.7-1-0.4-1.6c0.3-0.7,1-0.9,1.6-0.6C31.7,4.3,31.8,5,31.5,5.6z
			 M29.9,4.8c-0.2,0.4-0.2,0.9,0.2,1.1c0.4,0.2,0.8,0,1-0.5c0.2-0.4,0.2-0.9-0.2-1.1C30.5,4.1,30.1,4.3,29.9,4.8z"/>
		<path class="st4" d="M31.3,6.9l1.4-1.9L33,5.2L33,6.4c0,0.3-0.1,0.6-0.1,0.9l0,0C33,7,33.2,6.8,33.4,6.5l0.5-0.7L34.2,6L32.8,8
			l-0.4-0.3l0.1-1.2c0-0.3,0.1-0.6,0.1-0.9l0,0c-0.2,0.3-0.3,0.5-0.6,0.8l-0.5,0.7L31.3,6.9z"/>
		<path class="st4" d="M33.5,8c0,0.2,0.2,0.4,0.3,0.5c0.2,0.2,0.4,0.2,0.5,0c0.1-0.1,0.1-0.3,0-0.6c-0.2-0.4-0.2-0.7,0-1
			c0.3-0.3,0.7-0.3,1.1,0.1c0.2,0.2,0.3,0.3,0.3,0.5l-0.3,0.2c0-0.1-0.1-0.3-0.3-0.4c-0.2-0.2-0.4-0.2-0.5-0.1
			c-0.1,0.1-0.1,0.3,0.1,0.6c0.2,0.4,0.2,0.7,0,0.9c-0.3,0.3-0.7,0.3-1.2-0.1c-0.2-0.2-0.3-0.4-0.4-0.6L33.5,8z"/>
		<path class="st4" d="M37.6,13.6c-0.1-0.1-0.3-0.2-0.4-0.5c-0.4-0.7-0.2-1.3,0.4-1.7c0.7-0.4,1.4-0.2,1.7,0.4
			c0.1,0.2,0.2,0.5,0.2,0.6l-0.3,0.1c0-0.1-0.1-0.3-0.2-0.4c-0.2-0.4-0.7-0.6-1.2-0.3c-0.5,0.3-0.6,0.7-0.3,1.2
			c0.1,0.1,0.2,0.3,0.3,0.4L37.6,13.6z"/>
		<path class="st4" d="M39.6,15.4c-0.7,0.3-1.4,0.1-1.6-0.5c-0.3-0.6,0-1.2,0.7-1.5c0.7-0.3,1.3-0.1,1.6,0.5
			C40.6,14.5,40.3,15.1,39.6,15.4z M38.9,13.7c-0.4,0.2-0.7,0.6-0.5,1c0.2,0.4,0.6,0.4,1.1,0.2c0.4-0.2,0.7-0.6,0.5-1
			C39.8,13.6,39.3,13.5,38.9,13.7z"/>
		<path class="st4" d="M40.1,17.9c0.3-0.1,0.7-0.2,1-0.3l0,0c-0.3,0-0.6,0-1,0L39,17.5l-0.1-0.3l0.9-0.6c0.3-0.2,0.6-0.3,0.8-0.5
			l0,0c-0.3,0.1-0.7,0.2-1,0.2l-0.9,0.2l-0.1-0.4l2.4-0.5l0.1,0.6l-0.8,0.6c-0.2,0.2-0.5,0.3-0.7,0.4l0,0c0.3,0,0.6,0,0.9,0l1,0.1
			l0.1,0.5l-2.3,0.8l-0.1-0.4L40.1,17.9z"/>
		<path class="st4" d="M40.5,21c0.3,0,0.7-0.1,1-0.1l0,0c-0.3,0-0.6-0.1-0.9-0.2l-1.1-0.2l0-0.3l1-0.4c0.3-0.1,0.6-0.2,0.9-0.3l0,0
			c-0.3,0-0.7,0-1,0.1l-1,0l0-0.4l2.4-0.1l0.1,0.6l-0.9,0.4c-0.3,0.1-0.5,0.2-0.8,0.3l0,0c0.3,0,0.6,0.1,0.9,0.2l1,0.2l0.1,0.6
			l-2.4,0.4l0-0.4L40.5,21z"/>
		<path class="st4" d="M40.2,22.5l-0.7-0.2l0-0.5l2.4,0.9l0,0.6l-2.4,0.7l0-0.5l0.7-0.2L40.2,22.5z M40.5,23.2l0.6-0.2
			c0.1,0,0.3-0.1,0.5-0.1l0,0c-0.1,0-0.3-0.1-0.4-0.1l-0.6-0.2L40.5,23.2z"/>
		<path class="st4" d="M39.4,24.3l2.4,0.4l-0.1,0.5l-1.1,0.4c-0.3,0.1-0.6,0.2-0.9,0.3l0,0c0.3,0,0.6,0.1,1,0.1l0.8,0.1l-0.1,0.4
			l-2.4-0.4l0.1-0.4l1.1-0.4c0.3-0.1,0.6-0.2,0.9-0.3l0,0c-0.3,0-0.6-0.1-1-0.2l-0.8-0.2L39.4,24.3z"/>
		<path class="st4" d="M41.2,27.4c0,0.2-0.1,0.4-0.2,0.7c-0.1,0.4-0.3,0.7-0.6,0.8c-0.3,0.2-0.6,0.2-1,0.1c-0.4-0.1-0.7-0.4-0.8-0.7
			c-0.1-0.3-0.1-0.7,0-1.1c0.1-0.2,0.2-0.4,0.2-0.6L41.2,27.4z M39.2,27.2c0,0.1-0.1,0.1-0.1,0.2c-0.2,0.5,0,1,0.6,1.1
			c0.5,0.2,0.9,0,1.1-0.5c0-0.1,0.1-0.2,0.1-0.3L39.2,27.2z"/>
	</g>
	<ellipse class="st5" cx="21.7" cy="21.7" rx="21.5" ry="21.5"/>
	<g>
		<g>
			<path class="st6" d="M15.3,27.2c-0.3-0.1-0.6-0.4-0.9-0.7l0.6-0.3l16.5-9.4c0.5-0.3,1-1.7,1-1.7c0.1-0.1-0.1-0.1-0.1-0.1
				s-1.4-0.3-1.9,0L14,24.4l-0.6,0.3c-0.1-0.4-0.1-0.8-0.1-1.2c0-0.1,0-0.1-0.1-0.1l-0.7,0.4c0,0,0,0,0,0c-0.1,0.4,0,0.9,0.1,1.4
				l-0.7,0.4L11,26.2c-0.1,0-0.3,0-0.3,0c-0.1,0.1-0.3,0.3-0.3,0.3l-0.2,0.1c0,0-0.3,0-0.4,0.1c-0.3,0.2-0.5,0.8-0.2,1.3
				s0.9,0.7,1.2,0.5c0.1-0.1,0.3-0.3,0.3-0.3l0.2-0.1c0,0,0.3,0,0.4-0.1c0.1-0.1,0.2-0.2,0.2-0.3l0.8-0.5l0.7-0.4
				c0.3,0.4,0.7,0.7,1.1,0.8c0,0,0,0,0.1,0l0.7-0.4C15.4,27.3,15.4,27.2,15.3,27.2z"/>
			<g>
				<path class="st4" d="M12.8,25l17.6-10c0.5-0.3,1.9,0,1.9,0s0.1,0,0.1,0.1c0,0-0.5,1.4-1,1.7l-17.6,10L12.8,25z"/>
				<rect x="10.1" y="26.3" transform="matrix(0.4956 0.8685 -0.8685 0.4956 29.2268 4.2843)" class="st4" width="1.7" height="2"/>
				<path class="st7" d="M11.3,28.1c0,0,0.3,0,0.4-0.1c0.1-0.1,0.2-0.2,0.2-0.3l1.7-1l-0.9-1.6l-1.7,1c-0.1,0-0.3,0-0.3,0
					c-0.1,0.1-0.3,0.3-0.3,0.3l-0.2,0.1c0,0-0.3,0-0.4,0.1c-0.3,0.2-0.5,0.8-0.2,1.3c0.3,0.5,0.9,0.7,1.2,0.5
					c0.1-0.1,0.3-0.3,0.3-0.3L11.3,28.1z M11.5,27c0.2,0.3,0.2,0.6,0,0.7c-0.2,0.1-0.5-0.1-0.6-0.4c-0.2-0.3-0.2-0.6,0-0.7
					C11,26.5,11.3,26.7,11.5,27z M10.1,27.8c-0.2-0.3-0.2-0.6,0-0.7s0.5,0.1,0.6,0.4s0.2,0.6,0,0.7C10.5,28.3,10.2,28.1,10.1,27.8z"
					/>
				<path class="st4" d="M13.8,25.7c-0.4-0.7-0.6-1.5-0.5-2.2c0-0.1,0-0.1-0.1-0.1l-0.7,0.4c0,0,0,0,0,0c-0.1,0.6,0,1.5,0.5,2.3
					c0.4,0.8,1,1.3,1.6,1.5c0,0,0,0,0.1,0l0.7-0.4c0,0,0-0.1,0-0.1C14.8,26.9,14.2,26.4,13.8,25.7z"/>
				<path class="st8" d="M14.1,25.5l18-10.2c0,0-0.3,0.8-0.7,1.2l-15.1,8.6L14.1,25.5z"/>
				<path class="st9" d="M31.9,15.2L13.7,25.6l0.3-0.1l18-10.2C32,15.3,31.9,15.3,31.9,15.2z"/>
			</g>
			<path class="st9" d="M13.2,23.7c0,0-0.5,1.9,1.7,3.7l0.2-0.2C15.1,27.2,13.1,26.1,13.2,23.7z"/>
			<path class="st9" d="M12.4,25.4c0,0,0.3,1,0.8,1.5c0,0-1.4,0.8-1.4,0.8S12.7,26.4,12.4,25.4z"/>
			<path class="st9" d="M10.5,26.6c0-0.1,0.1-0.2,0.2-0.3c0.1-0.1,0.2-0.1,0.3-0.1l0.1,0c-0.1-0.1-0.3-0.1-0.4,0
				C10.5,26.3,10.5,26.5,10.5,26.6L10.5,26.6z"/>
			<path class="st9" d="M9.7,27.1c0-0.1,0.1-0.2,0.2-0.3c0.1-0.1,0.2-0.1,0.3-0.1l0.1,0c-0.1-0.1-0.3-0.1-0.4,0
				C9.7,26.8,9.6,26.9,9.7,27.1L9.7,27.1z"/>
			<path class="st10" d="M11.5,27c-0.1-0.2-0.3-0.4-0.5-0.4C11.1,26.6,11.3,26.8,11.5,27c0.1,0.3,0.1,0.6-0.1,0.7c0,0-0.1,0-0.2,0
				c0.1,0,0.2,0,0.2,0C11.7,27.6,11.7,27.3,11.5,27z"/>
			<path class="st10" d="M10.7,27.4c-0.1-0.2-0.3-0.4-0.5-0.4C10.3,27.1,10.5,27.2,10.7,27.4c0.1,0.3,0.1,0.6-0.1,0.7
				c0,0-0.1,0-0.2,0c0.1,0,0.2,0,0.2,0C10.9,28.1,10.9,27.7,10.7,27.4z"/>
		</g>
		<g>
			<path class="st6" d="M28,27.3l0.7,0.4c0,0,0,0,0.1,0c0.4-0.2,0.8-0.4,1.1-0.8l0.7,0.4l0.8,0.5c0.1,0.1,0.1,0.2,0.2,0.3
				c0.1,0.1,0.4,0.1,0.4,0.1l0.2,0.1c0,0,0.1,0.2,0.3,0.3c0.3,0.2,0.9,0,1.2-0.5c0.3-0.5,0.1-1.2-0.2-1.3c-0.1-0.1-0.4-0.1-0.4-0.1
				l-0.2-0.1c0,0-0.2-0.3-0.3-0.3c-0.1-0.1-0.2-0.1-0.3,0l-0.8-0.5l-0.7-0.4c0.1-0.5,0.2-1,0.1-1.4c0,0,0,0,0,0l-0.7-0.4
				c0,0-0.1,0-0.1,0.1c0.1,0.3,0,0.7-0.1,1.2l-0.6-0.3L12.9,15c-0.5-0.3-1.9,0-1.9,0s-0.1,0-0.1,0.1c0,0,0.5,1.4,1,1.7l16.5,9.4
				l0.6,0.3c-0.3,0.3-0.6,0.5-0.9,0.7C28,27.2,28,27.3,28,27.3z"/>
			<g>
				<path class="st4" d="M30.5,25L12.9,15c-0.5-0.3-1.9,0-1.9,0s-0.1,0-0.1,0.1c0,0,0.5,1.4,1,1.7l17.6,10L30.5,25z"/>
				
					<rect x="31.6" y="26.3" transform="matrix(-0.4956 0.8685 -0.8685 -0.4956 72.2064 12.6807)" class="st4" width="1.7" height="2"/>
				<path class="st7" d="M32.2,28.2c0,0,0.1,0.2,0.3,0.3c0.3,0.2,0.9,0,1.2-0.5c0.3-0.5,0.1-1.2-0.2-1.3c-0.1-0.1-0.4-0.1-0.4-0.1
					l-0.2-0.1c0,0-0.2-0.3-0.3-0.3c-0.1-0.1-0.2-0.1-0.3,0l-1.7-1l-0.9,1.6l1.7,1c0.1,0.1,0.1,0.2,0.2,0.3c0.1,0.1,0.4,0.1,0.4,0.1
					L32.2,28.2z M32.5,26.6c0.2,0.1,0.2,0.4,0,0.7c-0.2,0.3-0.5,0.5-0.6,0.4c-0.2-0.1-0.2-0.4,0-0.7C32,26.7,32.3,26.5,32.5,26.6z
					 M32.6,28.2c-0.2-0.1-0.2-0.4,0-0.7c0.2-0.3,0.5-0.5,0.6-0.4s0.2,0.4,0,0.7C33.1,28.1,32.8,28.3,32.6,28.2z"/>
				<path class="st4" d="M29.5,25.7c0.4-0.7,0.6-1.5,0.5-2.2c0-0.1,0-0.1,0.1-0.1l0.7,0.4c0,0,0,0,0,0c0.1,0.6,0,1.5-0.5,2.3
					c-0.4,0.8-1,1.3-1.6,1.5c0,0,0,0-0.1,0L28,27.3c0,0,0-0.1,0-0.1C28.6,26.9,29.1,26.4,29.5,25.7z"/>
				<path class="st8" d="M29.3,25.5l-18-10.2c0,0,0.3,0.8,0.7,1.2l15.1,8.6L29.3,25.5z"/>
				<path class="st9" d="M11.5,15.2l18.1,10.3l-0.3-0.1l-18-10.2C11.3,15.3,11.4,15.3,11.5,15.2z"/>
			</g>
			<path class="st9" d="M30.2,23.7c0,0,0.5,1.9-1.7,3.7l-0.2-0.2C28.2,27.2,30.3,26.1,30.2,23.7z"/>
			<path class="st9" d="M30.9,25.4c0,0-0.3,1-0.8,1.5c0,0,1.4,0.8,1.4,0.8S30.6,26.4,30.9,25.4z"/>
			<path class="st9" d="M32.9,26.6c0-0.1-0.1-0.2-0.2-0.3c-0.1-0.1-0.2-0.1-0.3-0.1l-0.1,0c0.1-0.1,0.3-0.1,0.4,0
				C32.8,26.3,32.9,26.5,32.9,26.6L32.9,26.6z"/>
			<path class="st9" d="M33.7,27.1c0-0.1-0.1-0.2-0.2-0.3c-0.1-0.1-0.2-0.1-0.3-0.1l-0.1,0c0.1-0.1,0.3-0.1,0.4,0
				C33.6,26.8,33.7,26.9,33.7,27.1L33.7,27.1z"/>
			<path class="st10" d="M31.9,27c0.1-0.2,0.3-0.4,0.5-0.4C32.2,26.6,32.1,26.8,31.9,27c-0.1,0.3-0.1,0.6,0.1,0.7c0,0,0.1,0,0.2,0
				c-0.1,0-0.2,0-0.2,0C31.7,27.6,31.7,27.3,31.9,27z"/>
			<path class="st10" d="M32.7,27.4c0.1-0.2,0.3-0.4,0.5-0.4C33,27.1,32.8,27.2,32.7,27.4c-0.1,0.3-0.1,0.6,0.1,0.7c0,0,0.1,0,0.2,0
				c-0.1,0-0.2,0-0.2,0C32.5,28.1,32.5,27.7,32.7,27.4z"/>
		</g>
	</g>
	<g>
		<g>
			<path class="st6" d="M28,29.7c-0.3,0.2-0.6,0.4-1.1,0.5v-0.7V10.6c0-0.6-1-1.7-1-1.7c-0.1-0.1-0.1,0-0.1,0s-1,1.1-1,1.7v18.9v0.7
				c-0.4-0.1-0.8-0.3-1-0.5c0,0-0.1,0-0.1,0v0.8c0,0,0,0,0,0c0.3,0.3,0.7,0.5,1.2,0.6V32v1c-0.1,0.1-0.1,0.2-0.1,0.3
				c0,0.1,0.1,0.4,0.1,0.4v0.2c0,0-0.1,0.2-0.1,0.4c0,0.3,0.5,0.8,1.1,0.8c0.6,0,1.1-0.5,1.1-0.8c0-0.1-0.1-0.4-0.1-0.4v-0.2
				c0,0,0.1-0.3,0.1-0.4c0-0.1-0.1-0.2-0.1-0.3v-1v-0.8c0.5-0.1,0.9-0.3,1.2-0.5c0,0,0,0,0-0.1L28,29.7C28.1,29.7,28.1,29.7,28,29.7
				z"/>
			<g>
				<path class="st4" d="M24.9,30.8V10.6c0-0.6,1-1.7,1-1.7s0-0.1,0.1,0c0,0,1,1.1,1,1.7v20.2H24.9z"/>
				<rect x="25.1" y="32.6" class="st4" width="1.7" height="2"/>
				<path class="st7" d="M26.9,33.7c0,0,0.1-0.3,0.1-0.4c0-0.1-0.1-0.2-0.1-0.3V31H25V33c-0.1,0.1-0.1,0.2-0.1,0.3
					c0,0.1,0.1,0.4,0.1,0.4v0.2c0,0-0.1,0.2-0.1,0.4c0,0.3,0.5,0.8,1.1,0.8c0.6,0,1.1-0.5,1.1-0.8c0-0.1-0.1-0.4-0.1-0.4V33.7z
					 M26,33c0.4,0,0.7,0.2,0.7,0.4s-0.3,0.4-0.7,0.4c-0.4,0-0.7-0.2-0.7-0.4S25.6,33,26,33z M26,34.6c-0.4,0-0.7-0.2-0.7-0.4
					s0.3-0.4,0.7-0.4s0.7,0.2,0.7,0.4S26.3,34.6,26,34.6z"/>
				<path class="st4" d="M26,30.3c-0.9,0-1.6-0.2-2.1-0.6c0,0-0.1,0-0.1,0v0.8c0,0,0,0,0,0c0.5,0.4,1.3,0.7,2.2,0.7
					c0.9,0,1.6-0.3,2.1-0.6c0,0,0,0,0-0.1v-0.8c0-0.1-0.1-0.1-0.1,0C27.6,30.1,26.8,30.3,26,30.3z"/>
				<path class="st8" d="M26,30V9.3c0,0,0.5,0.6,0.7,1.2v17.4L26,30z"/>
				<path class="st9" d="M25.8,9.5v20.9l0.1-0.3V9.3C25.9,9.3,25.9,9.4,25.8,9.5z"/>
			</g>
			<path class="st9" d="M24,29.9c0,0,1.4,1.4,4,0.3l0-0.3C28,29.9,26,31.2,24,29.9z"/>
			<path class="st9" d="M25.1,31.4c0,0,1,0.2,1.7,0c0,0,0,1.6,0,1.6S26.1,31.6,25.1,31.4z"/>
			<path class="st9" d="M25.1,33.6c-0.1-0.1-0.1-0.2-0.1-0.3c0-0.1,0-0.2,0.1-0.3v-0.1c-0.1,0.1-0.2,0.2-0.2,0.4S25,33.6,25.1,33.6
				L25.1,33.6z"/>
			<path class="st9" d="M25.1,34.6c-0.1-0.1-0.1-0.2-0.1-0.3c0-0.1,0-0.2,0.1-0.3v-0.1c-0.1,0.1-0.2,0.2-0.2,0.4
				C24.9,34.4,25,34.5,25.1,34.6L25.1,34.6z"/>
			<path class="st10" d="M25.9,33c-0.3,0-0.5,0.1-0.6,0.2C25.5,33.1,25.7,33,25.9,33c0.3,0.1,0.6,0.2,0.6,0.4c0,0.1,0,0.1-0.1,0.2
				c0.1-0.1,0.1-0.1,0.1-0.2C26.6,33.1,26.3,33,25.9,33z"/>
			<path class="st10" d="M25.9,33.9c-0.3,0-0.5,0.1-0.6,0.2C25.5,34,25.7,33.9,25.9,33.9c0.3,0.1,0.6,0.2,0.6,0.4
				c0,0.1,0,0.1-0.1,0.2c0.1-0.1,0.1-0.1,0.1-0.2C26.6,34,26.3,33.9,25.9,33.9z"/>
		</g>
		<g>
			<path class="st6" d="M19.5,29.7c-0.3,0.2-0.6,0.4-1.1,0.5v-0.7V10.6c0-0.6-1-1.7-1-1.7c-0.1-0.1-0.1,0-0.1,0s-1,1.1-1,1.7v18.9
				v0.7c-0.4-0.1-0.8-0.3-1-0.5c0,0-0.1,0-0.1,0v0.8c0,0,0,0,0,0c0.3,0.3,0.7,0.5,1.2,0.6V32v1c-0.1,0.1-0.1,0.2-0.1,0.3
				c0,0.1,0.1,0.4,0.1,0.4v0.2c0,0-0.1,0.2-0.1,0.4c0,0.3,0.5,0.8,1.1,0.8c0.6,0,1.1-0.5,1.1-0.8c0-0.1-0.1-0.4-0.1-0.4v-0.2
				c0,0,0.1-0.3,0.1-0.4c0-0.1-0.1-0.2-0.1-0.3v-1v-0.8c0.5-0.1,0.9-0.3,1.2-0.5c0,0,0,0,0-0.1L19.5,29.7
				C19.6,29.7,19.5,29.7,19.5,29.7z"/>
			<g>
				<path class="st4" d="M16.4,30.8V10.6c0-0.6,1-1.7,1-1.7s0-0.1,0.1,0c0,0,1,1.1,1,1.7v20.2H16.4z"/>
				<rect x="16.5" y="32.6" class="st4" width="1.7" height="2"/>
				<path class="st7" d="M18.3,33.7c0,0,0.1-0.3,0.1-0.4c0-0.1-0.1-0.2-0.1-0.3V31h-1.8V33c-0.1,0.1-0.1,0.2-0.1,0.3
					c0,0.1,0.1,0.4,0.1,0.4v0.2c0,0-0.1,0.2-0.1,0.4c0,0.3,0.5,0.8,1.1,0.8s1.1-0.5,1.1-0.8c0-0.1-0.1-0.4-0.1-0.4V33.7z M17.4,33
					c0.4,0,0.7,0.2,0.7,0.4s-0.3,0.4-0.7,0.4c-0.4,0-0.7-0.2-0.7-0.4S17,33,17.4,33z M17.4,34.6c-0.4,0-0.7-0.2-0.7-0.4
					s0.3-0.4,0.7-0.4c0.4,0,0.7,0.2,0.7,0.4S17.8,34.6,17.4,34.6z"/>
				<path class="st4" d="M17.4,30.3c-0.9,0-1.6-0.2-2.1-0.6c0,0-0.1,0-0.1,0v0.8c0,0,0,0,0,0c0.5,0.4,1.3,0.7,2.2,0.7
					c0.9,0,1.6-0.3,2.1-0.6c0,0,0,0,0-0.1v-0.8c0-0.1-0.1-0.1-0.1,0C19,30.1,18.2,30.3,17.4,30.3z"/>
				<path class="st8" d="M17.4,30V9.3c0,0,0.5,0.6,0.7,1.2v17.4L17.4,30z"/>
				<path class="st9" d="M17.3,9.5v20.9l0.1-0.3V9.3C17.4,9.3,17.3,9.4,17.3,9.5z"/>
			</g>
			<path class="st9" d="M15.4,29.9c0,0,1.4,1.4,4,0.3l0-0.3C19.4,29.9,17.4,31.2,15.4,29.9z"/>
			<path class="st9" d="M16.5,31.4c0,0,1,0.2,1.7,0c0,0,0,1.6,0,1.6S17.5,31.6,16.5,31.4z"/>
			<path class="st9" d="M16.6,33.6c-0.1-0.1-0.1-0.2-0.1-0.3c0-0.1,0-0.2,0.1-0.3v-0.1c-0.1,0.1-0.2,0.2-0.2,0.4
				S16.4,33.6,16.6,33.6L16.6,33.6z"/>
			<path class="st9" d="M16.6,34.6c-0.1-0.1-0.1-0.2-0.1-0.3c0-0.1,0-0.2,0.1-0.3v-0.1c-0.1,0.1-0.2,0.2-0.2,0.4
				C16.4,34.4,16.4,34.5,16.6,34.6L16.6,34.6z"/>
			<path class="st10" d="M17.4,33c-0.3,0-0.5,0.1-0.6,0.2C16.9,33.1,17.1,33,17.4,33c0.3,0.1,0.6,0.2,0.6,0.4c0,0.1,0,0.1-0.1,0.2
				c0.1-0.1,0.1-0.1,0.1-0.2C18,33.1,17.8,33,17.4,33z"/>
			<path class="st10" d="M17.4,33.9c-0.3,0-0.5,0.1-0.6,0.2C16.9,34,17.1,33.9,17.4,33.9c0.3,0.1,0.6,0.2,0.6,0.4
				c0,0.1,0,0.1-0.1,0.2c0.1-0.1,0.1-0.1,0.1-0.2C18,34,17.8,33.9,17.4,33.9z"/>
		</g>
	</g>
</g>
</svg>
