<?xml version="1.0" encoding="utf-8"?>
<!-- Generator: Adobe Illustrator 24.1.2, SVG Export Plug-In . SVG Version: 6.00 Build 0)  -->
<svg version="1.1" id="Layer_1" xmlns="http://www.w3.org/2000/svg" xmlns:xlink="http://www.w3.org/1999/xlink" x="0px" y="0px"
	 viewBox="0 0 43.4 43.4" style="enable-background:new 0 0 43.4 43.4;" xml:space="preserve">
<style type="text/css">
	.st0{fill:#B6B6B6;}
	.st1{clip-path:url(#SVGID_2_);fill:#B6B6B6;}
	.st2{opacity:0.5;}
	.st3{fill:#71A7B6;}
</style>
<g>
	<g>
		<g>
			<path class="st0" d="M21.7,43.4C9.7,43.4,0,33.7,0,21.7C0,9.7,9.7,0,21.7,0c12,0,21.7,9.7,21.7,21.7
				C43.4,33.7,33.7,43.4,21.7,43.4z M21.7,0.3C9.9,0.3,0.3,9.9,0.3,21.7c0,11.8,9.6,21.4,21.4,21.4c11.8,0,21.4-9.6,21.4-21.4
				C43.1,9.9,33.5,0.3,21.7,0.3z"/>
			<g>
				<path class="st0" d="M3.9,30c0-0.1,0-0.1,0-0.2c0-0.1,0.1-0.1,0.1-0.1l0.2-0.1l0.1,0.1L4,29.9l0.2,0.5L4.9,30L5,30.2l-0.7,0.3
					c-0.1,0-0.1,0-0.2,0c-0.1,0-0.1-0.1-0.1-0.1L3.9,30z"/>
				<path class="st0" d="M5.1,30.8c0.1,0,0.1-0.1,0.2,0c0,0,0.1,0.1,0.1,0.1l0.3,0.6c0,0.1,0.1,0.1,0,0.2c0,0-0.1,0.1-0.1,0.1
					L5.2,32C5.1,32,5.1,32,5,32c-0.1,0-0.1-0.1-0.1-0.1l-0.3-0.6c0-0.1-0.1-0.1,0-0.2c0,0,0.1-0.1,0.1-0.1L5.1,30.8z M4.6,31.2
					L5,31.9l0.6-0.3l-0.4-0.7L4.6,31.2z"/>
				
					<rect x="5.3" y="32.4" transform="matrix(0.8379 -0.5459 0.5459 0.8379 -16.7724 8.4005)" class="st0" width="0.9" height="0.2"/>
				<path class="st0" d="M5.8,33.3l0.8-0.6l0.1,0.1l-0.1,0.9c0,0.1,0,0.1,0,0.2c0.1-0.1,0.1-0.1,0.2-0.2L7,33.4l0.1,0.1l-0.8,0.6
					L6.3,34l0.1-1c0,0,0,0,0-0.1c0,0,0-0.1,0-0.1c-0.1,0-0.1,0.1-0.2,0.1l-0.4,0.3L5.8,33.3z"/>
				<polygon class="st0" points="7.7,34.4 7,34.9 6.9,34.8 7.6,34.3 7.3,33.9 7.4,33.9 8,34.6 7.9,34.7 				"/>
				<path class="st0" d="M9.3,36.1l-0.5-0.5l-0.2,0.2l0.4,0.4c0.1,0,0.1,0.1,0.1,0.2c0,0.1,0,0.1-0.1,0.2L9,36.6
					c0,0.1-0.1,0.1-0.2,0.1c-0.1,0-0.1,0-0.2-0.1l-0.4-0.4c-0.1,0-0.1-0.2-0.1-0.2c0,0,0,0,0,0c0,0,0,0,0.1-0.1l0,0L8.4,36l-0.1,0.1
					l0.5,0.5L9,36.4L8.6,36c0,0-0.1-0.1-0.1-0.2c0-0.1,0-0.1,0.1-0.2l0.1-0.1c0-0.1,0.1-0.1,0.2-0.1c0.1,0,0.1,0,0.2,0.1l0.4,0.3
					c0,0,0.1,0.1,0.1,0.1c0,0.1,0,0.1-0.1,0.2l0,0l-0.1-0.1L9.3,36.1z"/>
				<path class="st0" d="M9.4,37.2l0.6-0.7l0.6,0.5c0,0,0.1,0.1,0.1,0.1c0,0.1,0,0.1,0,0.1l-0.1,0.2c0,0-0.1,0.1-0.1,0.1
					c-0.1,0-0.1,0-0.1-0.1L9.7,37l-0.2,0.3L9.4,37.2z M10.4,37L10,36.6l-0.2,0.3l0.4,0.3c0,0,0,0,0.1,0c0,0,0.1,0,0.1,0l0.1-0.1
					C10.5,37.1,10.5,37.1,10.4,37C10.5,37,10.5,37,10.4,37L10.4,37z"/>
				<polygon class="st0" points="10.6,38.1 11.1,37.3 11.9,37.8 11.8,37.9 11.2,37.5 11,37.7 11.4,38 11.3,38.1 11,37.8 10.8,38.1 
					11.4,38.5 11.4,38.6 				"/>
				<path class="st0" d="M12.9,38.6l-0.6-0.3L12,38.9l0.6,0.3l0.1-0.2l0.1,0.1l-0.1,0.1c0,0.1-0.1,0.1-0.1,0.1c-0.1,0-0.1,0-0.2,0
					L12,39c-0.1,0-0.1-0.1-0.1-0.1c0-0.1,0-0.1,0-0.2l0.2-0.4c0-0.1,0.1-0.1,0.1-0.1c0.1,0,0.1,0,0.2,0l0.5,0.3
					c0.1,0,0.1,0.1,0.1,0.1c0,0.1,0,0.1,0,0.2l0,0.1l-0.2-0.1L12.9,38.6z"/>
				
					<rect x="13" y="39.1" transform="matrix(0.4369 -0.8995 0.8995 0.4369 -27.7155 34.1742)" class="st0" width="0.9" height="0.2"/>
				<path class="st0" d="M13.7,39.9l0.8-0.7l0.2,0.1l0.1,1.1l-0.2-0.1l0-0.3L14,39.8l-0.2,0.2L13.7,39.9z M14.2,39.7l0.5,0.2l0-0.5
					L14.2,39.7z"/>
				<polygon class="st0" points="15.3,40.5 15.6,39.6 15.7,39.7 15.5,40.4 16.1,40.7 16.1,40.8 				"/>
				<path class="st0" d="M17.5,40.4c0-0.1,0.1-0.2,0.2-0.2c0,0,0.1,0,0.1,0l0.6,0.1c0.1,0,0.1,0,0.2,0.1c0,0.1,0,0.1,0,0.2l-0.1,0.5
					c0,0.1,0,0.1-0.1,0.2c-0.1,0-0.1,0-0.2,0l-0.6-0.1c-0.1,0-0.2-0.1-0.2-0.2c0,0,0-0.1,0-0.1L17.5,40.4z M17.5,41l0.8,0.2l0.1-0.7
					l-0.8-0.2L17.5,41z"/>
				<path class="st0" d="M19.1,41.4l0.1-0.9l0.8,0.1c0.1,0,0.1,0,0.1,0.1c0,0,0,0.1,0,0.1l0,0.2c0,0.1,0,0.1-0.1,0.1
					c0,0-0.1,0-0.2,0l-0.6-0.1l0,0.4L19.1,41.4z M19.9,40.7l-0.5-0.1l0,0.3l0.5,0.1c0,0,0.1,0,0.1,0c0,0,0,0,0-0.1l0-0.1
					C20,40.8,19.9,40.7,19.9,40.7C19.9,40.7,19.9,40.7,19.9,40.7L19.9,40.7z"/>
				<polygon class="st0" points="20.6,41.6 20.6,40.6 21.5,40.7 21.5,40.8 20.8,40.8 20.8,41 21.2,41.1 21.2,41.2 20.8,41.2 
					20.8,41.5 21.5,41.5 21.5,41.6 				"/>
				<path class="st0" d="M22.1,41.6l0-0.9l0.8,0c0.1,0,0.1,0,0.2,0c0,0,0.1,0.1,0.1,0.1l0,0.2c0,0.1,0,0.1,0,0.1c0,0-0.1,0.1-0.1,0
					l-0.1,0l0.4,0.4l-0.2,0l-0.4-0.4l-0.3,0l0,0.4L22.1,41.6z M22.7,40.8l-0.5,0l0,0.3l0.5,0c0,0,0.1,0,0.1,0c0,0,0-0.1,0-0.1l0-0.1
					C22.8,40.8,22.8,40.8,22.7,40.8C22.8,40.8,22.8,40.8,22.7,40.8"/>
				<path class="st0" d="M23.5,41.5l0.4-1l0.2,0l0.6,0.9l-0.2,0l-0.1-0.2l-0.6,0.1l-0.1,0.2L23.5,41.5z M23.7,41.2l0.5-0.1l-0.3-0.4
					L23.7,41.2z"/>
				<polygon class="st0" points="25.3,40.5 25.5,41.3 25.3,41.3 25.2,40.5 24.7,40.6 24.7,40.4 25.7,40.3 25.7,40.4 				"/>
				
					<rect x="26.2" y="40.1" transform="matrix(0.9724 -0.2332 0.2332 0.9724 -8.7471 7.2358)" class="st0" width="0.2" height="0.9"/>
				<path class="st0" d="M26.8,40.2c-0.1-0.1,0-0.2,0.1-0.3c0,0,0.1,0,0.1,0l0.6-0.2c0.1,0,0.1,0,0.2,0c0.1,0,0.1,0.1,0.1,0.2
					l0.1,0.5c0,0.1,0,0.1,0,0.2c0,0.1-0.1,0.1-0.2,0.1l-0.6,0.2c-0.1,0.1-0.2,0-0.2-0.1c0,0,0,0,0,0c0,0,0-0.1,0-0.1L26.8,40.2z
					 M27.1,40.7l0.7-0.2l-0.2-0.7l-0.7,0.2L27.1,40.7z"/>
				<path class="st0" d="M28.7,40.3l-0.4-0.9l0.1,0l0.9,0.3c0.1,0,0.1,0,0.1,0.1c0-0.1-0.1-0.1-0.1-0.2l-0.2-0.5l0.1-0.1l0.4,0.9
					l-0.1,0l-0.9-0.3l-0.1,0c0,0,0,0-0.1,0c0,0.1,0.1,0.1,0.1,0.2l0.2,0.5L28.7,40.3z"/>
				<path class="st0" d="M30.7,38.6l-0.6,0.3l0.1,0.2l0.5-0.3c0.1,0,0.1,0,0.2,0c0.1,0,0.1,0.1,0.1,0.1l0,0.1c0,0.1,0,0.1,0,0.2
					c0,0-0.1,0.1-0.1,0.1l-0.5,0.3c-0.1,0.1-0.2,0.1-0.3,0l0,0c0,0,0,0,0-0.1l0,0l0.1-0.1l0.1,0.1l0.6-0.3l-0.1-0.3l-0.5,0.3
					c-0.1,0-0.1,0-0.2,0c-0.1,0-0.1-0.1-0.1-0.1l0-0.1c-0.1-0.1-0.1-0.2,0-0.3c0,0,0,0,0.1,0l0.4-0.2c0.1,0,0.1,0,0.2,0
					c0,0,0.1,0.1,0.1,0.1l0,0l-0.1,0.1L30.7,38.6z"/>
				<path class="st0" d="M32.6,37.4l-0.5,0.4l0.4,0.6l0.5-0.4l-0.1-0.2l0.1-0.1l0.1,0.1c0,0,0.1,0.1,0.1,0.2c0,0.1-0.1,0.1-0.1,0.1
					l-0.4,0.3c-0.1,0.1-0.2,0.1-0.3,0c0,0,0-0.1-0.1-0.1L32,37.9c0,0-0.1-0.1-0.1-0.2c0-0.1,0.1-0.1,0.1-0.1l0.4-0.3
					c0,0,0.1-0.1,0.2-0.1c0.1,0,0.1,0.1,0.1,0.1l0.1,0.1l-0.1,0.1L32.6,37.4z"/>
				<path class="st0" d="M33.2,37c-0.1-0.1-0.1-0.2,0-0.3c0,0,0,0,0.1-0.1l0.5-0.4c0,0,0.1-0.1,0.2-0.1c0.1,0,0.1,0.1,0.1,0.1
					l0.3,0.4c0,0,0.1,0.1,0.1,0.2c0,0.1-0.1,0.1-0.1,0.1l-0.5,0.4c-0.1,0.1-0.2,0.1-0.3,0c0,0,0,0,0,0c0,0,0,0-0.1-0.1L33.2,37z
					 M33.7,37.4l0.6-0.5l-0.4-0.5l-0.6,0.5L33.7,37.4z"/>
				<path class="st0" d="M34.6,35.8c0,0,0.1,0.1,0.1,0.1l0.4,0.5l-0.1,0.1l-0.7-0.7l0.1-0.1l0.8,0.1L35.1,35l0.1-0.1l0.7,0.7
					l-0.1,0.1l-0.4-0.5l-0.1-0.1c0,0,0,0.1,0,0.1l0.1,0.6l0,0l-0.6-0.1C34.7,35.8,34.6,35.8,34.6,35.8"/>
				<path class="st0" d="M35.9,34.5c0,0,0.1,0.1,0.1,0.1l0.5,0.4l-0.1,0.1l-0.7-0.6l0.1-0.1l0.8,0l-0.2-0.7l0.1-0.1l0.7,0.6L37,34.3
					l-0.5-0.4l-0.1-0.1c0,0,0,0.1,0,0.1l0.2,0.6l0,0l-0.6,0C35.9,34.5,35.9,34.5,35.9,34.5"/>
				<path class="st0" d="M37.4,33.8l-0.5-1l0.1-0.1l1.1,0.1L38,33l-0.3,0l-0.4,0.5l0.1,0.2L37.4,33.8z M37.3,33.3l0.3-0.4l-0.5-0.1
					L37.3,33.3z"/>
				<path class="st0" d="M38.4,32.4l-0.8-0.5l0.1-0.1l0.9-0.3c0.1,0,0.1,0,0.2,0c-0.1,0-0.1-0.1-0.2-0.1L38,31.1l0.1-0.1l0.8,0.5
					l0,0.1l-0.9,0.3l-0.1,0c0,0-0.1,0-0.1,0c0.1,0,0.1,0.1,0.2,0.1l0.5,0.3L38.4,32.4z"/>
				<path class="st0" d="M38.6,30c0-0.1,0.1-0.2,0.2-0.3c0.1,0,0.1-0.1,0.2-0.1c0.1,0,0.2,0,0.2,0.1c0.1,0.1,0.3,0.2,0.3,0.3
					c0,0.1,0,0.2-0.1,0.4l-0.2,0.5l-0.8-0.4L38.6,30z M38.7,30.1l-0.1,0.3l0.6,0.3l0.1-0.3c0.1-0.1,0.1-0.2,0.1-0.3
					c0-0.1-0.1-0.2-0.2-0.2c-0.1-0.1-0.2-0.1-0.3,0C38.8,29.9,38.8,30,38.7,30.1"/>
			</g>
			<g>
				<path class="st0" d="M2.4,19.6l1.3,0.2l0.2-1.4l-0.5-0.1L3.2,19L3,19l0.1-1l0.6,0.1c0.1,0,0.1,0,0.2,0c0.1,0,0.1,0,0.1,0.1
					c0,0,0,0.1,0,0.1c0,0.1,0,0.1,0,0.2l-0.2,1.1c0,0.1,0,0.1,0,0.2c0,0.1,0,0.1-0.1,0.1c0,0-0.1,0-0.1,0c-0.1,0-0.1,0-0.2,0
					l-0.9-0.1c-0.1,0-0.1,0-0.2,0c-0.1,0-0.1,0-0.1-0.1c0,0,0-0.1,0-0.1c0-0.1,0-0.1,0-0.2l0.2-1.1c0-0.1,0-0.1,0-0.2
					c0-0.1,0-0.1,0.1-0.1c0,0,0.1,0,0.1-0.1c0.1,0,0.1,0,0.2,0l0,0l0,0.3l-0.3,0L2.4,19.6z"/>
				<polygon class="st0" points="2.6,17.1 2.6,16.9 4.1,17.3 4.5,16 4.7,16 4.3,17.6 				"/>
				<path class="st0" d="M3.4,15.1c0,0-0.1-0.1-0.1-0.1c0,0,0-0.1,0-0.1c0-0.1,0-0.1,0.1-0.2l0.5-1.1c0-0.1,0.1-0.1,0.1-0.2
					c0,0,0.1-0.1,0.1-0.1c0,0,0.1,0,0.1,0c0.1,0,0.1,0,0.2,0.1l0.9,0.4c0.1,0,0.1,0.1,0.2,0.1c0,0,0.1,0.1,0.1,0.1c0,0,0,0.1,0,0.1
					c0,0.1,0,0.1-0.1,0.2L5,15.4c0,0.1-0.1,0.1-0.1,0.2c0,0-0.1,0.1-0.1,0.1c0,0-0.1,0-0.1,0c-0.1,0-0.1,0-0.2-0.1l-0.9-0.4
					C3.5,15.2,3.4,15.2,3.4,15.1 M5.2,14l-1.2-0.5l-0.6,1.4l1.2,0.5L5.2,14z"/>
				<path class="st0" d="M4.4,12.4l0.7-1.2c0.1-0.1,0.1-0.2,0.2-0.2c0.1,0,0.2,0,0.3,0.1l0.2,0.1c0,0,0.1,0,0.1,0.1
					c0,0,0,0.1,0.1,0.1c0,0,0,0.1,0,0.1c0,0,0,0.1,0,0.1c0.1-0.2,0.3-0.2,0.5-0.1l0.2,0.1c0.2,0.1,0.2,0.3,0,0.6l-0.7,1.1L4.4,12.4z
					 M5.5,11.3c-0.1,0-0.1,0-0.1,0c0,0-0.1,0-0.1,0.1l-0.5,0.9l0.4,0.3l0.5-0.9c0-0.1,0-0.1,0-0.1c0,0,0-0.1-0.1-0.1L5.5,11.3z
					 M6.1,11.7c-0.1,0-0.1-0.1-0.2,0c0,0-0.1,0-0.1,0.1l-0.5,0.9l0.5,0.3L6.4,12c0-0.1,0.1-0.1,0-0.2c0,0-0.1-0.1-0.1-0.1L6.1,11.7z
					"/>
				<path class="st0" d="M6.2,9.6l0.2-0.2l2,0.3L8.1,10L7.7,9.9l-0.7,0.9l0.2,0.4l-0.2,0.2L6.2,9.6z M7.4,9.8l-1-0.2l0.4,0.9
					L7.4,9.8z"/>
				<polygon class="st0" points="7.4,8.1 7.6,7.9 8.7,9 9.7,8.1 9.8,8.2 8.7,9.4 				"/>
				<path class="st0" d="M10.6,5.4l0.3-0.2l1.8,0.9l-0.3,0.2L12,6.1l-1,0.7l0.1,0.5l-0.2,0.2L10.6,5.4z M11.8,6l-0.9-0.5l0.1,1
					L11.8,6z"/>
				<path class="st0" d="M12.2,4.4l0.2-0.1l1.7,0.5c0.1,0,0.2,0.1,0.3,0.1c0-0.1-0.1-0.1-0.1-0.2c0-0.1-0.1-0.1-0.1-0.2l-0.4-0.9
					L14,3.5l0.8,1.6l-0.1,0.1l-1.8-0.5c0,0-0.1,0-0.1,0c0,0-0.1,0-0.1-0.1c0,0.1,0.1,0.1,0.1,0.2c0,0.1,0.1,0.1,0.1,0.2l0.5,0.9
					L13,6L12.2,4.4z"/>
				<path class="st0" d="M15.5,3l0.3-0.1l1.5,1.4l-0.3,0.1L16.6,4l-1.1,0.4l-0.1,0.5L15.1,5L15.5,3z M16.4,3.9l-0.7-0.7l-0.2,1
					L16.4,3.9z"/>
				<polygon class="st0" points="17.3,2.5 17.6,2.4 17.8,3.9 19.2,3.7 19.2,3.9 17.6,4.2 				"/>
				<polygon class="st0" points="20,3.1 19,2.1 19.4,2.1 20.2,2.8 20.8,2 21.1,2 20.3,3 20.4,3.8 20.1,3.8 				"/>
				<polygon class="st0" points="22.3,3.8 22,3.8 22,2.2 21.2,2.2 21.2,2 23.1,2 23.1,2.3 22.3,2.2 				"/>
				
					<rect x="22.7" y="2.8" transform="matrix(0.1028 -0.9947 0.9947 0.1028 18.2449 26.167)" class="st0" width="1.8" height="0.3"/>
				<path class="st0" d="M25,2.5l-0.3,1.3L25.9,4L26,3.6l0.3,0.1l0,0.2c0,0.1,0,0.1-0.1,0.2c0,0.1-0.1,0.1-0.1,0.1c0,0-0.1,0-0.1,0
					c-0.1,0-0.1,0-0.2,0l-1-0.2c-0.1,0-0.1,0-0.2-0.1c0,0-0.1-0.1-0.1-0.1c0,0,0-0.1,0-0.1c0-0.1,0-0.1,0-0.2l0.2-0.9
					c0-0.1,0-0.1,0.1-0.2c0,0,0.1-0.1,0.1-0.1c0,0,0.1,0,0.1,0c0.1,0,0.1,0,0.2,0l1,0.2c0.1,0,0.1,0,0.2,0.1c0,0,0.1,0.1,0.1,0.1
					c0,0,0,0.1,0,0.1c0,0.1,0,0.1,0,0.2l0,0.2l-0.3,0l0.1-0.4L25,2.5z"/>
				<path class="st0" d="M27.4,3.1l-0.2,0.5l1.1,0.4c0.1,0,0.1,0.1,0.2,0.1c0,0,0.1,0.1,0.1,0.1c0,0,0,0.1,0,0.1c0,0.1,0,0.1,0,0.2
					l-0.1,0.2c0,0.1-0.1,0.1-0.1,0.2c0,0-0.1,0.1-0.1,0.1c0,0-0.1,0-0.1,0c-0.1,0-0.1,0-0.2,0l-1-0.3c-0.1,0-0.1-0.1-0.2-0.1
					c0,0-0.1-0.1-0.1-0.1c0,0,0-0.1,0-0.1c0-0.1,0-0.1,0-0.2l0,0l0.3,0L27,4.3l1.2,0.4l0.2-0.5l-1-0.4c-0.1,0-0.1-0.1-0.2-0.1
					c0,0-0.1-0.1-0.1-0.1c0,0,0-0.1,0-0.1c0-0.1,0-0.1,0-0.2l0.1-0.1c0-0.1,0.1-0.1,0.1-0.2s0.1-0.1,0.1-0.1c0,0,0.1,0,0.1,0
					c0.1,0,0.1,0,0.2,0l0.9,0.3c0.1,0,0.1,0.1,0.2,0.1c0,0,0.1,0.1,0.1,0.1c0,0,0,0.1,0,0.1c0,0.1,0,0.1,0,0.2l0,0l-0.3,0l0.1-0.2
					L27.4,3.1z"/>
				<path class="st0" d="M31,4.3L32.2,5c0.1,0.1,0.2,0.1,0.2,0.2c0,0.1,0,0.2-0.1,0.3l-0.2,0.3C32.1,6,32,6,31.9,6
					c-0.1,0-0.2,0-0.3-0.1l-1-0.6L30.3,6l-0.3-0.2L31,4.3z M31.1,4.6l-0.3,0.5l0.9,0.5c0.1,0,0.1,0,0.1,0c0,0,0.1,0,0.1-0.1L32,5.4
					c0-0.1,0-0.1,0-0.2c0,0,0-0.1-0.1-0.1L31.1,4.6z"/>
				<polygon class="st0" points="33.1,5.6 33.3,5.8 32.4,7 33.4,7.8 33.3,8 32,7 				"/>
				<path class="st0" d="M35.4,7.6l0.2,0.2L35,9.7l-0.2-0.2L35,9l-0.8-0.8l-0.5,0.1l-0.2-0.2L35.4,7.6z M35,8.8l0.3-1l-1,0.3L35,8.8
					z"/>
				<polygon class="st0" points="35.7,10.6 35.6,10.4 36.8,9.4 36.3,8.8 36.4,8.7 37.6,10.2 37.4,10.3 36.9,9.7 				"/>
				<polygon class="st0" points="37.9,10.6 38.8,12 38.6,12.1 37.9,10.9 37.4,11.2 37.8,11.9 37.6,12 37.2,11.4 36.6,11.8 
					36.4,11.5 				"/>
				<path class="st0" d="M38.9,12.5c0.1,0,0.1,0,0.1,0c0,0,0.1,0,0.1,0.1c0,0,0.1,0.1,0.1,0.2l0.5,1.1c0,0.1,0.1,0.1,0.1,0.2
					c0,0.1,0,0.1,0,0.1c0,0,0,0.1-0.1,0.1c0,0-0.1,0.1-0.2,0.1l-0.8,0.4c-0.1,0-0.1,0.1-0.2,0.1c-0.1,0-0.1,0-0.1,0
					c0,0-0.1,0-0.1-0.1c0,0-0.1-0.1-0.1-0.2l-0.5-1.1c0-0.1-0.1-0.1-0.1-0.2c0-0.1,0-0.1,0-0.1c0,0,0-0.1,0.1-0.1
					c0,0,0.1-0.1,0.2-0.1l0.8-0.4C38.7,12.5,38.8,12.5,38.9,12.5 M38.4,14.6l1.2-0.5l-0.6-1.3l-1.2,0.5L38.4,14.6z"/>
				<path class="st0" d="M40.2,15.1l0.4,1.4c0,0.1,0,0.2,0,0.3c0,0.1-0.1,0.1-0.2,0.2L40,17.1c-0.1,0-0.2,0-0.3,0
					c-0.1,0-0.1-0.1-0.2-0.2l-0.1-0.2l-0.4,1L39,17.1l0.4-0.9l-0.2-0.5l-0.7,0.2l-0.1-0.3L40.2,15.1z M40.1,15.5l-0.6,0.2l0.3,1
					c0,0.1,0,0.1,0.1,0.1c0,0,0.1,0,0.2,0l0.2-0.1c0.1,0,0.1-0.1,0.1-0.1c0,0,0-0.1,0-0.1L40.1,15.5z"/>
				<path class="st0" d="M40.5,18c0,0-0.1,0-0.1,0l-1.2,0.2l0-0.3l1.8-0.3l0,0.2l-1,1l1.3,0.6l0,0.3l-1.8,0.3l0-0.3l1.2-0.2
					c0,0,0.1,0,0.1,0c0,0,0.1,0,0.2,0c-0.1,0-0.2-0.1-0.2-0.1L39.6,19l0-0.1l0.8-0.8C40.5,18.1,40.5,18.1,40.5,18c0,0,0.1,0,0.1,0
					C40.6,18,40.6,18,40.5,18"/>
				<path class="st0" d="M40.7,21.5c0.3,0,0.5,0.2,0.5,0.5c0,0.3-0.2,0.5-0.5,0.5c-0.3,0-0.5-0.2-0.5-0.5
					C40.1,21.7,40.4,21.5,40.7,21.5"/>
			</g>
			<g>
				<path class="st0" d="M3,21.8c0.3,0,0.5,0.2,0.5,0.5c0,0.3-0.2,0.5-0.5,0.5c-0.3,0-0.5-0.2-0.5-0.5C2.5,22,2.7,21.8,3,21.8"/>
				<path class="st0" d="M3.5,25.6c0.3,0,0.5,0.2,0.5,0.5c0,0.3-0.2,0.5-0.5,0.5c-0.3,0-0.5-0.2-0.5-0.5C3,25.9,3.2,25.6,3.5,25.6"
					/>
				<path class="st0" d="M40.3,25.6c0.3,0,0.5,0.2,0.5,0.5c0,0.3-0.2,0.5-0.5,0.5c-0.3,0-0.5-0.2-0.5-0.5
					C39.7,25.8,40,25.6,40.3,25.6"/>
			</g>
		</g>
		<g>
			<defs>
				<path id="SVGID_1_" d="M5.1,21.7c0-9.2,7.4-16.6,16.6-16.6s16.6,7.4,16.6,16.6c0,9.2-7.4,16.6-16.6,16.6S5.1,30.8,5.1,21.7
					 M4.8,21.7c0,9.3,7.6,16.9,16.9,16.9c9.3,0,16.9-7.6,16.9-16.9c0-9.3-7.6-16.9-16.9-16.9C12.4,4.8,4.8,12.4,4.8,21.7"/>
			</defs>
			<use xlink:href="#SVGID_1_"  style="overflow:visible;fill:#B6B6B6;"/>
			<clipPath id="SVGID_2_">
				<use xlink:href="#SVGID_1_"  style="overflow:visible;"/>
			</clipPath>
			
				<rect x="1.4" y="1.4" transform="matrix(0.9743 -0.2253 0.2253 0.9743 -4.3337 5.4503)" class="st1" width="40.6" height="40.6"/>
		</g>
		<g class="st2">
			<polygon class="st0" points="22.1,11.6 21.7,11.6 21.5,11.4 21.4,11.2 21.1,11.3 20.9,11.3 20.7,11.2 20.4,11.1 20,11.3 
				19.8,11.2 19.5,11.2 19.1,11.1 18.8,11.3 18.5,11.3 18.1,11.3 17.8,11.3 17.5,11.4 17.5,11.7 17.7,12 18,12.1 18.2,12.3 
				18.1,12.6 18.1,12.9 18.1,13.2 18.2,13.3 17.9,13.5 18.1,13.7 18.1,13.9 17.9,13.9 17.7,14.2 17.6,14.5 17.5,14.8 17.7,15.1 
				17.7,15.4 17.7,15.7 18,16.1 18.4,16.1 18.7,16 18.9,15.7 18.9,15.4 19.1,15.2 19.3,15 19.6,15 19.9,14.9 20.2,14.6 20.5,14.6 
				20.8,14.5 21.2,14.5 21.5,14.4 21.7,14.2 21.8,13.9 21.8,13.6 21.9,13.3 22,13 22,12.7 22.1,12.5 21.9,12.3 22.2,12 22.5,11.8 
				22.5,11.8 22.5,11.6 			"/>
			<path class="st0" d="M18.7,31.6l-0.3-0.1l-0.3-0.1l-0.5-0.2l-0.3,0L17.1,31l-0.4-0.2L16.3,31l-0.3-0.1l-0.3-0.2l-0.3-0.1L15,30.4
				l-0.3-0.1L14.6,30l-0.1-0.3l-0.2-0.2l-0.2-0.2L13.9,29l-0.3-0.1l-0.3-0.1L13,28.7l0.1-0.2l-0.3-0.2L12.6,28l-0.2-0.3l-0.2-0.3
				l-0.3-0.2l-0.3-0.1l-0.3-0.2L11,26.7l-0.2-0.2l-0.3-0.2L10.4,26l-0.2-0.2l-0.3,0l-0.3,0l-0.3,0l-0.2,0.2L9,25.8l-0.3-0.2
				l-0.2-0.3L8.3,25l0.1-0.3l0.1-0.3v-0.3l0-0.3l0.1-0.6H8.3l-0.4-0.3l-0.1-0.1l0.2-0.2l0.2-0.3l-0.2-0.3l-0.3-0.2l-0.1-0.2
				l-0.2-0.3l-0.4,0L7.2,21l-0.1-0.2l0.2-0.3v-0.3l0.3-0.5h0.2l0.2,0.1l0.2-0.1l0.2,0.2l0,0L8.6,20l0.3,0.1l0,0.3
				c0.1,0.1,0,0.3,0,0.5c0,0.2,0,0.3,0,0.5c0-0.1,0.1,0.1,0.2,0.1c0.1,0,0.1,0.1,0.2,0c0.1-0.1,0.1-0.3,0.2-0.4
				c0.1-0.1,0.1-0.2,0.2-0.4l0.1-0.3l0.2-0.2l0.3,0c0,0,0.3-0.1,0.3-0.1c0.1,0,0.2-0.1,0.2-0.2c0.1-0.1,0.2-0.1,0.3-0.2
				c0.1,0,0.2-0.1,0.2-0.1c0.1-0.1,0.1-0.1,0.1-0.2c0.1-0.1,0.1-0.3,0.2-0.4c0,0,0,0,0,0c0,0,0,0,0,0c0.2,0,0.4,0.1,0.7,0.1
				c0-0.1,0-0.1,0-0.2c0,0,0,0,0,0c0,0,0,0,0,0c0.3-0.1,0.7-0.2,1-0.3c0,0.1,0,0.2-0.1,0.3c0.2-0.1,0.5-0.1,0.7,0
				c0-0.2-0.1-0.3-0.1-0.4c0,0,0-0.1,0-0.1c0,0,0,0,0-0.1c0.1-0.2,0.1-0.3,0.2-0.5c-0.1-0.1-0.2-0.3-0.3-0.4c0.1,0,0.3,0,0.4,0.1
				c0.1,0,0.2,0.1,0.4,0.2c0.1,0,0.1,0.1,0.2,0.1c0,0,0,0,0.1,0c0,0,0,0,0,0c0.1-0.1,0.3-0.1,0.4-0.2c0,0,0,0.1,0.1,0.1
				c-0.3,0.1-0.5,0.3-0.6,0.6c0.1,0.1,0.3,0.3,0.4,0.4c0,0,0,0,0,0.1c0,0,0.1,0,0.1,0c0.2,0.1,0.4,0.1,0.5,0.2c0-0.2,0.1-0.4,0-0.6
				c0,0,0-0.1,0-0.1c0-0.1-0.1-0.1-0.1-0.2c-0.1-0.1-0.1-0.3-0.1-0.5c0-0.2,0.1-0.4,0.2-0.6l-0.1-0.3l-0.1-0.3l-0.1-0.3l-0.1-0.3
				c0-0.1-0.1-0.2-0.1-0.3c0-0.1,0-0.3,0.1-0.4c-0.2,0-0.4,0.1-0.6,0.2c-0.1-0.1-0.2-0.2-0.3-0.3c0.1-0.1,0.2-0.3,0.2-0.4
				c0-0.1,0.1-0.3,0.1-0.4c0,0,0,0,0-0.1c-0.1-0.1-0.2-0.4-0.3-0.4c-0.1-0.1-0.1,0.1-0.3,0.1l-0.2,0.2c0,0-0.3,0.2-0.3,0.2
				c-0.1,0-0.1,0.1-0.1,0.2c-0.1,0.1-0.1,0.2-0.2,0.3c-0.1,0.1-0.1,0.2-0.1,0.4c-0.2,0-0.3,0.1-0.5,0.1c0,0-0.1,0-0.1,0
				c0,0,0,0.1-0.1,0.1c-0.1,0.2-0.3,0.4-0.5,0.5c0-0.1,0-0.2,0.1-0.3l0.2-0.3c0.1-0.1,0.2-0.3,0.1-0.4c0-0.2-0.1-0.5-0.1-0.7
				c0,0,0,0,0-0.1c0,0,0,0,0-0.1c0,0-0.1-0.1-0.1-0.1c0,0,0,0,0,0c0,0,0,0,0-0.1c0-0.3,0.1-0.5,0.3-0.8l0.3-0.2l0.3-0.1l0.3-0.1
				c0.1,0,0.2,0.1,0.3,0.1c0.1,0,0.2,0,0.2,0c-0.1,0.1-0.1,0.1-0.2,0.2c0,0,0,0,0,0c0,0,0,0,0,0c0,0.1,0,0.2,0,0.2
				c0.1,0,0.2,0,0.3-0.1l0.1,0.2l0.2-0.3l0-0.3l0.1-0.3l0.3,0.2l0.3-0.1l0.2-0.2l0.3,0c0,0,0,0.3,0,0.3c0,0,0.1,0.1,0.1,0.2
				c0.1,0.1,0.1,0.2,0.1,0.4c-0.1,0-0.2,0.1-0.3,0.1c-0.2,0.1-0.4,0.1-0.6,0c0,0,0,0,0,0c0,0,0,0,0,0c0,0-0.1,0.1-0.1,0.1
				c0,0,0.3,0.2,0.3,0.3l0,0.3l0.1,0.3l0.1,0.3l0.3,0.1l0.3-0.1l0.3-0.1l-0.1-0.3l0.1-0.2l0.2,0.2l0.2,0.2l0.3-0.3l0-0.3l-0.2-0.2
				l0-0.4l0-0.4l-0.2-0.1l0.1-0.3l0.1-0.3l-0.2-0.3l-0.2-0.3l-0.3,0.1l0.1-0.2l-0.1-0.1l-0.3,0.1l-0.3,0.1L15,11.9l0.1,0.3l-0.4,0
				l0-0.3l0.1-0.3l0.2-0.3l-0.3,0.2l-0.2,0.3l-0.3,0.1l0.2-0.2l0.2-0.2l-0.2,0l-0.2,0l-0.1-0.3l-0.2-0.1l0.1-0.2l0.1,0.2l0.4,0.1
				l0.2-0.2l0.2-0.2l0.2-0.2l0.1-0.3l-0.2-0.2l0.2-0.2l0.2-0.2l-0.1-0.1l0.2-0.3l-0.3,0.1l-0.3,0l-0.3,0.2l0.1,0.2l0.3,0l-0.3,0.1
				L14.4,10l-0.3,0.2l0.1-0.3l0.1-0.3l0.2-0.2l0-0.3l0.2-0.2L15,8.5l0.3-0.2L15.5,8l0.3-0.1L16,7.7l0.3-0.2l0.3-0.1l0.2-0.2
				l-0.1-0.1c-5.8,2-9.9,7.5-9.9,14c0,0.3,0,0.7,0,1l0.1,0l0.2,0.1l0.1,0.3l-0.2,0.3C7,23.2,7,23.6,7.2,24l0.4,0.1l0,0.3L8,24.6
				l0,0.2L8,25.1l0.1,0.3l0.1,0.3l0.2,0.2l0.1,0.3l0.3,0.1l-0.5,0.1l0,0.4l-0.1,0.2c2,3.7,5.7,6.6,10,7.8l0-0.3l0.2-0.2l0.1-0.7
				l0.1-0.4l0.1-0.2l0-0.2l0.3-0.7l-0.3-0.1L18.7,31.6z"/>
			<path class="st0" d="M24.1,6.4l0.2,0.2l0.3,0l0.3,0.1l0.3,0.1L25.5,7l0.3,0.1L26,7.2l0.2,0.1L26,7.3l-0.3-0.1l0.2,0.3l0.3,0.2
				l0.3,0.1L26.8,8L27,8.2l0.3,0.2l0.3,0.2l0.2,0.2L28.1,9l0.2,0l0.2,0.3l-0.1,0.1l0.3,0.1l0.2,0.1l-0.3,0l-0.3,0l0.2,0.2l0.3,0.2
				L29,10l0.3,0.2L29,10.4l0.2,0.4l0,0.3l-0.1,0.4l0,0.4l-0.3,0L29,12l0.2,0.2l-0.1,0.3l0,0.3l0.1,0.3l-0.4,0l-0.3-0.2l0.3-0.2
				l0.1-0.3l-0.3-0.2l-0.3,0.1l-0.4,0l-0.3,0.2l-0.4-0.1l-0.3,0.2l-0.2,0.3l0,0.3l-0.1,0.2l0,0.3l-0.2,0.3l0.1,0.3l0,0.3l-0.2,0.2
				l-0.2,0.2l0.1,0.3l0.1,0.3l0.2,0.3l0.3-0.1l0.3-0.1l0.3,0.2l0.3,0.2l0.3,0.2l0.3-0.2l0-0.4l0-0.3l-0.1-0.3l0.1,0L28,15.1
				l-0.2-0.2l-0.1-0.3l0-0.3l0-0.3l0.1-0.2l0.2,0.3L28,14.4l0.3,0.3l0.4,0.1l0.2,0.2l0.1,0.3l-0.1,0.4l0.2,0.3l-0.3,0.3l-0.3,0.3
				l-0.3,0.1L28,16.7c-0.1,0.1-0.2,0.1-0.4,0c0-0.1,0.1-0.2,0.1-0.2c-0.2-0.1-0.4-0.2-0.6-0.4c0.1,0.1,0.1,0.3,0.1,0.4
				c0,0.1,0.1,0.3,0.2,0.4c-0.1,0-0.2,0-0.3,0.1L27,17.3l-0.2,0.2l-0.1,0.4l-0.1,0.3l-0.2,0.3l-0.2,0.1l-0.3,0.1l-0.2,0.2l0.2,0.2
				l0.3,0.2l0.2,0.3L26.2,20l-0.3,0.2l-0.3,0.1l-0.3,0.1L25,20.5l-0.1,0.3l0,0.3l0,0.3l0.1,0.3l0.1,0.3l0.3,0l0.3,0.1l0.3,0l0.2-0.1
				l0.3-0.1l0.2-0.2l0.2-0.2l0.1-0.3v-0.4l0.2-0.2l0.1-0.3l0-0.3l0.3-0.1l0.2-0.1l0.2-0.2c0,0,0.2-0.2,0.2-0.2c0,0,0.5,0.3,0.5,0.3
				c0.3,0.1,0.6,0.2,0.9,0.2c0,0,0.1,0,0.1,0c0,0,0,0,0,0.1c0.1,0.1,0.2,0.3,0.3,0.4l0.1-0.3l-0.1-0.3h0.1l-0.1-0.2l-0.3,0l-0.3-0.2
				h-0.4L29,19l0.4-0.1l0.3,0.1l0.3,0l0.3,0.1l0.3,0.1l0.1,0.4l0.4,0.1l0.2,0.3l0.2,0.3l0.2,0l0-0.1l0.2,0l-0.2-0.2l0.1-0.2
				l-0.2-0.2l-0.1-0.2l0.1-0.3l0.3-0.1c0.1-0.1,0.1-0.2,0.2-0.2c0,0.2,0,0.4,0.1,0.6c0.1,0.2,0.3,0.3,0.4,0.4
				c0.4-0.2,0.7-0.3,0.9-0.7c0.2,0.2,0.2,0.6,0.3,0.9c0,0.1,0,0.3,0,0.4c-0.2,0-0.3,0.2-0.4,0.3l-0.3,0.2L32.6,21l-0.3,0l-0.3,0
				l-0.3,0.1l-0.2,0.3l0.1,0.3l0,0.3l-0.3,0l-0.3,0l-0.3-0.1l-0.3-0.1L30,21.9l-0.3,0l-0.2-0.3l-0.2-0.3l-0.3-0.2l-0.3,0.1l-0.3,0.1
				l-0.3,0L28,21.5l-0.3,0.1l-0.3,0.2L27.1,22l-0.3,0.1l-0.2,0.2l-0.2-0.1l-0.3-0.1l-0.2,0.3l-0.1,0.3l-0.2,0.2L25.3,23l-0.1,0.2
				v0.1l-0.1,0.4l-0.1,0.3l-0.2,0.2l-0.2,0.2l-0.3,0.2L24,24.9l-0.2,0.2l-0.2,0.3l-0.1,0.3l0,0.4l0,0.4l0,0.4l0,0.4l-0.1,0.3
				l-0.1,0.3l0.1,0.3l0.1,0.3l0,0.3l0.3,0.1l0.3,0.1l0.2,0.2l0.2,0.2l0.1,0.3l0.2,0.2l0.3,0.1l0.2,0.2l0.3-0.1l0.4,0.1l0.3,0
				l0.3-0.1l0.3-0.1l0.3,0l0.3,0l0.3-0.1l0.3-0.2l0.3-0.2l0.3-0.2l0.4,0.1l0.3,0.1l0.4,0l0.3-0.2l0.3,0.2L30,29.5l-0.2,0.5v0.5
				l0.3,0.1l0.3,0.2l0.2,0.3l0.2,0.3l-0.3,0.4l0.3,0.2L30.6,32l-0.5,0.3l-0.3,0.5L30,33l0.1,0.1l0.1,0.2l0,0.4
				c2.5-1.4,4.3-3.7,5.4-6.4l0-0.1l0.1-0.3l0.1-0.3l0.1-0.3l0.1-0.2c0-0.1,0.1-0.3,0.1-0.4l0,0l0,0c0.4-1.4,0.6-2.9,0.6-4.5
				C36.8,13.7,31.3,7.6,24.1,6.4z"/>
			<polygon class="st0" points="16.7,10.6 17,10.6 17.2,10.5 17.3,10.5 17.2,10.5 17.4,10.6 17.1,10.6 16.8,10.8 16.4,10.9 
				16.4,11.1 16.3,11 16.3,10.7 16.2,10.5 16.1,10.5 15.9,10.8 15.8,11 16,11.3 16.2,11.5 16.3,11.6 16.5,11.5 16.5,11.4 16.5,11.2 
				16.6,11.2 16.6,11.3 16.9,11.3 17.1,11.2 17.4,11.2 17.7,11.2 18,11.1 18.3,11.1 18.5,10.9 18.8,10.8 18.6,10.6 18.3,10.6 
				18.1,10.3 17.9,10.4 17.8,10.2 17.4,10.1 17.1,10.1 16.8,10.3 			"/>
			<polygon class="st0" points="25.3,18.6 25.7,18.6 26,18.3 26.3,18.1 26.5,17.8 26.3,17.6 26.1,17.5 25.8,17.3 25.7,17.1 
				25.5,16.8 25.3,16.6 25.2,16.4 24.8,16.5 24.8,16.9 25.2,16.9 25.3,17.2 25.4,17.6 25.4,17.9 25.4,18.2 			"/>
		</g>
	</g>
	<g>
		<g>
			<polygon class="st3" points="7.8,18.5 7.8,18.5 7.8,18.5 			"/>
			<path class="st3" d="M32.6,10.4c-2.9-2.9-6.8-4.5-10.9-4.5s-8,1.6-10.9,4.5s-4.5,6.8-4.5,10.9s1.6,8,4.5,10.9
				c2.9,2.9,6.8,4.5,10.9,4.5s8-1.6,10.9-4.5c2.9-2.9,4.5-6.8,4.5-10.9C37.1,17.2,35.5,13.3,32.6,10.4z M36,17.7
				C36,17.7,36,17.7,36,17.7l0.1,0.2l0,0c0,0.1,0,0.1,0,0.2l0,0c0,0.1,0,0.1,0,0.1v0.2l0,0l0,0h0c-0.1-0.1-0.1-0.2-0.2-0.2
				c0,0,0,0,0,0l0-0.1l0-0.1c0,0,0,0,0-0.1c0-0.3,0-0.3-0.1-0.6l0,0c0,0,0,0,0,0l0,0c0,0,0,0,0,0c0,0,0,0,0.1,0c0,0,0,0,0,0.1l0,0
				C36,17.6,36,17.6,36,17.7L36,17.7z M35.6,16.4C35.6,16.3,35.6,16.3,35.6,16.4C35.6,16.3,35.6,16.3,35.6,16.4
				C35.6,16.3,35.6,16.3,35.6,16.4C35.7,16.3,35.7,16.4,35.6,16.4l0.1,0.1c0,0,0,0,0,0c0,0.1,0,0.1,0.1,0.2l0,0c0,0,0,0,0,0.1l0,0.1
				l0,0l0.1,0.2l0,0c0,0.1,0,0.1,0,0.1c0,0,0,0,0,0c0,0.1,0,0.1,0,0.1v0c0,0,0,0,0,0c0,0,0,0,0,0c0,0,0,0,0,0c0,0,0,0,0,0l0,0l0,0
				c0-0.1,0-0.1-0.1-0.2c0,0,0,0,0,0l0-0.1l0-0.1c0,0,0,0,0-0.1C35.7,16.6,35.7,16.6,35.6,16.4C35.6,16.4,35.6,16.4,35.6,16.4
				L35.6,16.4z M8.9,15c0-0.1,0-0.1,0-0.1c0,0,0,0,0,0C9,14.6,9,14.6,9.1,14.4c0,0,0,0,0,0l0.1-0.1c0,0,0,0,0,0l0.1-0.1c0,0,0,0,0,0
				l0,0c0,0,0,0,0,0c0,0,0,0,0-0.1c0,0,0,0,0,0v-0.2c0,0,0,0,0-0.1c0,0,0,0,0,0c0.1-0.2,0.1-0.2,0.2-0.5c0,0,0,0,0,0l0.1-0.1
				c0,0,0,0,0.1-0.1L9.9,13c0,0,0,0,0,0c0.1,0,0.1,0,0.3-0.1l0,0c0,0,0,0,0,0.1v0.1c0,0,0,0,0,0c0,0,0,0,0.1,0c0,0,0,0,0,0l0.1-0.1
				l0.1-0.1c0,0,0,0,0-0.1l0,0c0,0,0,0,0,0c0,0,0,0,0-0.1c0,0,0,0,0-0.1v0c0,0,0,0-0.1,0l0,0l-0.1,0.1l-0.1,0.1c0,0,0,0,0,0
				c-0.1,0-0.1,0-0.3,0.1c0,0,0,0,0,0l0-0.1l0,0c0,0,0,0,0,0v0c0,0,0-0.1,0-0.1l0,0c0.1-0.2,0.1-0.2,0.3-0.4c0,0,0,0,0,0
				c0,0,0,0,0-0.1l0.1-0.1c0,0,0,0,0.1-0.1c0,0,0,0,0,0c0.1,0,0.2-0.1,0.3-0.1c0,0,0,0,0,0c0,0,0,0,0,0c0,0,0,0,0,0.1c0,0,0,0,0,0
				c0,0,0,0,0.1,0l0,0l0.1-0.1l0.1-0.1c0,0,0,0,0,0l0,0c0,0,0,0,0,0v0c0,0,0,0,0-0.1l0,0c0,0,0,0,0,0c0,0,0,0-0.1,0l0,0c0,0,0,0,0,0
				c0,0,0,0-0.1,0.1c0,0,0,0,0,0c-0.2,0.1-0.2,0.1-0.3,0.1l0,0c0,0,0,0,0,0c0,0,0,0,0,0l0,0c0,0,0,0,0,0c0.2-0.2,0.2-0.2,0.3-0.4
				c0,0,0,0,0,0c0,0,0,0,0.1-0.1l0.1-0.1c0,0,0,0,0.1,0c0,0,0,0,0,0l0,0c0,0,0,0,0,0l0,0l0,0l0,0l0,0c0,0,0,0,0-0.1l0,0
				C14,8,17.8,6.4,21.7,6.4c3.3,0,6.5,1.1,9.1,3.2c0.2,0.2,0.4,0.3,0.6,0.5l0,0c0.3,0.3,0.6,0.6,0.9,0.9l0,0l0,0l0.1,0.1l0.1,0.1
				l0,0l0,0l0,0l0,0c0.5,0.6,1,1.2,1.4,1.9c0.1,0.1,0,0.1-0.1,0c0,0,0,0,0,0c0-0.1,0-0.1-0.1-0.1l0,0l0-0.1c0,0,0,0,0,0c0,0,0,0,0,0
				c0,0,0,0,0,0l0,0c0,0,0,0,0,0c0,0,0,0,0,0c0,0,0,0,0,0c0,0,0,0,0,0l0.1,0.1l0.1,0.1c0,0,0,0,0,0l0,0c0,0,0,0,0,0l0,0l0,0
				c0,0,0,0,0,0c0,0,0,0,0,0c0.1,0.2,0.1,0.2,0.3,0.3l0,0l0.1,0.1l0,0l0.1,0.1l0,0l0,0c0,0,0,0.1,0,0.1c0,0,0,0,0,0l0,0l0,0h0l0,0
				c0.1,0.1,0.1,0.1,0.1,0.2c0.1,0.2,0.2,0.3,0.3,0.5v0c0,0.1,0.1,0.3,0.1,0.3l0,0c-0.1-0.1-0.1-0.1-0.2-0.2c0,0,0,0,0,0
				c0-0.1,0-0.1-0.1-0.1l0,0l0-0.1l0,0l0-0.1c0,0,0,0,0-0.1c0,0,0,0,0,0v0.1l0,0c0,0,0,0,0,0c0,0,0,0,0,0c0,0,0,0,0,0.1l0,0l0.1,0.1
				l0,0.1c0,0,0,0,0,0l0,0c0,0,0,0,0,0c0,0,0,0,0,0v0c0,0,0,0,0,0l0,0l0,0c0,0,0,0,0,0c0.1,0.1,0.1,0.1,0.2,0.2c0,0,0,0,0,0
				c0,0.1,0,0.1,0.1,0.1l0,0l0,0.1l0,0l0.1,0.1l0,0c0.1,0.2,0.1,0.2,0.1,0.3c0,0,0,0,0,0v0.1c0,0,0,0,0,0l0,0l0,0
				c-0.1-0.1-0.1-0.1-0.2-0.2c0,0,0,0,0,0c0-0.1,0-0.1-0.1-0.1c0,0,0,0,0,0l0-0.1l0,0l0,0c0,0,0,0,0-0.1c0,0,0,0,0,0c0,0,0,0,0,0h0
				c0,0,0,0,0,0.1c0,0,0,0,0,0c0,0,0,0,0,0l0,0c0,0,0,0,0,0.1l0,0.1l0,0.1c0,0,0,0,0,0c0,0,0,0,0,0c0,0,0,0,0,0.1c0,0,0,0,0,0
				c0,0,0,0,0,0v0c0,0,0,0,0-0.1h0l0.1,0.1c0,0,0,0,0,0c0.1,0.1,0.1,0.1,0.2,0.3c0,0,0,0,0,0l0,0.1l0,0.1c0,0,0,0,0,0.1
				c0,0,0,0,0,0.1c0,0.2,0,0.2,0.1,0.5c0,0,0,0,0,0c0,0,0,0,0,0l0,0c0,0,0,0,0,0c0,0,0,0,0,0c-0.1-0.1-0.1-0.1-0.2-0.2c0,0,0,0,0,0
				l-0.1-0.1c0,0,0,0,0,0c0,0,0,0,0-0.1c0,0,0,0,0,0c0,0,0,0,0,0c0,0,0,0,0-0.1c0,0,0,0,0,0c0,0,0,0,0,0s0,0,0,0c0,0,0,0,0,0
				c0,0,0,0,0,0c0,0,0,0,0,0v0.1c0,0,0,0,0,0.1l0,0.1c0,0,0,0,0,0.1c0,0,0,0,0,0c0,0,0,0,0,0c0,0,0,0,0,0.1c0,0,0,0,0,0c0,0,0,0,0,0
				c0,0,0,0,0,0c0,0,0,0,0,0c0,0,0,0,0,0l0.1,0h0c0.1,0.1,0.1,0.1,0.2,0.2c0,0,0,0,0,0l0,0.1c0,0.1,0,0.1,0,0.1c0,0,0,0.1,0,0.1
				c0,0,0,0,0,0.1c0,0.3,0,0.3,0,0.5c0,0,0,0,0,0l0,0c0,0,0,0,0,0l0,0c0,0,0,0,0,0c-0.1-0.1-0.1-0.1-0.2-0.2l0,0l-0.1-0.1
				c0,0,0,0,0,0c0,0,0,0,0-0.1l0,0l0,0c0,0,0,0,0-0.1c0,0,0,0,0,0l0,0h0c0,0,0,0,0,0.1l0,0c0,0,0,0,0,0c0,0,0,0,0,0c0,0,0,0,0,0.1
				c0,0.1,0,0.1,0,0.1l0,0.1c0,0,0,0,0,0c0,0,0,0,0,0c0,0,0,0.1,0,0.1c0,0,0,0,0,0c0,0,0,0,0,0c0,0,0,0,0,0l0,0c0,0,0,0,0,0
				c0,0,0.1,0,0.1,0h0l0.3,0.2c0,0,0,0,0,0c0,0,0,0,0,0.1c0,0,0,0.1,0,0.1l0,0.1c0,0,0,0,0,0.1c0,0.3,0,0.3,0,0.5l-0.1,0.1
				c0,0,0,0,0,0c0,0,0,0,0,0h0c0,0,0,0-0.1,0c0,0,0,0,0,0c-0.1,0-0.2-0.1-0.2-0.2c0,0,0,0,0,0L35.3,19c0,0,0,0,0,0l0-0.1l0,0l0-0.1
				c0,0,0,0,0-0.1c0,0,0,0,0,0c0,0,0,0,0,0c0,0.1,0,0.1,0,0.1c0,0,0,0,0,0c0,0,0,0-0.1,0c0,0,0,0,0,0c0,0,0,0,0,0
				c0,0.1,0,0.1,0.1,0.1c0,0,0,0,0,0l0,0.2l0,0c0,0,0,0,0,0.1c0,0,0,0,0,0l0-0.1c0,0,0,0,0,0c0,0,0-0.1,0-0.1h0c0,0,0.1,0,0.1,0.1h0
				c0.1,0,0.2,0,0.2,0.1c0,0,0,0,0,0c0,0,0,0.1,0.1,0.1c0,0,0,0,0,0c0,0.1,0,0.1,0,0.1c0,0,0,0,0,0l0,0.2c0,0,0,0,0,0
				c0,0.2,0,0.2,0,0.4c0,0,0,0,0,0c0,0.1,0,0.1,0,0.1c0,0,0,0,0,0l0,0.1c0,0,0,0,0,0c0,0,0,0,0,0l0,0c0,0,0,0,0,0.1v0
				c0,0,0,0.1,0,0.1c0,0,0,0,0,0c0,0,0,0,0,0c0,0,0,0,0,0c0,0,0,0,0,0.1c0,0,0,0.1,0,0.1v0l0,0.2c0,0,0,0,0,0l-0.1,0.4c0,0,0,0,0,0
				l-0.1,0.1c0,0,0,0,0,0l0,0.1c0,0,0,0,0,0c0,0-0.1,0-0.1,0c0,0,0,0,0,0c-0.1-0.1-0.1-0.1-0.3-0.1c0,0,0,0,0,0l0-0.1
				c0,0,0-0.1,0-0.1c0-0.1,0-0.1,0-0.1l0-0.1c0,0,0,0,0-0.1c0-0.2,0-0.2,0.1-0.4c0,0,0,0,0,0l0-0.1c0,0,0,0,0-0.1c0,0,0,0,0,0
				l0.1-0.1l0.1-0.1c0,0,0,0,0,0c0,0,0,0,0,0c0,0,0,0,0,0c0,0,0,0,0,0s0,0,0,0l-0.1-0.1c0,0,0,0,0,0l-0.1-0.1v0c0,0,0,0,0,0
				c0,0,0,0,0-0.1c0,0,0,0,0,0l0,0c0,0,0,0,0,0L35,20.1l0,0.1c0,0,0,0,0,0c0,0.1,0,0.1,0,0.1c0,0,0,0,0,0.1c0,0,0,0,0,0.1
				c0,0.1,0,0.1,0,0.1c0,0,0,0,0,0.1c0,0,0,0.1,0,0.1c0,0.2,0,0.3-0.1,0.6c0,0,0,0,0,0.1l0,0.1l-0.1,0.1l-0.1,0.1c0,0,0,0,0,0
				c-0.2-0.1-0.2-0.1-0.4-0.2c0,0,0,0,0,0c0-0.1,0-0.1-0.1-0.1c0,0,0,0,0,0l0-0.1c0,0,0,0,0,0c0,0,0,0-0.1,0l-0.1,0
				c0,0-0.1,0-0.1,0.1c0,0,0,0,0,0c0,0,0,0.1,0,0.1c0,0,0,0,0,0l0,0.1c0,0,0,0.1,0,0.1c0,0,0,0,0,0c0,0,0,0,0,0c0,0,0,0,0,0
				c0,0,0,0,0.1-0.1l0.1-0.1l0.1,0c0,0,0,0,0,0c0.2,0.1,0.2,0.1,0.4,0.1c0,0,0,0,0,0l0,0.1c0,0,0,0.1,0,0.1c0,0,0,0.1,0,0.1
				c0,0,0,0,0,0.1c-0.1,0.3-0.1,0.3-0.1,0.7c0,0,0,0,0,0l-0.1,0c0,0,0,0.1-0.1,0.1c0,0,0,0-0.1,0.1c0,0,0,0,0,0
				c-0.2-0.1-0.2-0.1-0.4-0.1c0,0,0,0,0,0l-0.1-0.1c0,0,0,0,0,0l0-0.1l0,0c0,0,0,0,0,0c0,0,0,0-0.1,0c0,0,0,0,0,0.1c0,0,0,0,0,0
				c0,0-0.1,0-0.1,0c0,0,0,0,0,0.1v0c0,0,0,0.1,0,0.1c0,0,0,0.1,0,0.1c0,0,0,0.1,0,0.1c0,0,0,0.1,0,0.1c0,0,0,0,0,0c0,0,0,0,0,0
				c0,0,0,0,0,0l0.1-0.1l0.1-0.1c0,0,0,0,0,0c0,0,0.1,0,0.1,0c0,0,0,0,0,0l0.3,0.1c0,0,0,0,0,0l0.1,0.1c0,0,0,0,0,0c0,0,0,0.1,0,0.1
				v0.1c0,0.1,0,0.1,0,0.2c0,0,0,0,0,0c-0.1,0.3-0.1,0.3-0.1,0.5l0,0c0,0.1,0,0.1-0.1,0.1c0,0,0,0,0,0l-0.1,0l0,0l-0.1,0
				c0,0,0,0,0,0l-0.3-0.1c0,0,0,0,0,0c0,0-0.1,0-0.1-0.1c0,0,0,0,0,0l0-0.1l0-0.1c0,0,0,0,0,0l0,0c0,0,0,0,0,0L33.4,24l-0.1,0.1
				c0,0-0.1,0-0.1,0c0,0,0,0,0,0L32.7,24c0,0,0,0,0,0c0,0,0-0.1,0-0.1c0,0,0,0,0-0.1l0,0c0,0,0,0-0.1,0c0,0,0,0,0,0c0,0,0,0,0,0
				l-0.1,0.1l-0.1,0.1c0,0,0,0,0,0c0,0,0,0.1,0,0.1l0,0.1c0,0,0,0.1,0.1,0.1c0,0,0,0.1,0,0.1c0,0,0,0,0,0.1
				c-0.1,0.4-0.1,0.4-0.2,0.7c0,0,0,0.1,0,0.1l-0.1,0.1c0,0-0.1,0.1-0.1,0.1l-0.1,0.1c0,0,0,0-0.1,0c-0.3-0.1-0.3-0.1-0.6-0.1l0,0
				l-0.1-0.1c0,0,0,0,0-0.1c0,0,0,0,0-0.1c0,0,0-0.1,0-0.1c0,0,0,0-0.1,0l0,0c0,0-0.1,0.1-0.1,0.1c-0.1,0-0.1,0-0.1,0.1l0,0
				c0,0,0,0,0,0.1c0,0,0,0.1,0,0.1l0.1,0c0,0,0,0,0,0c0,0.1,0,0.1,0,0.2c0,0,0,0,0,0l-0.2,0.8c0,0,0,0,0,0.1l-0.1,0.1l-0.1,0.1
				L30,26.6c0,0,0,0-0.1,0c-0.3-0.1-0.3-0.1-0.7-0.1c0,0,0,0-0.1,0c0,0,0-0.1,0-0.1l-0.1-0.1l0,0c0,0-0.1-0.1-0.1,0c0,0,0,0,0,0l0,0
				l-0.1,0.1c0,0-0.1,0.1-0.1,0.1l0,0c0,0-0.1,0.1,0,0.1l0,0c0,0,0,0.1,0.1,0.1l0.1,0.1c0,0,0,0,0,0.1c-0.1,0.4-0.1,0.4-0.2,0.7
				c0,0,0,0,0,0.1l-0.1,0.1l-0.1,0.1l-0.1,0.1c0,0,0,0,0,0.1c0,0,0,0,0,0c0,0,0,0,0,0.1c0,0,0,0.1,0,0.1c0,0,0,0.1,0.1,0.1
				c0,0,0,0,0,0c0,0.1,0,0.1,0,0.2c0,0,0,0,0,0L28,28.9c0,0,0,0,0,0l-0.1,0.1l0,0l-0.1,0.1l0,0c-0.1,0-0.1,0-0.2,0.1c0,0,0,0,0,0
				l-0.5-0.1c0,0,0,0,0,0l-0.1-0.1c0,0,0,0,0,0c0,0,0-0.1,0-0.1c0,0,0,0,0,0l0-0.2c0,0,0,0,0,0l0.1-0.4c0,0,0,0,0,0l0.1-0.2
				c0,0,0,0,0,0l0.1-0.1c0.1,0,0.1,0,0.1-0.1c0,0,0,0,0-0.1c0,0,0,0,0,0c0,0,0,0,0-0.1l-0.1-0.1l-0.1-0.1l-0.1-0.1c0,0,0,0-0.1,0h0
				c0,0-0.1,0-0.1,0l-0.1,0.1c0,0,0,0,0,0l-0.1,0c0,0-0.1,0-0.1,0.1c0,0,0,0.1,0,0.1l0,0l0.1,0.1c0,0,0,0,0,0c0,0.1,0,0.1,0,0.2
				c0,0,0,0,0,0c-0.1,0.3-0.1,0.3-0.2,0.6c0,0,0,0,0,0.1l-0.1,0.1L26.3,29L26.2,29c0,0,0,0-0.1,0c-0.4-0.1-0.4-0.1-0.8-0.1
				c0,0,0,0-0.1,0c0,0,0-0.1-0.1-0.1l-0.1-0.1c0,0,0-0.1-0.1-0.1c0,0,0,0,0-0.1l0.2-0.6c0,0,0,0,0-0.1l0.1-0.1l0.1-0.1l0.1-0.1
				c0,0,0,0,0-0.1c0,0,0,0,0,0c0,0,0,0,0-0.1c0,0,0-0.1-0.1-0.1c0,0,0-0.1-0.1-0.1l0,0c0,0-0.1-0.1-0.1,0h0l0,0l-0.1,0l-0.1,0.1
				l-0.1,0.1c0,0,0,0,0,0.1l0,0c0,0,0,0,0,0.1l0,0.1l0,0c0,0.1,0,0.1,0,0.2c0,0,0,0,0,0.1c-0.1,0.3-0.1,0.3-0.2,0.6c0,0,0,0,0,0.1
				l-0.1,0.1l-0.1,0.1l-0.1,0.1c0,0,0,0-0.1,0c-0.4-0.1-0.4-0.1-0.8-0.2c0,0,0,0-0.1,0l-0.1-0.1c0,0,0,0-0.1-0.1c0,0,0,0-0.1,0
				c-0.1,0-0.1,0-0.1,0c0,0-0.1,0-0.1,0l-0.1,0.1c-0.1,0-0.1,0-0.1,0.1c0,0,0,0,0,0l0,0c0,0-0.1,0-0.1,0.1c0,0,0,0.1,0,0.1l0,0
				c0,0,0,0,0,0l0.1,0.1c0,0,0,0,0,0c0,0.1,0,0.1,0,0.2v0c0,0,0,0,0,0c0,0,0,0,0.1,0c0,0,0.1,0,0.1,0l0.1-0.1l0,0l0.1-0.1l0.1-0.1
				l0,0l0.2,0c0,0,0,0,0,0l0.5,0.1c0,0,0,0,0.1,0c0,0,0,0,0.1,0.1l0.1,0.1c0,0,0,0.1,0.1,0.1c0,0,0,0.1,0.1,0.1c0,0,0,0,0,0.1
				c-0.1,0.3-0.1,0.3-0.2,0.5c0,0,0,0,0,0c-0.1,0.1-0.1,0.1-0.1,0.1l0,0l-0.1,0.1c0,0,0,0,0,0l-0.2,0c0,0,0,0,0,0L23.5,30
				c0,0,0,0,0,0l-0.2-0.1c0,0,0,0,0,0c0,0,0-0.1-0.1-0.1c0,0,0-0.1-0.1-0.1c0,0,0,0,0-0.1c0,0,0,0,0-0.1c0,0,0-0.1,0-0.1l0,0
				c0,0-0.1,0-0.1,0.1l0,0.1c0,0,0,0,0,0.1c0,0,0,0-0.1,0.1c-0.1,0-0.1,0-0.1,0.1c0,0,0,0,0,0l-0.2,0c0,0,0,0,0,0l-0.5-0.1
				c0,0,0,0,0,0c-0.1,0-0.1-0.1-0.1-0.1l0,0c0,0,0,0,0,0l-0.1-0.1c0,0,0,0,0,0c0-0.1,0-0.1,0-0.2c0,0,0,0,0,0
				c0.1-0.3,0.1-0.3,0.1-0.5v0c0.1,0,0.1,0,0.1,0c0.1-0.1,0.1-0.1,0.1-0.1c0,0,0,0,0,0c0,0,0.1,0,0.1-0.1c0,0,0,0,0,0l0.1,0
				c0,0,0.1,0,0.1-0.1c0,0,0-0.1,0-0.1c0,0,0,0,0,0c0,0,0,0,0,0c-0.1-0.1-0.1-0.1-0.2-0.1c0,0,0,0,0,0c0-0.1,0-0.1,0-0.1
				c0,0,0-0.1-0.1-0.1l-0.1,0c-0.1,0.1-0.1,0.1-0.1,0.1l0,0c0,0,0,0-0.1,0l-0.2,0c0,0,0,0,0,0l0,0c0,0,0,0,0,0.1c0,0,0,0.1,0,0.1
				l0.1,0.1c0,0,0,0,0,0c0,0,0,0.1,0.1,0.1c0,0,0,0,0,0c0,0.1,0,0.2,0,0.2v0.1l-0.2,0.5c0,0,0,0,0,0c-0.1,0.1-0.1,0.1-0.1,0.1
				c0,0,0,0,0,0c0,0-0.1,0-0.1,0.1c0,0,0,0,0,0l-0.2,0c0,0,0,0,0,0l-0.7-0.2c0,0,0,0-0.1,0L20,29.2c0,0-0.1-0.1-0.1-0.1L19.9,29
				c0,0,0,0,0-0.1c0.1-0.3,0.1-0.3,0.2-0.6c0,0,0,0,0,0c0.1-0.1,0.1-0.1,0.1-0.1c0,0,0,0,0,0l0.1-0.1c0,0,0,0,0,0l0,0
				c0,0,0.1,0,0.1-0.1c0,0,0-0.1,0-0.1l0,0c0,0,0,0,0,0c0-0.1,0-0.1-0.1-0.1c0,0,0-0.1-0.1-0.1c0,0,0,0-0.1,0l0,0c0,0-0.1,0-0.1,0
				L20,27.6c0,0-0.1,0-0.1,0.1c0,0,0,0,0,0l0,0c0,0-0.1,0-0.1,0.1c0,0,0,0.1,0,0.1l0,0c0,0,0,0,0,0l0.1,0.1c0,0,0,0,0,0
				c0,0.1,0,0.1,0.1,0.2c0,0,0,0,0,0c-0.1,0.3-0.1,0.3-0.2,0.6c0,0,0,0,0,0.1c0,0-0.1,0-0.1,0.1l-0.1,0.1l-0.1,0.1c0,0,0,0-0.1,0
				c-0.4-0.1-0.4-0.1-0.8-0.2c0,0,0,0-0.1,0l-0.1-0.1c0,0,0-0.1-0.1-0.1l-0.1-0.1c0,0,0,0,0-0.1l0.1-0.6c0,0,0,0,0,0
				c0.1-0.1,0.1-0.1,0.1-0.1c0,0,0,0,0,0l0.1-0.1l0,0c0,0,0,0,0,0c0,0,0.1,0,0.1-0.1c0,0,0-0.1,0-0.1l0,0c0,0,0,0,0,0
				c0-0.1,0-0.1-0.1-0.1l-0.1-0.1c0,0,0,0-0.1,0c0,0,0,0,0,0c0,0,0,0-0.1,0c0,0-0.1,0-0.1,0.1c-0.1,0-0.1,0-0.1,0.1c0,0,0,0,0,0
				c0,0,0,0,0,0c0,0-0.1,0-0.1,0.1c0,0,0,0.1,0,0.1l0,0c0,0,0,0,0,0l0.1,0.1c0,0,0,0,0,0c0,0.1,0,0.1,0.1,0.2v0l-0.2,0.6
				c0,0,0,0,0,0l-0.1,0l-0.1,0.1c0,0-0.1,0-0.1,0.1c0,0,0,0-0.1,0c-0.4-0.1-0.4-0.1-0.8-0.2c0,0,0,0-0.1,0l-0.1-0.1
				c0-0.1,0-0.1-0.1-0.1c0,0,0-0.1-0.1-0.1c0,0,0,0,0-0.1c0.1-0.3,0.1-0.3,0.1-0.6c0,0,0,0,0,0c0,0,0.1-0.1,0.1-0.1c0,0,0,0,0,0
				l0.1-0.1c0,0,0,0,0,0c0,0,0,0,0,0c0,0,0.1,0,0.1-0.1c0,0,0-0.1,0-0.1l0,0c0,0,0,0,0,0c0-0.1,0-0.1-0.1-0.1L17,26.7c0,0,0,0-0.1,0
				l0,0c0,0,0,0-0.1,0c0,0-0.1,0-0.1,0.1l-0.1,0.1c0,0,0,0,0,0c0,0,0,0,0,0c0,0-0.1,0-0.1,0.1c0,0,0,0.1,0,0.1l0,0c0,0,0,0,0,0
				l0.1,0.1c0,0,0,0,0,0l0.1,0.2c0,0,0,0,0,0c-0.1,0.3-0.1,0.3-0.1,0.6c0,0,0,0,0,0c-0.1,0.1-0.1,0.1-0.1,0.1l0,0l-0.1,0
				c0,0,0,0,0,0c-0.1,0-0.1,0-0.2,0c0,0,0,0,0,0L15.5,28c0,0,0,0,0,0l-0.1-0.1l0,0c0-0.1,0-0.1-0.1-0.1c0,0,0,0,0,0
				c0-0.1,0-0.1-0.1-0.2c0,0,0,0,0,0c0.1-0.3,0.1-0.3,0.1-0.6c0,0,0,0,0,0c0,0,0.1-0.1,0.1-0.1c0,0,0,0,0,0c0,0,0.1,0,0.1-0.1
				c0,0,0,0,0,0c0,0,0,0,0,0c0,0,0.1,0,0.1-0.1c0,0,0-0.1,0-0.1l0,0c0,0,0,0,0,0c0-0.1,0-0.1-0.1-0.1l-0.1-0.1c0,0,0,0,0,0
				c0,0,0,0-0.1,0c0,0-0.1,0-0.1,0l0,0.1c0,0,0,0,0,0l-0.2,0c0,0,0,0,0,0l0,0c0,0-0.1,0.1,0,0.1c0,0,0,0,0,0l0.1,0.1l0,0l0.1,0.1
				c0,0,0,0,0,0c0,0.1,0,0.1,0,0.2c0,0,0,0,0,0c-0.1,0.3-0.1,0.3-0.1,0.6c0,0,0,0,0,0c0,0-0.1,0.1-0.1,0.1c0,0,0,0,0,0l-0.1,0.1h0
				c-0.1,0-0.1,0-0.2,0c0,0,0,0,0,0l-0.5-0.2c0,0,0,0,0,0l-0.1-0.1l0,0l-0.1-0.1l0,0c0-0.1,0-0.1-0.1-0.2c0,0,0,0,0,0
				c0-0.3,0-0.3,0.1-0.5c0,0,0,0,0,0l0.1-0.1c0,0,0.1,0,0.1-0.1c0,0,0.1,0,0.1-0.1l0,0c0,0,0-0.1,0-0.1l0,0c0,0,0,0,0,0
				c-0.1-0.1-0.1-0.1-0.1-0.1c0,0,0,0,0-0.1l0-0.2c0,0,0,0,0,0c0,0,0-0.1-0.1,0c0,0,0,0,0,0c0,0-0.1,0-0.1,0.1l-0.1,0.1l-0.1,0
				c0,0,0,0-0.1,0c-0.3-0.1-0.3-0.1-0.7-0.3c0,0,0,0,0,0l-0.1-0.1c0-0.1,0-0.1-0.1-0.1l0-0.1c0,0-0.1-0.1-0.1,0c0,0,0,0,0,0
				c0,0,0,0,0,0c0,0,0,0,0,0l-0.1,0.1c0,0,0,0,0,0c-0.1,0-0.1,0-0.2,0c0,0,0,0,0,0c-0.3-0.1-0.3-0.1-0.5-0.2c0,0,0,0,0,0l-0.1-0.1
				l-0.1-0.1l-0.1-0.1c0,0,0,0,0-0.1c0-0.3,0-0.3,0.1-0.6c0,0,0,0,0,0c0-0.1,0.1-0.1,0.1-0.1c0,0,0,0,0,0l0.1-0.1l0,0
				c0,0,0-0.1,0-0.1c0,0,0,0,0,0l-0.1-0.1l-0.1-0.1l0,0c0,0,0,0-0.1-0.1c0,0,0,0-0.1,0c0,0,0,0-0.1,0.1c0,0,0,0,0,0c0,0-0.1,0-0.1,0
				c0,0,0,0,0,0l-0.1,0c0,0,0,0,0,0.1c0,0,0,0.1,0,0.1l0,0c0,0,0,0.1,0.1,0.1c0,0.1,0,0.1,0.1,0.1c0,0,0,0,0,0c0,0.1,0,0.1,0,0.2
				c0,0,0,0,0,0c0,0.2,0,0.2-0.1,0.4c0,0,0,0,0,0c0,0,0,0-0.1,0.1c0,0-0.1,0-0.1,0.1l0,0c0,0-0.1,0-0.1,0.1l-0.1,0c0,0,0,0,0,0
				c-0.2-0.1-0.2-0.1-0.4-0.2c0,0,0,0,0,0l-0.1-0.1c0,0,0,0,0,0l0-0.1c0,0,0,0,0,0c0-0.1,0-0.1,0-0.2c0,0,0,0,0,0
				c0-0.2,0-0.2,0.1-0.4c0,0,0,0,0,0c0-0.1,0-0.1,0.1-0.1c0,0,0,0,0,0l0.1-0.1c0,0,0,0,0.1,0c0,0,0,0,0-0.1c0,0,0,0,0,0
				c0,0,0,0,0-0.1c0,0,0-0.1,0-0.1l-0.1-0.1c0,0,0-0.1,0-0.1c0,0,0,0,0-0.1c0.1-0.4,0.1-0.4,0.1-0.7c0,0,0,0,0-0.1
				c0,0,0.1,0,0.1-0.1l0.1-0.1l0,0c0,0,0-0.1,0-0.1c0,0,0,0,0-0.1l-0.1-0.1c0,0,0-0.1-0.1-0.1c0,0,0,0,0-0.1c0,0,0-0.1-0.1,0
				c0,0,0,0,0,0c0,0,0,0,0,0c0,0,0,0,0,0l-0.1,0.1c0,0,0,0-0.1,0.1c0,0,0,0,0,0c-0.3-0.1-0.3-0.1-0.5-0.2c0,0,0,0,0,0l0-0.1l0-0.1
				l0-0.1c0,0,0,0,0-0.1c0-0.1,0-0.1,0-0.2c0,0,0-0.3,0.1-0.5c0,0,0,0,0,0L9.8,20c0,0,0.1,0,0.1-0.1c0,0,0,0,0,0c0,0,0-0.1,0-0.1
				l0-0.1c0,0,0-0.1,0-0.1l0-0.1l0-0.1c0,0,0,0-0.1,0h0c0,0,0,0,0,0c0,0,0,0,0,0l-0.1,0.1c0,0,0,0-0.1,0.1c0,0,0,0,0,0
				c-0.2-0.1-0.2-0.1-0.4-0.1c0,0,0,0,0,0l0-0.1c0-0.1,0-0.1,0-0.1c0,0,0-0.1,0-0.1c0,0,0,0,0-0.1c0.1-0.4,0.1-0.4,0.2-0.7
				c0,0,0,0,0-0.1c0,0,0,0,0.1-0.1l0.1-0.1c0,0,0,0,0,0c0,0,0-0.1,0-0.1c0,0,0,0,0,0c0-0.1,0-0.1,0-0.1c0,0,0-0.1,0-0.1c0,0,0,0,0,0
				c0,0,0,0-0.1,0c0,0,0,0,0,0c0,0,0,0-0.1,0.1c0,0,0,0-0.1,0.1c0,0,0,0,0,0l-0.3-0.1c0,0,0,0,0,0c0,0,0-0.1-0.1-0.1c0,0,0,0,0,0
				l0-0.1v0c0-0.1,0-0.1,0-0.2c0,0,0,0,0,0c0.1-0.3,0.1-0.3,0.1-0.5c0,0,0,0,0,0l0.1-0.1c0,0,0,0,0,0c0,0,0,0,0.1-0.1c0,0,0,0,0,0
				c0,0,0,0,0,0c0,0,0,0,0-0.1c0,0,0,0,0-0.1v0c0,0,0,0,0,0c0,0,0,0-0.1-0.1c0,0,0,0,0,0c0,0,0,0,0,0c0,0,0,0,0,0c0,0,0-0.1,0-0.1
				c0.1-0.3,0.2-0.4,0.2-0.8c0,0,0,0,0,0l0.1-0.1c0,0,0,0,0,0c0,0,0-0.1,0-0.1l0,0l0-0.1c0,0,0-0.1,0-0.1l0,0c0,0,0,0-0.1,0
				c0,0,0,0,0,0L9.2,15l-0.1,0.1c0,0,0,0,0,0H8.9l0,0L8.9,15L8.9,15L8.9,15z M32.4,28.2L32.4,28.2l0-0.3c0,0,0,0,0,0l0.1-0.2
				c0,0,0,0,0,0l0.1-0.1c0,0,0,0,0,0l0.1-0.1c0,0,0,0,0,0l0.1-0.1h0c0.1,0,0.1,0,0.3,0c0,0,0,0,0,0l0,0.1l0,0.1c0,0,0,0,0,0.1
				c0,0,0,0,0,0c-0.1,0.2-0.1,0.2-0.2,0.4l0,0l-0.1,0.1l0,0c0,0,0,0-0.1,0.1c0,0,0,0,0,0c-0.1,0-0.1,0-0.1,0.1c0,0,0,0,0,0l-0.2,0
				c0,0,0,0,0,0L32.4,28.2C32.4,28.3,32.4,28.3,32.4,28.2L32.4,28.2z M29,30.4L29,30.4C29,30.4,29,30.4,29,30.4
				c0.1-0.2,0.1-0.2,0.1-0.3c0,0,0,0,0,0l0.1-0.1c0,0,0,0,0,0l0.1-0.1c0,0,0,0,0,0c0.1,0,0.1,0,0.2-0.1h0c0,0,0,0,0,0
				c0.1,0,0.1,0,0.2,0l0,0l0.2,0.1l0,0l0,0.1c0,0,0,0,0,0c0,0.1,0,0.1,0,0.2c0,0,0,0,0,0c0,0.1,0,0.1-0.1,0.2c0,0,0,0,0,0l-0.1,0.1
				c0,0,0,0,0,0c-0.1,0-0.1,0-0.1,0.1c0,0,0,0,0,0l-0.2,0.1c0,0,0,0,0,0c-0.1,0-0.1,0-0.3,0c0,0,0,0,0,0c0,0-0.1,0-0.1-0.1l0,0
				c0,0,0,0,0-0.1c0,0,0,0,0,0C29,30.5,29,30.4,29,30.4z M25.4,32.8L25.4,32.8l-0.1-0.1c0,0,0,0,0,0c0.1-0.2,0.1-0.2,0.2-0.4
				c0,0,0,0,0,0l0.1,0c0.1,0,0.1,0,0.1,0c0,0,0,0,0.1,0l0.5,0.1c0,0,0,0,0,0c0,0,0,0,0,0.1c0,0,0,0,0,0.1c0,0,0,0,0,0
				c-0.1,0.2-0.1,0.2-0.2,0.4c0,0,0,0,0,0l-0.1,0L26,32.8c0,0,0,0-0.1,0C25.7,32.8,25.7,32.8,25.4,32.8L25.4,32.8
				C25.4,32.8,25.4,32.8,25.4,32.8z M24.7,29.8C24.7,29.8,24.7,29.8,24.7,29.8c0-0.2,0-0.2,0.1-0.3l0,0c0.1-0.1,0.1-0.1,0.2-0.3
				c0,0,0,0,0,0l0.1-0.1l0.1-0.1c0,0,0,0,0,0c0.2,0,0.2,0,0.3,0c0,0,0,0,0,0c0.1,0,0.1,0,0.3,0c0,0,0,0,0,0c0.1,0.1,0.1,0.1,0.1,0.1
				c0,0,0,0,0,0l0.1,0.1c0,0,0,0.1,0.1,0.1l0,0c0,0.1,0,0.1,0,0.2c0,0,0,0,0,0l0,0c-0.1,0.2-0.1,0.2-0.1,0.3c0,0,0,0,0,0l-0.1,0.1
				l0,0l-0.1,0.1l-0.1,0.1l0,0l-0.2,0.1h0c-0.2,0-0.2,0-0.4-0.1l0,0l-0.1-0.1c0,0,0,0,0,0c0,0,0-0.1-0.1-0.1c0,0,0-0.1-0.1-0.1
				c0,0,0,0,0,0L24.7,29.8z M24.7,30.6L24.7,30.6l0.1-0.1c0,0,0,0,0.1,0c0.3,0,0.3,0,0.5,0.1c0,0,0,0,0.1,0c0,0,0,0.1,0,0.1l0.1,0.1
				l0.1,0.1c0,0,0,0,0,0.1l-0.2,0.4c0,0,0,0-0.1,0l-0.1,0.1l-0.1,0.1l-0.1,0.1c0,0,0,0-0.1,0l0,0l-0.5-0.1c0,0,0,0-0.1,0l0-0.1
				l-0.1-0.1c0,0,0,0-0.1-0.1c0,0,0,0,0-0.1c0.1-0.2,0.1-0.2,0.2-0.5c0,0,0,0,0,0l0.1-0.1C24.6,30.6,24.7,30.6,24.7,30.6z M26,31.7
				L26,31.7C26,31.7,26,31.7,26,31.7l-0.2-0.1c0,0,0,0,0,0c0,0,0,0,0-0.1l0,0c0,0,0-0.1,0-0.1c0,0,0,0,0,0h0
				c0.1-0.2,0.1-0.2,0.1-0.3c0,0,0,0,0,0C26,31,26,31,26.1,30.9c0,0,0,0,0,0l0.1-0.1c0,0,0,0,0,0l0.2-0.1c0,0,0,0,0,0
				c0.2,0,0.2,0,0.3,0l0,0c0.1,0,0.1,0,0.1,0.1c0,0,0,0,0,0l0,0.1c0,0,0,0,0,0c0,0.1,0,0.1,0,0.2c0,0,0,0,0,0
				c-0.1,0.2-0.1,0.2-0.2,0.4c0,0,0,0,0,0l-0.1,0.1l-0.1,0.1l-0.1,0.1c0,0,0,0-0.1,0C26.2,31.8,26.2,31.8,26,31.7z M26.4,30.4
				L26.4,30.4C26.3,30.5,26.3,30.4,26.4,30.4c-0.1-0.1-0.1-0.1-0.2-0.2c0,0,0,0,0-0.1c0.1-0.3,0.1-0.3,0.2-0.6c0,0,0,0,0,0
				c0.1-0.1,0.1-0.1,0.1-0.1c0,0,0,0,0,0c0.1,0,0.1,0,0.2-0.1c0,0,0,0,0,0c0.3,0,0.3,0,0.5,0.1c0,0,0,0,0,0c0,0,0.1,0.1,0.1,0.1
				c0,0,0,0,0,0c0,0.1,0,0.1,0,0.2c0,0,0,0,0,0l0,0c-0.1,0.3-0.1,0.3-0.2,0.6c0,0,0,0,0,0.1l-0.1,0.1l-0.1,0.1c0,0,0,0-0.1,0
				C26.7,30.5,26.7,30.5,26.4,30.4z M27.2,31.6L27.2,31.6l0.2-0.4c0,0,0,0,0,0l0.1-0.1l0.1-0.1c0,0,0,0,0.1,0l0,0c0.2,0,0.2,0,0.5,0
				c0,0,0,0,0,0l0,0.1c0,0,0,0,0,0.1c0,0,0,0,0,0c-0.1,0.2-0.1,0.2-0.2,0.4c0,0,0,0,0,0L28,31.7l-0.1,0.1c0,0,0,0-0.1,0
				c-0.2,0-0.2,0-0.5,0c0,0,0,0,0,0l0-0.1C27.3,31.7,27.2,31.7,27.2,31.6C27.2,31.6,27.2,31.6,27.2,31.6z M27.9,30.6L27.9,30.6
				C27.8,30.6,27.8,30.6,27.9,30.6C27.8,30.6,27.8,30.6,27.9,30.6l-0.1-0.2c0,0,0,0,0-0.1c0,0,0,0,0-0.1c0.1-0.2,0.1-0.2,0.2-0.5
				c0,0,0,0,0,0l0.1-0.1l0.1-0.1l0.1-0.1c0,0,0,0,0.1,0c0.2,0,0.2,0,0.5,0.1c0,0,0,0,0,0l0,0.1l0.1,0.1l0,0.1c0,0,0,0,0,0.1
				c-0.1,0.2-0.1,0.2-0.2,0.5c0,0,0,0,0,0.1l-0.1,0.1l-0.1,0.1l-0.1,0.1c0,0,0,0-0.1,0C28.1,30.7,28.1,30.7,27.9,30.6z M28.8,29.4
				C28.8,29.4,28.8,29.4,28.8,29.4c-0.2,0-0.2,0-0.4,0c0,0,0,0,0,0c0,0-0.1-0.1-0.1-0.1l0,0l-0.1-0.1L28.2,29c0,0,0,0,0,0
				c0-0.1,0-0.1,0-0.2c0,0,0,0,0,0c0-0.1,0-0.1,0.1-0.3l0,0l0.2-0.3c0,0,0,0,0,0l0.1-0.1l0.1-0.1c0,0,0,0,0,0c0,0,0,0,0-0.1
				c0,0,0-0.1,0-0.1l-0.1-0.1l0,0c0,0,0,0,0-0.1c0,0,0,0,0,0c0-0.1,0-0.1,0-0.2c0,0,0,0,0,0l0.2-0.6c0,0,0,0,0,0l0.1-0.2
				c0,0,0,0,0,0l0.1-0.1l0,0c0.1,0,0.1,0,0.2-0.1c0,0,0,0,0,0l0.5,0.1l0,0l0.1,0.1c0,0,0,0,0,0c0,0,0,0.1,0,0.1c0,0,0,0,0,0
				c0,0.1,0,0.1,0,0.2c0,0,0,0,0,0c-0.1,0.3-0.1,0.3-0.2,0.5c0,0,0,0,0,0.1l-0.1,0.1l-0.1,0.1L29.5,28c0,0,0,0-0.1,0.1c0,0,0,0,0,0
				c0,0-0.1,0.1,0.1,0.1c0,0,0,0,0,0c0,0,0,0.1,0,0.1c0,0,0,0.1,0,0.1c0,0,0,0,0,0c0,0.1,0,0.1,0,0.3c0,0,0,0,0,0L29.4,29
				c0,0,0,0,0,0l-0.1,0.1l0,0c-0.1,0-0.1,0-0.1,0.1L29,29.3l0,0L28.8,29.4z M29.7,29.5L29.7,29.5C29.7,29.4,29.7,29.4,29.7,29.5
				c-0.1,0-0.1-0.1-0.1-0.1c0,0,0,0,0,0c0-0.1,0-0.1,0-0.2c0,0,0,0,0,0l0.2-0.5c0,0,0,0,0-0.1l0.1-0.1l0.1-0.1l0.1-0.1
				c0,0,0,0,0.1,0c0.2,0,0.2,0,0.4,0c0,0,0,0,0,0c0,0,0.1,0.1,0.1,0.1l0,0l0,0.1c0,0,0,0,0,0c0,0.1,0,0.1,0,0.2l0,0c0,0,0,0,0,0
				c-0.1,0.2-0.1,0.2-0.2,0.4c0,0,0,0,0,0l-0.1,0.1c0,0,0,0,0,0l-0.1,0.1c0,0,0,0,0,0C29.9,29.5,29.9,29.5,29.7,29.5z M30.5,28.3
				L30.5,28.3L30.5,28.3c-0.1,0-0.2,0-0.2,0l0,0l-0.1-0.1l0,0c0,0,0-0.1,0-0.1l0-0.1c0,0,0,0,0,0c0-0.1,0-0.1,0-0.2c0,0,0,0,0,0
				c0.1-0.2,0.1-0.2,0.1-0.3c0,0,0,0,0,0l0.1-0.2c0,0,0,0,0,0l0.1-0.1l0.1-0.1c0,0,0,0,0,0l0.2-0.1c0,0,0,0,0,0c0.1,0,0.1,0,0.3,0.1
				c0,0,0,0,0,0l0.1,0.1c0,0,0,0,0,0l0,0.1c0,0,0,0.1,0,0.1v0c0,0.1,0,0.1,0,0.2c0,0,0,0,0,0l-0.1,0.2c0,0,0,0,0,0
				C31.1,28,31.1,28,31,28.1c0,0,0,0,0,0c0,0,0,0-0.1,0.1l-0.1,0.1c0,0,0,0,0,0C30.6,28.3,30.5,28.3,30.5,28.3z M30.4,26.3
				L30.4,26.3c0.1-0.3,0.1-0.3,0.2-0.7c0,0,0,0,0-0.1l0.1-0.1l0.1-0.1c0,0,0.1,0,0.1-0.1c0,0,0,0,0.1,0c0.3,0.1,0.3,0.1,0.5,0.1
				c0,0,0,0,0,0v0c0,0,0.1,0.1,0.1,0.1c0,0,0,0,0,0c0,0,0,0.1,0,0.1c0,0,0,0,0,0c0,0.1,0,0.1,0,0.2c0,0,0,0,0,0l-0.2,0.6
				c0,0,0,0,0,0c-0.1,0.1-0.1,0.1-0.1,0.2l0,0c0,0,0,0-0.1,0.1c0,0,0,0,0,0l-0.2,0.1c0,0,0,0,0,0c-0.2,0-0.2,0-0.5-0.1l0,0
				c0,0-0.1-0.1-0.1-0.1c0,0,0,0,0,0c0,0,0-0.1,0-0.1c0,0,0,0,0,0C30.4,26.5,30.4,26.4,30.4,26.3L30.4,26.3
				C30.4,26.3,30.4,26.3,30.4,26.3z M30.7,29.2L30.7,29.2c0.1-0.2,0.1-0.2,0.2-0.4c0,0,0,0,0,0l0.1-0.1c0,0,0,0,0,0c0,0,0,0,0.1-0.1
				l0,0l0.2-0.1c0,0,0,0,0,0l0.2,0l0,0c0,0,0.1,0.1,0.1,0.1l0,0l0,0.1l0,0.1v0c0,0.1,0,0.1,0,0.2l0,0c0,0,0,0,0,0
				c-0.1,0.1-0.1,0.1-0.1,0.2l0,0l-0.1,0.1c0,0,0,0,0,0c0,0,0,0-0.1,0.1c0,0,0,0,0,0l-0.2,0.1c0,0,0,0,0,0c-0.2,0-0.2,0-0.3,0
				c0,0,0,0,0,0c0,0,0-0.1,0-0.1c0,0,0-0.1,0-0.1C30.8,29.3,30.7,29.3,30.7,29.2C30.7,29.3,30.7,29.2,30.7,29.2z M31.7,28.3
				c-0.1,0-0.2,0-0.3,0c0,0,0,0,0,0c0,0,0,0,0-0.1c0,0,0-0.1,0-0.1l0-0.1c0,0,0,0,0-0.1c0.1-0.3,0.1-0.3,0.2-0.5c0,0,0,0,0,0
				l0.1-0.1c0,0,0,0,0,0l0.1-0.1c0,0,0,0,0,0c0.2,0,0.2,0,0.4,0.1c0,0,0,0,0,0c0,0,0,0.1,0,0.1c0,0,0,0.1,0,0.1l0,0.1c0,0,0,0,0,0.1
				c-0.1,0.2-0.1,0.2-0.2,0.4c0,0,0,0,0,0L32,28.2c0,0,0,0,0,0l-0.1,0.1c0,0,0,0,0,0C31.9,28.3,31.8,28.3,31.7,28.3L31.7,28.3
				C31.7,28.3,31.7,28.3,31.7,28.3z M32.2,27L32.2,27C32.1,27,32.1,27,32.2,27l-0.2,0l0,0c0,0-0.1-0.1-0.1-0.1c0,0,0,0,0,0l0-0.1
				l0-0.1c0,0,0,0,0,0l0-0.2c0,0,0,0,0,0c0.1-0.2,0.1-0.2,0.1-0.3c0,0,0,0,0,0c0.1-0.1,0.1-0.1,0.1-0.2c0,0,0,0,0,0l0.1-0.1
				c0,0,0.1,0,0.1-0.1l0,0c0,0,0,0,0,0l0.2-0.1c0,0,0,0,0,0l0.3,0.1c0,0,0,0,0,0c0,0,0.1,0.1,0.1,0.1c0,0,0,0,0,0c0,0,0,0.1,0,0.1
				l0,0.1c0,0,0,0,0,0c0,0.1,0,0.1,0,0.2c0,0,0,0,0,0c0,0.1,0,0.1-0.1,0.3c0,0,0,0,0,0l-0.1,0.2c0,0,0,0,0,0l-0.1,0.1
				c0,0-0.1,0.1-0.1,0.1c0,0,0,0,0,0C32.3,27,32.2,27,32.2,27z M33.3,24.6C33.3,24.6,33.4,24.6,33.3,24.6
				C33.4,24.6,33.4,24.6,33.3,24.6c0.1-0.1,0.1-0.1,0.2-0.1c0,0,0.1,0,0.1-0.1c0,0,0,0,0,0l0.2-0.1h0l0.2,0l0,0c0,0,0,0.1,0.1,0.1
				c0,0,0,0,0,0c0,0,0,0.1,0,0.1l0,0.1c0,0,0,0,0,0l0,0.2c0,0,0,0,0,0c0,0.2,0,0.2-0.1,0.3c0,0,0,0,0,0c0,0.1,0,0.1-0.1,0.1l0,0
				c0,0,0,0-0.1,0.1l-0.1,0.1c0,0,0,0,0,0l-0.1,0.1c0,0,0,0,0,0c-0.1,0-0.1,0-0.2,0c0,0-0.2-0.1-0.2-0.1c0,0,0,0,0,0l0-0.1
				c0,0,0-0.1,0-0.1c0,0,0,0,0-0.1c0.1-0.2,0.1-0.2,0.1-0.4l-0.1,0.3c0,0,0,0,0,0L33,25.3c0,0-0.1,0.1-0.1,0.1c0,0-0.1,0.1-0.1,0.1
				c0,0,0,0-0.1,0.1c0,0,0,0-0.1,0c-0.2,0-0.2,0-0.4-0.1c0,0,0,0,0,0l-0.1-0.1c0,0,0,0,0,0l0-0.1c0,0,0,0,0,0c0-0.1,0-0.1,0-0.2
				c0,0,0,0,0,0c0.1-0.3,0.1-0.3,0.2-0.6c0,0,0,0,0,0l0.1-0.2c0,0,0,0,0,0l0.1-0.1c0,0,0,0,0,0l0.1-0.1c0,0,0,0,0,0
				c0.2,0.1,0.2,0.1,0.4,0.1c0,0,0,0,0,0c0,0,0.1,0.1,0.1,0.1c0,0,0,0,0,0l0,0.1c0,0,0,0,0,0C33.3,24.5,33.3,24.5,33.3,24.6
				L33.3,24.6C33.3,24.6,33.3,24.6,33.3,24.6z M33,27c0,0-0.1-0.1-0.1-0.1c0,0,0,0,0,0c0,0,0-0.1,0-0.1v-0.2c0,0,0,0,0,0
				c0.1-0.2,0.1-0.2,0.1-0.4c0,0,0,0,0-0.1c0,0,0,0,0.1-0.1c0,0,0.1-0.1,0.1-0.1c0,0,0,0,0.1-0.1c0,0,0,0,0,0c0.2,0,0.2,0,0.3,0.1
				c0,0,0,0,0,0c0,0,0,0,0.1,0.1c0,0,0,0,0,0v0.2c0,0,0,0,0,0l-0.2,0.5c0,0,0,0,0,0c0,0.1,0,0.1-0.1,0.1c0,0,0,0,0,0l-0.1,0.1
				c0,0,0,0,0,0C33.2,27,33.1,27,33,27z M33.3,28.1L33.3,28.1C33.3,28.1,33.3,28.1,33.3,28.1c0.1-0.2,0.1-0.2,0.2-0.4c0,0,0,0,0,0
				c0,0,0,0,0.1-0.1l0.1-0.1c0,0,0,0,0,0c0.1,0,0.1,0,0.3,0c0,0,0,0,0,0c0,0,0,0,0,0.1c0,0,0,0,0,0.1c0,0,0,0,0,0.1
				c-0.1,0.2-0.1,0.2-0.2,0.4c0,0,0,0,0,0l-0.1,0.1l-0.1,0.1c0,0,0,0,0,0c-0.1,0-0.1,0-0.2,0c0,0,0,0,0,0c0,0,0,0-0.1-0.1
				c0,0,0,0,0,0C33.3,28.2,33.3,28.1,33.3,28.1z M33.9,27.1L33.9,27.1L33.9,27.1L33.7,27c0,0,0,0,0,0c0,0,0,0,0-0.1v0
				c0-0.1,0-0.1,0-0.2c0,0,0,0,0,0c0-0.1,0-0.1,0.1-0.2c0,0,0,0,0,0c0-0.1,0-0.1,0.1-0.1l0,0l0.1-0.1c0,0,0,0,0,0c0,0,0.1,0,0.1-0.1
				c0,0,0,0,0,0c0.1,0,0.1,0,0.2,0l0,0c0,0,0,0.1,0.1,0.1c0,0,0,0,0,0l0,0.1v0c0,0,0,0.1,0,0.1c0,0,0,0,0,0
				c-0.1,0.2-0.1,0.2-0.1,0.3l0,0L34.2,27c0,0,0,0,0,0l-0.1,0.1c0,0,0,0,0,0c0,0-0.1,0-0.1,0.1c0,0,0,0,0,0
				C33.9,27.1,33.9,27.1,33.9,27.1z M34.2,25.8C34.2,25.8,34.2,25.8,34.2,25.8c0,0,0-0.1,0-0.1c0,0,0,0,0-0.1c0,0,0-0.1,0-0.1
				c0,0,0,0,0-0.1c0.1-0.2,0.1-0.2,0.1-0.5c0,0,0,0,0,0l0.1-0.1c0,0,0-0.1,0.1-0.1l0.1-0.1c0,0,0,0,0,0l0,0l0.3,0.1c0,0,0,0,0,0
				c0,0,0,0,0,0.1l0,0.1c0,0,0,0.1,0,0.1c0,0,0,0,0,0.1c-0.1,0.2-0.1,0.2-0.1,0.5c0,0,0,0,0,0c0,0,0,0-0.1,0.1c0,0-0.1,0-0.1,0.1
				l-0.1,0.1c0,0,0,0,0,0C34.4,25.8,34.2,25.8,34.2,25.8z M34.6,24.4C34.6,24.4,34.6,24.4,34.6,24.4l-0.1-0.1c0,0,0,0,0,0
				c0-0.1,0-0.1,0-0.2c0,0,0,0,0,0c0.1-0.3,0.1-0.3,0.1-0.5c0,0,0,0,0,0c0-0.1,0-0.1,0.1-0.1c0,0,0,0,0,0c0,0,0.1,0,0.1,0l0,0v0h0
				c0.2,0.1,0.2,0.1,0.3,0.1c0,0,0,0,0,0c0,0,0,0,0,0.1c0,0,0,0,0,0.1c0,0,0,0,0,0.1c-0.1,0.3-0.1,0.3-0.2,0.7c0,0,0,0,0,0.1
				c0,0,0,0,0,0.1c0,0,0,0-0.1,0.1c0,0,0,0,0,0L34.6,24.4z M35.1,23.2L35.1,23.2c-0.1,0-0.1,0-0.2-0.1c0,0,0,0,0,0
				c0,0,0-0.1-0.1-0.1c0,0,0,0,0,0c0-0.1,0-0.1,0-0.1c0,0,0-0.1,0-0.1c0,0,0,0,0,0c0-0.1,0-0.1,0-0.2l0,0c0,0,0,0,0,0l0-0.2
				c0,0,0,0,0,0c0-0.1,0-0.1,0.1-0.2c0,0,0,0,0,0c0,0,0,0,0.1-0.1c0,0,0,0,0.1-0.1c0,0,0,0,0,0l0.1,0h0c0.1,0,0.1,0,0.1,0.1
				c0,0,0,0,0,0l0.1,0.1c0,0,0,0,0,0c0,0,0,0.1,0,0.1c0,0,0,0.1,0,0.1c0,0,0,0,0,0c0,0.1,0,0.1,0,0.2l0,0l0,0l-0.1,0.3c0,0,0,0,0,0
				c0,0.1,0,0.1-0.1,0.1c0,0,0,0,0,0l-0.1,0.1c0,0,0,0-0.1,0.1C35.2,23.1,35.2,23.1,35.1,23.2C35.2,23.2,35.1,23.2,35.1,23.2z
				 M24.1,30.6L24.1,30.6c-0.1,0.3-0.1,0.3-0.2,0.5c0,0,0,0,0,0l-0.1,0.1c0,0,0,0,0,0l-0.2,0c0,0,0,0,0,0c-0.3-0.1-0.3-0.1-0.6-0.1
				c0,0,0,0-0.1,0l0-0.1c0,0-0.1-0.1-0.1-0.1l0-0.1c0,0,0,0,0-0.1c0.1-0.2,0.1-0.2,0.2-0.5c0,0,0,0,0,0c0,0,0,0,0.1-0.1l0.1-0.1
				l0.1-0.1c0,0,0,0,0.1,0c0.3,0.1,0.3,0.1,0.6,0.1l0,0c0.1,0.1,0.1,0.1,0.2,0.1c0,0,0,0,0,0C24.1,30.5,24.1,30.6,24.1,30.6z
				 M22.6,30.5c-0.1,0.2-0.1,0.2-0.1,0.4h0c0,0,0,0,0,0c-0.1,0-0.1,0-0.1,0.1L22.2,31l-0.1,0.1c0,0,0,0-0.1,0L21.7,31L21.4,31
				c0,0,0,0-0.1,0c0,0,0-0.1-0.1-0.1l-0.1-0.1c0,0,0,0,0-0.1c0.1-0.3,0.1-0.3,0.2-0.7c0,0,0,0,0,0c0,0,0.1,0,0.1-0.1l0.1-0.1
				c0,0,0,0,0,0c0,0,0,0,0,0c0.3,0.1,0.3,0.1,0.7,0.1c0,0,0,0,0.1,0c0,0,0,0.1,0.1,0.1c0,0,0.1,0.1,0.1,0.1c0,0,0,0,0,0L22.6,30.5
				C22.6,30.5,22.6,30.5,22.6,30.5z M21.1,30c-0.1,0.3-0.1,0.3-0.2,0.7c0,0,0,0,0,0l-0.1,0c0,0-0.1,0-0.1,0.1l0,0c0,0,0,0,0,0
				l-0.4,0h0l-0.1,0l0,0c-0.1-0.1-0.1-0.1-0.3-0.1c0,0,0,0,0,0c0,0,0-0.1-0.1-0.1l-0.1-0.1c0,0,0,0,0,0c0-0.1,0-0.1,0-0.3l0,0l0-0.2
				c0,0,0,0,0,0c0.1-0.1,0.1-0.1,0.2-0.2c0,0,0,0,0,0c0,0,0.1,0,0.1-0.1c0,0,0.1,0,0.1,0c0,0,0,0,0.1,0c0.4,0.1,0.4,0.1,0.8,0.2
				c0,0,0,0,0.1,0l0.1,0.1C21.1,29.9,21.1,29.9,21.1,30C21.1,29.9,21.1,30,21.1,30L21.1,30z M18,29.6c0-0.1,0-0.1,0-0.2c0,0,0,0,0,0
				c0.1-0.1,0.1-0.1,0.1-0.2c0,0,0,0,0,0c0,0,0.1,0,0.1-0.1c0,0,0.1,0,0.1,0c0,0,0,0,0.1,0c0.4,0.1,0.4,0.1,0.8,0.2c0,0,0,0,0.1,0
				l0.1,0.1l0.1,0.1c0,0,0,0,0,0.1c-0.1,0.3-0.1,0.3-0.2,0.7c0,0,0,0,0,0c0,0-0.1,0-0.1,0c0,0-0.1,0-0.1,0.1c0,0,0,0,0,0h-0.3l0,0
				l-0.2,0l0,0l-0.3-0.2c0,0,0,0,0,0c0-0.1-0.1-0.1-0.1-0.2c0,0,0,0,0,0C18,29.7,18,29.7,18,29.6C18,29.6,18,29.6,18,29.6L18,29.6z
				 M17.9,29.5C17.9,29.5,17.9,29.5,17.9,29.5L17.9,29.5c-0.1,0.2-0.1,0.2-0.2,0.3c0,0,0,0,0,0l-0.1,0l-0.1,0c0,0,0,0,0,0h-0.3l0,0
				l-0.2,0l0,0l-0.3-0.2c0,0,0,0,0,0l-0.1-0.1c0-0.1,0-0.1-0.1-0.1c0,0,0,0,0,0c0-0.1,0-0.1,0-0.3l0,0c0,0,0,0,0,0c0,0,0,0,0-0.1v0
				c0.1-0.2,0.1-0.2,0.2-0.3c0,0,0,0,0,0c0,0,0.1,0,0.1-0.1c0,0,0.1,0,0.1-0.1c0,0,0,0,0.1,0c0.4,0.1,0.4,0.1,0.8,0.2c0,0,0,0,0.1,0
				c0,0,0,0.1,0.1,0.1c0,0,0.1,0.1,0.1,0.1c0,0,0,0,0,0C17.9,29.2,17.9,29.4,17.9,29.5z M8.7,20.6c0-0.1,0-0.1,0-0.2c0,0,0,0,0,0
				c0-0.3,0-0.3,0.1-0.5l0,0l0.1-0.2c0,0,0,0,0,0L9,19.6c0,0,0,0,0,0c0,0,0.1,0,0.1,0h0c0.2,0.1,0.2,0.1,0.3,0.1c0,0,0,0,0,0
				c0,0,0.1,0.1,0.1,0.1c0,0,0,0,0,0l0,0.1c0,0,0,0,0,0c0,0.1,0,0.1,0,0.2c0,0,0,0,0,0c-0.1,0.2-0.1,0.3-0.1,0.5l0,0c0,0,0,0,0,0
				c0,0,0,0,0,0l-0.1,0.2c0,0,0,0,0,0c0,0-0.1,0-0.1,0.1c0,0,0,0,0,0c0,0-0.1,0-0.1,0h0C9,20.9,9,20.9,8.8,20.9c0,0,0,0,0,0
				C8.8,20.8,8.7,20.6,8.7,20.6L8.7,20.6C8.7,20.6,8.7,20.6,8.7,20.6z M8.1,20.5L8.1,20.5C8.1,20.5,8.1,20.5,8.1,20.5
				c0-0.1,0-0.1,0-0.1s0,0,0-0.1c0,0,0,0,0-0.1c0.1-0.3,0.1-0.3,0.1-0.7c0,0,0,0,0-0.1c0,0,0,0,0-0.1c0,0,0,0,0.1-0.1c0,0,0,0,0,0
				l0.1,0h0c0,0,0.1,0,0.1,0c0,0,0,0,0,0c0.1,0.1,0.1,0.1,0.1,0.1c0,0,0,0,0,0c0,0,0,0.1,0,0.1c0,0,0,0.1,0,0.1c0,0,0,0,0,0V20
				c0,0,0,0,0,0c0,0.1,0,0.1,0,0.2c0,0,0,0,0,0c0,0.1,0,0.1-0.1,0.2c0,0,0,0,0,0c0,0,0,0-0.1,0.1l0,0.1c0,0,0,0,0,0
				C8.3,20.6,8.3,20.6,8.1,20.5L8.1,20.5z M9.1,18.4C9,18.7,9,18.7,9,19l0,0c0,0,0,0,0,0l-0.1,0.1c0,0,0,0,0,0c0,0,0,0-0.1,0.1
				c0,0,0,0,0,0c0,0-0.1,0-0.1,0.1c0,0,0,0,0,0c-0.1,0-0.1,0-0.3-0.1c0,0,0,0,0,0c0,0,0,0,0-0.1l0-0.1c0,0,0-0.1,0-0.1
				c0,0,0,0,0-0.1c0,0,0,0,0-0.1c0.1-0.2,0.1-0.2,0.1-0.5c0,0,0,0,0-0.1c0,0,0,0,0-0.1l0.1-0.1c0,0,0-0.1,0.1-0.1c0,0,0,0,0.1-0.1
				c0,0,0,0,0,0L9,18c0,0,0,0,0,0L9,18.1c0,0,0,0,0,0c0,0,0,0.1,0,0.1c0,0,0,0,0,0C9.1,18.3,9.1,18.3,9.1,18.4L9.1,18.4
				C9.1,18.4,9.1,18.4,9.1,18.4z M9.4,21.6C9.4,21.6,9.4,21.6,9.4,21.6c0.1-0.1,0.1-0.1,0.1-0.2c0,0,0,0,0,0c0,0,0,0,0.1-0.1l0,0
				c0,0,0,0,0,0c0,0,0.1,0,0.1,0h0c0.1,0.1,0.3,0.1,0.4,0.1c0,0,0,0,0,0l0.1,0.1c0,0,0,0,0,0c0,0,0,0.1,0.1,0.1v0c0,0.1,0,0.1,0,0.2
				c0,0,0,0,0,0c0,0.3,0,0.3-0.1,0.5c0,0,0,0,0,0.1c0,0,0,0-0.1,0c0,0-0.1,0.1-0.1,0.1c0,0-0.1,0.1-0.1,0.1L10,22.8l0,0
				c-0.2-0.1-0.2-0.1-0.4-0.2c0,0,0,0,0,0c-0.1-0.1-0.1-0.1-0.1-0.1c0,0,0,0,0,0l0-0.1l0,0c0-0.1,0-0.1,0-0.2c0,0,0,0,0,0
				C9.4,21.9,9.4,21.9,9.4,21.6z M8.4,16.2c0-0.1,0-0.1,0-0.1c0,0,0,0,0,0c0.1-0.2,0.1-0.2,0.1-0.4c0,0,0,0,0-0.1l0.1-0.1
				c0,0,0,0,0.1-0.1c0,0,0,0,0.1-0.1c0,0,0,0,0-0.1c0,0,0,0,0,0c0.1,0,0.1,0,0.2,0l0,0l0,0.1c0,0,0,0,0,0c0,0,0,0,0,0.1v0h0v0l0,0.2
				l0,0c-0.1,0.2-0.1,0.2-0.2,0.5c0,0,0,0,0,0l-0.1,0.1c0,0,0,0,0,0c0,0,0,0-0.1,0.1c0,0,0,0,0,0l-0.1,0.1c0,0,0,0,0,0
				c-0.1,0-0.1,0-0.2,0c0,0,0,0,0,0L8.4,16.2C8.4,16.3,8.4,16.3,8.4,16.2C8.4,16.3,8.4,16.3,8.4,16.2L8.4,16.2z M8.1,17.2
				C8.1,17.2,8.1,17.2,8.1,17.2l0.1-0.3c0,0,0,0,0,0c0-0.1,0-0.1,0.1-0.1c0,0,0,0,0,0l0.1-0.1l0.1-0.1l0,0l0.1-0.1c0,0,0,0,0,0
				l0.1,0c0,0,0,0,0,0l0,0.1v0c0,0,0,0.1,0,0.1c0,0,0,0,0.1,0.1v0c0,0.1,0,0.1,0,0.2c0,0,0,0,0,0l-0.1,0.3c0,0,0,0,0,0l0,0
				c0,0-0.1,0.1-0.1,0.1c0,0,0,0,0,0l-0.1,0.1l-0.1,0.1c0,0,0,0,0,0l-0.1,0H8.1l0-0.1c0,0,0,0,0,0c0,0,0-0.1,0-0.1
				C8,17.4,8,17.3,8.1,17.2z M7.9,18C7.9,18,7.9,18,7.9,18L8,17.9c0,0,0,0,0,0c0,0,0.1,0,0.1-0.1h0l0.2,0.1c0,0,0,0,0,0
				c0,0,0,0,0,0.1c0,0,0,0,0,0.1c0,0,0,0,0,0.1c-0.1,0.3-0.1,0.3-0.1,0.7c0,0,0,0,0,0.1c0,0,0,0,0,0c0,0,0,0,0,0.1c0,0,0,0,0,0
				l-0.2-0.1h0c0,0,0,0,0-0.1c0,0,0,0,0,0v-0.1c0,0,0,0,0,0l0,0C7.8,18.3,7.8,18.3,7.9,18z M7.5,19.8c0-0.2,0-0.2,0.1-0.4
				c0,0,0,0,0-0.1l0-0.1c0,0,0,0,0-0.1l0-0.1c0,0,0,0,0,0l0.2,0.1c0,0,0,0,0,0c0,0,0,0,0,0.1l0,0.1c0,0,0,0,0,0.1c0,0,0,0,0,0.1
				c0,0.2,0,0.2-0.1,0.5c0,0,0,0,0,0.1c0,0,0,0,0,0.1c0,0,0,0-0.1,0.1l0,0.1c0,0,0,0,0,0c0,0-0.1-0.1-0.2-0.1c0,0,0,0,0,0
				c0,0,0-0.1,0-0.1c0,0,0,0,0,0c0,0,0,0,0-0.1l0,0v0C7.5,19.9,7.5,19.8,7.5,19.8L7.5,19.8C7.5,19.8,7.5,19.8,7.5,19.8z M7.5,23.8
				L7.5,23.8L7.5,23.8c-0.1-0.1-0.1-0.1-0.2-0.1c0,0,0,0,0,0l0,0l0-0.1c0,0,0,0,0-0.1c0-0.2,0-0.2,0-0.4c0,0,0,0,0,0c0,0,0,0,0,0
				s0,0,0,0c0,0.1,0.1,0.1,0.2,0.2c0,0,0,0,0,0l0,0.1c0,0,0,0,0,0.1C7.5,23.5,7.5,23.5,7.5,23.8C7.5,23.7,7.5,23.8,7.5,23.8z
				 M7.6,22.1l0,0.4c0,0,0,0,0,0v0c0,0,0,0,0,0l0,0c0,0,0,0,0,0c-0.1-0.1-0.1-0.1-0.2-0.1c0,0,0,0,0,0l0-0.1c0,0,0,0,0-0.1
				c0,0,0,0,0-0.1c0-0.2,0-0.2,0-0.3c0,0,0,0,0,0c0,0,0,0,0,0l0-0.1c0,0,0,0,0,0l0.1,0c0,0,0,0,0,0l0.1,0.1c0,0,0,0,0,0l0,0.1
				c0,0,0,0,0,0C7.6,22,7.6,22,7.6,22.1C7.6,22.1,7.6,22.1,7.6,22.1z M7.6,21.4C7.6,21.4,7.6,21.4,7.6,21.4
				C7.6,21.5,7.6,21.5,7.6,21.4C7.6,21.5,7.6,21.5,7.6,21.4L7.6,21.4c-0.2,0-0.2,0-0.3-0.1c0,0,0,0,0,0l0-0.1l0-0.1c0,0,0,0,0-0.1
				c0-0.2,0.1-0.4,0.1-0.4s0-0.1,0-0.1c0,0,0,0,0,0c0,0,0,0,0,0c0,0,0,0,0,0l0.1-0.1h0l0.1,0.1c0,0,0,0,0,0c0,0,0,0.1,0,0.1
				c0,0,0,0,0,0.1c0,0,0,0,0,0l0,0.3c0,0,0,0,0,0l0,0.2v0l0,0L7.6,21.4z M8.1,25.4C8.1,25.5,8.1,25.5,8.1,25.4
				C8.1,25.5,8.1,25.5,8.1,25.4l-0.3-0.2l0-0.1c0,0,0,0,0-0.1c0-0.2,0-0.2,0-0.3c0,0,0,0,0,0l0,0l0,0l0,0c0,0,0,0,0,0
				c0.1,0,0.1,0.1,0.2,0.1c0,0,0,0,0,0c0,0,0,0,0,0.1c0,0,0,0,0,0.1C8.1,25.2,8.1,25.2,8.1,25.4C8.1,25.4,8.1,25.4,8.1,25.4z
				 M8.1,24.2C8.1,24.2,8.1,24.3,8.1,24.2L8.1,24.2L8,24.3c0,0,0,0,0,0c-0.1-0.1-0.1-0.1-0.2-0.2c0,0,0,0,0,0l0-0.1l0-0.1
				c0,0,0,0,0-0.1v-0.4c0,0,0,0,0,0v0c0,0,0-0.1,0-0.1c0,0,0,0,0,0c0,0,0,0,0.1,0c0,0,0,0,0,0c0.1,0,0.1,0.1,0.2,0.1c0,0,0,0,0,0
				l0,0.1c0,0,0,0,0,0.1c0,0,0,0,0,0.1C8.1,24,8.1,24,8.1,24.2z M8.2,22.8C8.2,22.8,8.2,22.8,8.2,22.8C8.2,22.8,8.2,22.8,8.2,22.8
				c0,0.2,0,0.2-0.1,0.3c0,0,0,0,0,0c0,0,0,0,0,0h0c0,0-0.1,0-0.1,0c0,0,0,0,0,0l-0.1,0c0,0,0,0,0,0C7.8,23,7.8,23,7.8,22.9
				c0,0,0,0,0,0c0,0,0,0,0-0.1c0,0,0,0,0-0.1c0-0.3,0-0.3,0-0.5c0,0,0,0,0,0c0,0,0-0.1,0.1-0.1c0,0,0,0,0,0C8,22.1,8,22.1,8.1,22.2
				c0,0,0,0,0,0c0,0,0,0.1,0,0.1c0,0,0,0.1,0,0.1c0,0,0,0,0,0C8.2,22.6,8.2,22.6,8.2,22.8C8.2,22.7,8.2,22.7,8.2,22.8z M8.2,21.9
				L8.2,21.9C8.2,21.9,8.2,21.9,8.2,21.9C8.2,22,8.2,22,8.2,21.9c-0.2,0-0.2,0-0.3-0.1c0,0,0,0,0,0c0,0,0,0,0-0.1c0-0.1,0-0.1,0-0.1
				l0-0.1c0,0,0,0,0-0.1l0,0l0.1-0.5l0,0c0-0.1,0-0.1,0.1-0.1c0,0,0,0,0,0c0,0,0,0,0.1,0h0c0.1,0.1,0.1,0.1,0.3,0.1c0,0,0,0,0,0
				L8.4,21c0,0,0,0,0,0c0,0.1,0,0.1,0,0.2v0c0,0.3,0,0.3-0.1,0.5c0,0,0,0,0,0L8.2,21.9C8.3,21.8,8.2,21.9,8.2,21.9z M8.4,25.7l0-0.1
				c0,0,0,0,0,0c0-0.1,0-0.1,0-0.3v0c0,0,0,0,0,0c0,0,0,0,0-0.1c0,0,0,0,0,0c0,0,0.1,0,0.1,0c0,0,0,0,0,0c0.1,0.1,0.1,0.1,0.2,0.1
				c0,0,0,0,0,0c0,0.1,0,0.1,0.1,0.1c0,0,0,0,0,0c0,0.1,0,0.1,0,0.2v0c0,0.1,0,0.1,0,0.3c0,0,0,0,0,0l0,0.1c0,0,0,0,0,0H8.7
				c0,0,0,0,0,0C8.6,26,8.6,26,8.5,25.9c0,0,0,0,0,0L8.4,25.7C8.4,25.8,8.4,25.7,8.4,25.7z M8.9,27.1C8.9,27.1,8.9,27.1,8.9,27.1
				L8.9,27.1C8.8,27.1,8.8,27.1,8.9,27.1l-0.3-0.1l0-0.1l0-0.1c0,0,0,0,0-0.1c0-0.1,0-0.1,0-0.2c0,0,0,0,0,0v0l0,0c0,0,0,0,0,0
				c0,0,0,0,0,0c0.1,0,0.1,0.1,0.2,0.1c0,0,0,0,0,0l0,0.1l0,0.1c0,0,0,0,0,0.1C8.9,26.9,8.9,26.9,8.9,27.1C8.9,27,8.9,27.1,8.9,27.1
				z M9,24.6c0,0.1,0,0.1-0.1,0.2c0,0,0,0,0,0c0,0,0,0,0,0c0,0,0,0,0,0l-0.2,0h0l-0.1-0.1l0,0l-0.1-0.2c0,0,0,0,0,0l0-0.1
				c0-0.1,0-0.1,0-0.2v-0.1c0-0.1,0-0.1,0.1-0.2c0,0,0,0,0,0c0,0,0,0,0,0l0,0c0,0,0,0,0,0C8.7,24,8.7,24,8.8,24.1c0,0,0,0,0,0l0,0.1
				c0,0,0,0,0,0c0,0.2,0,0.2,0,0.3V24.6C9,24.6,9,24.6,9,24.6C9,24.6,9,24.6,9,24.6z M9.1,22.9c0,0.2,0,0.2-0.1,0.5c0,0,0,0,0,0
				L9,23.6c0,0,0,0,0,0c0,0-0.1,0-0.1,0c0,0,0,0,0,0c-0.2-0.1-0.2-0.1-0.3-0.2c0,0,0,0,0,0c0,0-0.1-0.1-0.1-0.1c0,0,0,0,0-0.1l0-0.2
				c0,0,0,0,0,0c0-0.2,0-0.2,0-0.5c0,0,0,0,0,0c0,0,0,0,0,0l0.1-0.1l0-0.1c0,0,0,0,0,0c0.1,0.1,0.1,0.1,0.3,0.2c0,0,0,0,0,0
				c0,0,0,0,0,0.1c0,0,0,0,0,0.1L9.1,22.9C9.1,22.9,9.1,22.9,9.1,22.9z M9.1,22.4C9.1,22.4,9,22.4,9.1,22.4
				c-0.3-0.1-0.3-0.1-0.5-0.2c0,0,0,0,0,0c0,0,0-0.1,0-0.1l0-0.1c0,0,0,0,0,0v-0.4c0,0,0,0,0,0c0,0,0,0,0-0.1c0,0,0,0,0,0
				c0-0.1,0-0.1,0.1-0.2c0,0,0,0,0,0c0,0,0,0,0.1-0.1c0,0,0,0,0.1-0.1c0,0,0,0,0,0c0.1,0,0.1,0,0.2,0h0c0,0,0.1,0,0.1,0c0,0,0,0,0,0
				c0.1,0.1,0.1,0.1,0.1,0.2c0,0,0,0,0,0c0,0,0,0.1,0,0.1l0,0.1c0,0,0,0,0,0c0,0.1,0,0.1,0,0.3l0,0c0,0,0,0,0,0.1c0,0,0,0,0,0
				C9.3,22,9.3,22,9.2,22.2c0,0,0,0,0,0L9.1,22.4L9.1,22.4z M9.2,26.2v-0.4c0,0,0,0,0,0c0,0,0,0,0,0l0,0c0,0,0,0,0,0
				c0.2,0.1,0.2,0.1,0.3,0.2c0,0,0,0,0,0l0,0.1l0,0.1c0,0,0,0,0,0.1c0,0.2,0,0.2,0,0.4c0,0,0,0,0,0c0,0,0,0,0,0c0,0,0,0,0,0
				c0,0,0,0,0,0c-0.2-0.1-0.2-0.1-0.3-0.2c0,0,0,0,0,0c0,0,0,0,0-0.1C9.2,26.3,9.2,26.3,9.2,26.2C9.2,26.2,9.2,26.2,9.2,26.2z
				 M9.3,27.4l-0.1-0.2c0,0,0,0,0,0c0-0.1,0-0.1,0-0.1c0,0,0,0,0,0c0,0,0-0.1,0-0.1c0,0,0,0,0,0l0,0c0,0,0,0,0,0c0,0,0.1,0,0.1,0
				c0,0,0,0,0,0c0,0,0.1,0,0.1,0.1c0,0,0,0,0,0c0.1,0.1,0.1,0.1,0.1,0.1c0,0,0,0,0,0l0,0.1c0,0,0,0,0,0.1c0,0.2,0,0.2,0,0.4
				c0,0,0,0,0,0l0,0l0,0l-0.1,0c0,0,0,0,0,0c0,0-0.1,0-0.1-0.1c0,0,0,0,0,0c0,0-0.1-0.1-0.1-0.2l0,0L9.3,27.4z M9.8,28.6
				c0,0,0,0.1,0,0.1c0,0,0,0,0,0l-0.1-0.1c0,0,0,0,0,0c0,0,0,0,0,0l-0.1-0.1c0,0,0,0,0,0l-0.1-0.1c0,0,0,0,0,0c0,0,0-0.1,0-0.1
				c0,0,0,0,0,0l0,0l0-0.1c0,0,0,0,0,0c0,0,0,0,0.1,0c0,0,0,0,0,0l0.1,0.1c0,0,0,0,0,0c0,0.1,0,0.1,0.1,0.1c0,0,0,0,0,0
				C9.8,28.4,9.8,28.4,9.8,28.6C9.8,28.5,9.8,28.5,9.8,28.6C9.8,28.5,9.8,28.6,9.8,28.6C9.8,28.6,9.8,28.6,9.8,28.6z M9.9,25.3
				L9.9,25.3c-0.1,0.1-0.1,0.1-0.1,0.1l-0.1,0c0,0,0,0,0,0c-0.2-0.1-0.2-0.1-0.3-0.2c0,0,0,0,0,0l0-0.1l-0.1-0.1c0,0,0,0,0-0.1
				c0,0,0,0,0-0.1c0-0.2,0-0.2,0-0.5c0,0,0,0,0,0l0.1,0c0,0,0,0,0.1-0.1l0.1,0c0,0,0,0,0,0h0h0c0.2,0.1,0.2,0.1,0.4,0.2c0,0,0,0,0,0
				c0,0.1,0,0.1,0,0.1c0,0,0,0.1,0.1,0.1l0,0.1c0,0,0,0,0,0.1C9.9,25.1,9.9,25.1,9.9,25.3z M10,24C10,24,10,24.1,10,24L10,24
				c-0.1,0.1-0.1,0.1-0.1,0.1l0,0H9.6c0,0,0,0,0,0l-0.1,0c0,0,0,0,0,0C9.4,24,9.4,24,9.4,23.9c0,0,0,0,0,0c0-0.1,0-0.1,0-0.1
				c0,0,0-0.1,0-0.1c0,0,0,0,0,0l0-0.3c0,0,0,0,0,0c0,0,0,0,0-0.1c0,0,0,0,0,0c0-0.1,0-0.1,0.1-0.2v0l0.1-0.1c0,0,0,0,0,0
				c0,0,0.1,0,0.1,0c0,0,0,0,0,0c0.2,0.1,0.2,0.1,0.3,0.2c0,0,0,0,0,0l0.1,0.1c0,0,0,0,0,0l0,0.2l0.1,0.3v0c0,0,0,0,0,0.1
				c0,0,0,0,0,0L10,24C10,24,10,24,10,24z M10.1,28C10.1,28,10.1,28,10.1,28c0-0.3,0-0.3,0-0.5c0,0,0,0,0,0l0.1,0c0,0,0,0,0,0
				c0,0,0,0,0,0c0.2,0.1,0.2,0.1,0.3,0.2c0,0,0,0,0,0c0.1,0.1,0.1,0.1,0.1,0.1c0,0,0,0,0,0l0.1,0.1c0,0,0,0,0,0c0,0.2,0,0.2,0,0.4
				c0,0,0,0,0,0l0,0l0,0h0c-0.2-0.1-0.2-0.1-0.4-0.2c0,0,0,0,0,0L10.1,28L10.1,28z M10.4,29.2L10.3,29c0,0,0,0,0-0.1
				c0-0.1,0-0.1,0-0.2c0,0,0,0,0,0l0,0l0,0c0,0,0,0,0,0c0,0,0,0,0,0l0.2,0.1c0,0,0,0,0,0c0,0,0,0,0.1,0.1l0.1,0.1c0,0,0,0,0,0.1
				c0,0.1,0,0.1,0,0.2c0,0,0,0,0,0l0,0c0,0,0,0,0,0c0,0,0,0,0,0C10.5,29.3,10.5,29.3,10.4,29.2C10.4,29.2,10.4,29.2,10.4,29.2z
				 M10.8,30.2C10.8,30.2,10.8,30.2,10.8,30.2L10.8,30.2C10.8,30.2,10.8,30.2,10.8,30.2C10.8,30.2,10.8,30.2,10.8,30.2
				c-0.1,0-0.1,0-0.1,0c0,0-0.1,0-0.1-0.1c0,0,0,0,0,0l0-0.1L10.5,30c0,0,0,0,0,0c0,0,0-0.1,0-0.1c0,0,0,0,0,0c0,0,0,0,0,0
				c0,0,0,0,0,0c0.1,0,0.1,0,0.1,0.1c0,0,0,0,0,0l0.1,0.1l0.1,0.1c0,0,0,0,0,0C10.8,30.1,10.8,30.1,10.8,30.2
				C10.8,30.2,10.8,30.2,10.8,30.2z M10.9,27.1C10.9,27.1,10.9,27.1,10.9,27.1l-0.1,0.1l0,0l-0.1,0l0,0l-0.1,0c0,0,0,0,0,0
				c-0.1-0.1-0.1-0.1-0.3-0.1c0,0,0,0,0,0L10.2,27c0,0,0,0,0,0l0-0.1c0,0,0,0,0,0c0-0.1,0-0.1-0.1-0.2c0,0,0,0,0,0
				c0-0.1,0-0.2,0-0.3c0,0,0,0,0,0c0,0,0-0.1,0.1-0.1l0,0c0,0,0,0,0.1,0l0,0c0,0,0.1,0,0.1,0c0,0,0,0,0,0c0.1,0.1,0.1,0.1,0.3,0.1
				c0,0,0,0,0,0l0.1,0.1c0,0,0,0,0,0l0.1,0.1c0,0,0,0,0,0c0,0.1,0,0.1,0.1,0.2c0,0,0,0,0,0C10.9,26.9,10.9,26.9,10.9,27.1L10.9,27.1
				z M11.1,25.3c0,0.3,0,0.3-0.1,0.6L10.9,26c0,0,0,0-0.1,0c0,0,0,0,0,0c-0.3-0.1-0.3-0.1-0.5-0.3c0,0,0,0,0,0c0,0,0,0-0.1-0.1
				l0-0.1c0,0,0,0,0-0.1c0-0.3,0-0.3,0.1-0.7c0,0,0,0,0-0.1l0.1,0l0.1,0c0,0,0,0,0,0l0.5,0.2c0,0,0,0,0,0L11,25c0,0,0,0,0,0.1
				L11.1,25.3C11.1,25.3,11.1,25.3,11.1,25.3z M11.8,30.9C11.8,30.9,11.8,30.9,11.8,30.9C11.8,30.9,11.8,30.9,11.8,30.9l-0.3-0.1
				c0,0,0,0,0,0l0-0.1c0,0,0,0,0,0c0-0.1,0-0.1,0-0.2l0,0c0,0,0,0,0,0l0.3,0.2c0,0,0,0,0,0l0,0.1c0,0,0,0,0,0.1
				C11.8,30.7,11.8,30.8,11.8,30.9C11.8,30.9,11.8,30.9,11.8,30.9z M11.8,30L11.8,30c-0.1,0-0.1,0-0.1,0c0,0,0,0,0,0
				c-0.2-0.1-0.2-0.1-0.3-0.2c0,0,0,0,0,0l0,0c0,0,0,0,0-0.1c0,0,0,0,0-0.1c0-0.2,0-0.2,0-0.4c0,0,0,0,0,0c0,0,0,0,0,0c0,0,0,0,0,0
				c0.2,0.1,0.2,0.1,0.4,0.2c0,0,0,0,0,0l0,0.1c0,0,0,0,0,0.1C11.8,29.8,11.8,29.8,11.8,30C11.8,29.9,11.8,29.9,11.8,30z M11.9,28.9
				C11.9,28.9,11.9,28.9,11.9,28.9L11.8,29c0,0,0,0-0.1,0c-0.2-0.1-0.2-0.1-0.4-0.2c0,0,0,0,0,0l-0.1-0.1l-0.1-0.1c0,0,0,0,0-0.1
				c0-0.2,0-0.2,0-0.4c0,0,0,0,0,0l0.1,0c0,0,0,0,0.1,0c0,0,0,0,0,0l0.4,0.2c0,0,0,0,0,0l0.1,0.1c0,0,0,0,0.1,0.1c0,0,0,0,0,0
				C11.9,28.7,11.9,28.7,11.9,28.9z M12.1,27.3c0,0,0,0.2,0,0.3c0,0,0,0,0,0L12,27.8c0,0,0,0,0,0l-0.1,0c0,0,0,0,0,0l-0.1,0
				c0,0,0,0,0,0c-0.2-0.1-0.2-0.1-0.4-0.2c0,0,0,0,0,0l-0.1-0.1l-0.1-0.1l0-0.1c0,0,0,0,0-0.1c0-0.2,0-0.2,0-0.5c0,0,0,0,0,0l0.1,0
				c0,0,0.1,0,0.1-0.1l0.1,0c0,0,0,0,0,0c0.2,0.1,0.2,0.1,0.4,0.2c0,0,0,0,0,0c0.1,0.1,0.1,0.1,0.1,0.1c0,0,0,0,0,0l0.1,0.1
				c0,0,0,0,0,0C12.1,27.2,12.1,27.2,12.1,27.3C12.1,27.3,12.1,27.3,12.1,27.3z M12.2,26.5L12.2,26.5C12.1,26.5,12.1,26.5,12.2,26.5
				L12.2,26.5L12,26.6c0,0,0,0,0,0c-0.2,0-0.2,0-0.3,0c0,0,0,0,0,0c0,0,0,0-0.1,0c0,0,0,0,0,0l-0.2-0.2c0,0,0,0,0,0l-0.1-0.1
				l-0.1-0.1c0,0,0,0,0,0c0-0.1,0-0.1,0-0.3c0,0,0,0,0,0c0-0.1,0-0.1,0-0.2c0,0,0,0,0,0c0.1-0.1,0.1-0.1,0.1-0.2c0,0,0,0,0,0
				l0.1-0.1c0,0,0,0,0.1,0c0,0,0,0,0.1,0c0.3,0.1,0.3,0.1,0.5,0.2c0,0,0,0,0,0c0.1,0.1,0.1,0.1,0.1,0.1c0,0,0,0,0,0l0,0.2
				c0,0,0,0,0,0C12.2,26.1,12.2,26.1,12.2,26.5C12.2,26.5,12.2,26.5,12.2,26.5z M12.9,31.4L12.9,31.4L12.9,31.4L12.9,31.4
				c-0.1,0.1-0.1,0.1-0.1,0.1l-0.3-0.2c0,0,0,0-0.1,0l0,0c0,0,0,0,0-0.1c0-0.1,0-0.1,0-0.3c0,0,0,0,0,0c0.1,0,0.1,0,0.1,0
				c0,0,0,0,0,0l0.1,0.1c0,0,0,0,0,0l0.1,0.1c0,0,0,0,0,0c0,0.1,0,0.1,0.1,0.1C12.9,31.3,12.9,31.3,12.9,31.4
				C12.9,31.3,12.9,31.4,12.9,31.4z M13,30.2c0,0.1,0,0.2,0,0.2l0,0c0,0,0,0,0,0l-0.1,0c0,0-0.1,0-0.1,0c0,0,0,0-0.1,0c0,0,0,0,0,0
				l-0.2-0.1l0,0l-0.1-0.1l0,0c0-0.1,0-0.1-0.1-0.1l0,0c0-0.1,0-0.1-0.1-0.2l0,0c0,0,0-0.1,0-0.1c0,0,0,0,0,0l0.1-0.1l0,0l0.1,0h0
				l0.1,0c0,0,0,0,0,0c0.1,0.1,0.1,0.1,0.2,0.1c0,0,0,0,0,0l0.1,0.1c0,0,0,0,0,0.1C13,30.1,13,30.2,13,30.2C13,30.2,13,30.2,13,30.2
				z M13.2,29.4L13.2,29.4c0,0.1-0.1,0.1-0.1,0.2l0,0l-0.1,0c0,0,0,0,0,0c-0.1,0-0.1,0-0.2,0c0,0,0,0,0,0c0,0,0,0-0.1,0c0,0,0,0,0,0
				l-0.2-0.2c0,0,0,0,0,0l-0.1-0.1c0,0,0,0-0.1-0.1c0,0,0,0,0-0.1c0-0.2,0-0.2,0-0.4c0,0,0,0,0,0l0.1,0c0,0,0,0,0.1,0c0,0,0,0,0,0
				l0.2,0c0,0,0,0,0,0c0,0,0,0,0.1,0c0,0,0,0,0,0l0.2,0.2c0,0,0,0,0,0c0,0,0,0,0.1,0.1c0,0,0,0,0,0c0,0.1,0,0.1,0.1,0.3c0,0,0,0,0,0
				C13.2,29.3,13.2,29.3,13.2,29.4C13.2,29.3,13.2,29.3,13.2,29.4z M13.4,27.7c0,0.3,0,0.3-0.1,0.5c0,0,0,0,0,0l-0.1,0.1
				c0,0,0,0,0,0c-0.1,0-0.1,0-0.1,0h0c-0.2-0.1-0.2-0.1-0.5-0.2c0,0,0,0,0,0L12.4,28c0-0.1,0-0.1-0.1-0.1l-0.1-0.1c0,0,0,0,0-0.1
				c0-0.2,0-0.2,0-0.5c0,0,0,0,0,0l0.1,0c0,0,0.1,0,0.1-0.1l0.1,0c0,0,0,0,0.1,0c0.2,0.1,0.2,0.1,0.5,0.2l0,0
				c0.1,0.1,0.1,0.1,0.1,0.1c0,0,0,0,0,0.1C13.3,27.6,13.3,27.6,13.4,27.7C13.4,27.7,13.4,27.7,13.4,27.7z M13.3,27.1
				c-0.1,0-0.1,0-0.2,0c0,0,0,0,0,0c-0.2-0.1-0.2-0.1-0.4-0.2c0,0,0,0,0,0l-0.1-0.1c0,0,0,0,0,0l-0.1-0.1l-0.1-0.1c0,0,0,0,0,0
				c0-0.1,0-0.1-0.1-0.2c0,0,0,0,0,0c0-0.2,0-0.2,0.1-0.3c0,0,0,0,0,0l0,0c0,0,0.1-0.1,0.1-0.1c0,0,0,0,0,0c0,0,0.1,0,0.1-0.1
				c0,0,0.1,0,0.1-0.1l0,0l0.2,0c0,0,0,0,0,0c0.2,0.1,0.2,0.1,0.4,0.1c0,0,0,0,0.1,0l0.1,0.1l0.1,0.1c0,0.1,0,0.1,0.1,0.1l0.1,0.1
				c0,0,0,0,0,0.1c0,0.3,0,0.3-0.1,0.5c0,0,0,0,0,0c0,0-0.1,0.1-0.1,0.1l0,0C13.4,27.1,13.4,27.1,13.3,27.1
				C13.4,27.1,13.4,27.1,13.3,27.1z M14.2,31.8c0,0.1,0,0.1,0,0.2l0,0l0,0c0,0,0,0,0,0c0,0,0,0-0.1,0l-0.1,0c0,0,0,0,0,0l-0.3-0.1
				c0,0,0,0,0,0c0,0,0,0-0.1-0.1s0,0-0.1-0.1c0,0,0,0,0-0.1c0-0.1,0-0.1,0-0.2c0,0,0,0,0,0c0,0,0,0,0,0h0c0,0,0,0,0,0l0.1,0
				c0,0,0,0,0.1,0c0,0,0,0,0.1,0c0.1,0.1,0.1,0.1,0.3,0.1c0,0,0,0,0,0c0,0,0,0,0.1,0.1C14.1,31.7,14.1,31.7,14.2,31.8
				C14.2,31.8,14.2,31.8,14.2,31.8z M14.3,30.8c0,0,0,0.1,0,0.3l0,0c0,0,0,0.1-0.1,0.1c0,0,0,0,0,0c0,0-0.1,0-0.1,0l0,0c0,0,0,0,0,0
				L13.7,31c0,0,0,0,0,0l-0.1-0.1c0,0,0,0,0,0c0,0,0-0.1-0.1-0.1c0,0,0,0,0,0c0-0.1,0-0.2,0-0.3c0,0,0,0,0,0l0.1-0.1c0,0,0,0,0,0
				c0,0,0.1,0,0.1,0h0l0.3,0.1c0,0,0,0,0,0l0.1,0.1c0,0,0,0,0,0C14.3,30.6,14.3,30.7,14.3,30.8C14.3,30.8,14.4,30.8,14.3,30.8z
				 M14.5,29.9C14.5,30,14.5,30,14.5,29.9c0,0.1-0.1,0.1-0.1,0.1l0,0l-0.1,0c0,0,0,0,0,0l-0.2,0c0,0,0,0,0,0L13.8,30c0,0,0,0,0,0
				l-0.2-0.1c0,0,0,0,0,0l-0.1-0.1c0,0,0,0,0,0c0-0.1,0-0.1-0.1-0.2c0,0,0,0,0,0c0-0.1,0-0.1,0-0.3c0,0,0,0,0,0c0,0,0.1-0.1,0.1-0.1
				c0,0,0,0,0,0l0.1,0c0,0,0,0,0,0l0.2,0c0,0,0,0,0,0c0.2,0.1,0.2,0.1,0.3,0.1c0,0,0,0,0,0l0.2,0.1c0,0,0,0,0,0c0,0,0,0.1,0.1,0.1
				c0,0,0,0,0,0c0,0.1,0,0.1,0.1,0.2c0,0,0,0,0,0C14.6,29.7,14.6,29.8,14.5,29.9L14.5,29.9z M14.7,28.9L14.7,28.9
				C14.6,28.9,14.6,28.9,14.7,28.9c-0.1,0-0.1,0.1-0.2,0.1c0,0,0,0-0.1,0c-0.3-0.1-0.3-0.1-0.7-0.3c0,0,0,0-0.1,0l-0.1-0.1l-0.1-0.1
				c0,0,0,0,0-0.1c0-0.3,0-0.3,0.1-0.6c0,0,0,0,0,0c0,0,0.1-0.1,0.1-0.1c0,0,0,0,0,0l0.2,0c0,0,0,0,0,0c0.3,0.1,0.3,0.1,0.6,0.2
				c0,0,0,0,0.1,0c0,0,0,0,0.1,0.1l0.1,0.1c0,0,0,0,0,0.1C14.8,28.5,14.8,28.5,14.7,28.9C14.7,28.8,14.7,28.9,14.7,28.9z M15.5,32.6
				L15.5,32.6L15.5,32.6l-0.1,0c0,0,0,0-0.1,0c-0.1-0.1-0.1-0.1-0.3-0.1c0,0,0,0,0,0c0,0,0,0-0.1-0.1c0,0,0,0-0.1-0.1c0,0,0,0,0,0
				c0-0.1,0-0.1,0-0.2c0,0,0,0,0,0c0,0,0,0,0.1,0l0.1,0c0,0,0,0,0.1,0c0.1,0.1,0.1,0.1,0.3,0.1c0,0,0,0,0.1,0c0,0,0,0.1,0.1,0.1
				c0,0,0,0,0.1,0.1c0,0,0,0,0,0L15.5,32.6C15.5,32.5,15.5,32.6,15.5,32.6z M15.7,31.6C15.7,31.7,15.7,31.7,15.7,31.6l-0.1,0.1
				c0,0-0.1,0-0.1,0l0,0c0,0,0,0-0.1,0L15,31.5c0,0,0,0-0.1,0l-0.1-0.1l-0.1-0.1c0,0,0,0,0-0.1c0-0.2,0-0.2,0-0.4c0,0,0,0,0,0l0.1,0
				l0.1,0c0,0,0,0,0.1,0c0.2,0.1,0.2,0.1,0.5,0.2c0,0,0,0,0.1,0c0,0,0,0.1,0.1,0.1c0,0,0.1,0,0.1,0.1C15.7,31.4,15.7,31.4,15.7,31.6
				z M16,30.2c0,0.2,0,0.2-0.1,0.3l0,0c0,0,0,0,0,0c0,0-0.1,0.1-0.1,0.1c0,0,0,0,0,0c0,0-0.1,0-0.1,0c0,0,0,0,0,0l-0.2,0
				c0,0,0,0,0,0l-0.3-0.1c0,0,0,0,0,0L15,30.4c0,0,0,0,0,0c0,0,0,0-0.1-0.1c0,0,0,0,0,0c0-0.1,0-0.1-0.1-0.2c0,0,0,0,0,0
				c0-0.1,0-0.1,0-0.3c0,0,0,0,0,0c0,0,0.1-0.1,0.1-0.1l0,0c0,0,0.1,0,0.1,0c0,0,0,0,0,0l0.2,0c0,0,0,0,0,0l0.4,0.1c0,0,0,0,0,0
				l0.2,0.1c0,0,0,0,0,0l0.1,0.1c0,0,0,0,0,0C16,30,16,30,16,30.2C16,30.1,16,30.1,16,30.2z M16,29.5C16,29.5,16,29.5,16,29.5
				c-0.1,0-0.2,0-0.3,0h0c-0.1,0-0.1,0-0.2-0.1c0,0,0,0,0,0c-0.1-0.1-0.1-0.1-0.3-0.2c0,0,0,0,0,0c0,0,0-0.1-0.1-0.1
				c0,0,0-0.1-0.1-0.1c0,0,0,0,0-0.1c0.1-0.3,0.1-0.3,0.1-0.7c0,0,0,0,0,0c0,0,0.1,0,0.1,0l0.1,0c0,0,0,0,0.1,0l0.7,0.2
				c0,0,0,0,0.1,0l0.1,0.1c0,0,0,0,0.1,0.1c0,0,0,0,0,0c0,0.1,0,0.1,0,0.3c0,0,0,0,0,0c0,0.1,0,0.1,0,0.2l0,0c0,0.1-0.1,0.1-0.1,0.2
				c0,0,0,0,0,0c0,0-0.1,0-0.1,0.1L16,29.5z M16.9,32.7L16.9,32.7c0,0.1,0,0.2,0,0.3c0,0,0,0,0,0c0,0-0.1,0-0.1,0c0,0-0.1,0-0.1,0
				c0,0,0,0-0.1,0h0L16.3,33c0,0,0,0-0.1,0l-0.1-0.1c0,0,0,0-0.1-0.1c0,0,0,0,0,0c0-0.1,0-0.1,0-0.3c0,0,0,0,0,0c0,0,0,0,0.1,0
				c0,0,0,0,0.1,0c0.3,0.1,0.3,0.1,0.5,0.2C16.8,32.6,16.8,32.6,16.9,32.7C16.9,32.7,16.9,32.7,16.9,32.7
				C16.9,32.7,16.9,32.7,16.9,32.7z M17.2,31.7L17.2,31.7c0,0.2,0,0.2-0.1,0.4c0,0,0,0,0,0l-0.1,0c0,0-0.1,0-0.1,0c0,0,0,0-0.1,0h0
				c-0.3-0.1-0.3-0.1-0.5-0.2c0,0,0,0,0,0c0,0,0-0.1-0.1-0.1l-0.1-0.1c0,0,0,0,0,0c0-0.2,0-0.2,0.1-0.4c0,0,0,0,0,0c0,0,0.1,0,0.1,0
				c0,0,0.1,0,0.1,0c0,0,0,0,0.1,0l0.5,0.2c0,0,0,0,0.1,0l0.1,0.1C17.2,31.6,17.2,31.7,17.2,31.7C17.2,31.7,17.2,31.7,17.2,31.7z
				 M17.5,30.9c0,0-0.1,0.1-0.1,0.1v0c0,0,0,0,0,0l0,0l-0.1,0c0,0,0,0,0,0l-0.2,0c0,0,0,0,0,0L16.6,31c0,0,0,0,0,0l-0.2-0.1
				c0,0,0,0,0,0c0,0,0-0.1-0.1-0.1c0,0,0,0,0,0c0-0.1,0-0.1-0.1-0.2c0,0,0,0,0,0c0-0.1,0-0.1,0.1-0.3c0,0,0,0,0,0c0,0,0,0,0,0h0
				c0,0,0.1-0.1,0.1-0.1c0,0,0,0,0,0l0.1,0c0,0,0,0,0,0c0.1,0,0.1,0,0.2,0c0,0,0,0,0,0l0.4,0.1c0,0,0,0,0,0l0.2,0.1l0,0
				c0,0,0,0.1,0.1,0.1c0,0,0,0,0,0c0,0.1,0,0.1,0,0.2c0,0,0,0,0,0C17.5,30.8,17.5,30.8,17.5,30.9C17.5,30.9,17.5,30.9,17.5,30.9z
				 M18.3,33.4L18.3,33.4C18.3,33.4,18.3,33.4,18.3,33.4L18.3,33.4l-0.1,0c0,0-0.1,0-0.1,0c0,0,0,0-0.1,0l-0.4-0.1c0,0,0,0,0,0l0,0
				c0,0,0,0,0,0c0-0.1,0.1-0.2,0.1-0.3c0,0,0,0,0,0l0.1,0c0,0,0,0,0.1,0l0.5,0.1c0,0,0,0,0.1,0l0,0c0,0,0,0,0,0
				C18.3,33.2,18.3,33.3,18.3,33.4z M18.7,32.2l-0.1,0.4c0,0,0,0,0,0l-0.1,0c0,0-0.1,0-0.1,0c0,0,0,0-0.1,0l0,0
				c-0.3-0.1-0.3-0.1-0.5-0.1c0,0,0,0-0.1,0c0,0,0,0-0.1-0.1c0,0,0,0-0.1-0.1c0,0,0,0,0,0c0-0.2,0-0.2,0.1-0.4c0,0,0,0,0,0l0.1,0
				c0,0,0.1,0,0.1,0c0,0,0,0,0.1,0c0.3,0.1,0.3,0.1,0.5,0.1c0,0,0,0,0.1,0c0,0,0,0,0.1,0.1C18.6,32,18.7,32.1,18.7,32.2
				C18.7,32.1,18.7,32.1,18.7,32.2z M18.9,31.5l-0.1,0l0,0c-0.1,0-0.1,0-0.2,0l0,0c0,0,0,0,0,0l-0.4-0.1c0,0,0,0-0.1,0
				c0,0,0,0-0.1-0.1c0,0-0.1-0.1-0.1-0.1c0,0,0,0-0.1-0.1c0,0,0,0,0-0.1c0-0.2,0-0.2,0.1-0.4c0,0,0,0,0,0c0,0,0.1,0,0.1,0l0.1-0.1
				c0,0,0.1,0,0.1,0c0,0,0,0,0.1,0c0.2,0.1,0.2,0.1,0.5,0.1c0,0,0,0,0,0c0.1,0.1,0.1,0.1,0.2,0.1l0,0l0,0.1c0,0,0,0,0,0
				c0,0.1,0,0.1,0,0.2c0,0,0,0,0,0L19,31.3c0,0,0,0,0,0C19,31.4,18.9,31.5,18.9,31.5C18.9,31.5,18.9,31.5,18.9,31.5z M19.8,33.5
				c0,0.1,0,0.2-0.1,0.3c0,0,0,0,0,0c0,0-0.1,0-0.1,0l-0.1,0c0,0,0,0-0.1,0l-0.4-0.1c0,0,0,0-0.1,0c0,0,0,0,0,0c0,0,0,0,0,0
				c0-0.1,0.1-0.2,0.1-0.3c0,0,0,0,0,0c0,0,0,0,0.1,0c0,0,0,0,0.1,0c0.3,0.1,0.3,0.1,0.5,0.1C19.7,33.4,19.7,33.4,19.8,33.5
				L19.8,33.5C19.8,33.5,19.8,33.5,19.8,33.5z M20.1,32.8C20.1,32.8,20.1,32.9,20.1,32.8L20,33c0,0,0,0-0.1,0l-0.2,0c0,0,0,0,0,0
				l-0.4-0.1c0,0,0,0-0.1,0l-0.1-0.1l-0.1-0.1c0,0,0,0,0,0c0-0.2,0-0.2,0.1-0.4c0,0,0,0,0,0c0,0,0.1,0,0.1,0c0,0,0.1,0,0.1,0
				c0,0,0,0,0.1,0l0.4,0.1c0,0,0,0,0,0c0.1,0,0.1,0,0.1,0.1c0,0,0,0,0,0c0,0,0,0.1,0,0.1c0,0,0,0,0,0l0,0L20.1,32.8z M20.4,31.9
				L20.4,31.9c-0.1,0-0.1,0.1-0.1,0.1c-0.1,0-0.1,0-0.2,0l0,0c0,0,0,0,0,0l-0.5-0.1c0,0,0,0-0.1,0l-0.1-0.1l-0.1-0.1
				c0,0,0-0.1-0.1-0.1c0,0,0,0,0-0.1l0.1-0.4c0,0,0,0,0,0l0.1,0c0,0,0.1,0,0.1-0.1c0,0,0.1,0,0.1,0c0,0,0,0,0.1,0l0.5,0.1
				c0,0,0,0,0,0l0.2,0.1l0,0c0,0,0,0.1,0.1,0.1c0,0,0,0,0,0c0,0.1,0,0.1,0.1,0.2v0c0,0.1,0,0.1-0.1,0.3c0,0,0,0,0,0
				C20.5,31.8,20.4,31.8,20.4,31.9C20.4,31.9,20.4,31.9,20.4,31.9z M21.2,34C21.2,34,21.2,34,21.2,34c-0.1,0-0.1,0-0.1,0.1
				c-0.1,0-0.1,0-0.1,0c0,0-0.1,0-0.1,0c0,0,0,0-0.1,0l-0.2,0c0,0,0,0-0.1,0l0-0.1c0,0,0,0-0.1-0.1c0,0,0,0,0,0c0-0.1,0-0.1,0.1-0.2
				c0,0,0,0,0,0c0.1,0,0.1,0,0.2-0.1c0,0,0,0,0.1,0l0.3,0.1c0,0,0,0,0,0l0,0.1c0,0,0,0,0,0c0,0.1,0,0.1,0,0.1L21.2,34
				C21.2,33.9,21.2,34,21.2,34z M21.7,33c0,0,0,0.1,0,0.1c0,0,0,0,0,0l-0.1,0.1l0,0l0,0c0,0-0.1,0-0.1,0l-0.1,0c0,0,0,0-0.1,0
				l-0.4-0.1c0,0,0,0-0.1,0c0,0,0,0-0.1-0.1c0,0,0,0-0.1-0.1c0,0,0,0,0,0c0.1-0.2,0.1-0.2,0.1-0.4c0,0,0,0,0,0l0.1,0l0.1,0
				c0,0,0,0,0.1,0l0.4,0.1c0,0,0,0,0.1,0c0,0,0,0,0.1,0.1l0.1,0.1c0,0,0,0,0,0C21.7,32.8,21.7,32.9,21.7,33
				C21.7,32.9,21.7,33,21.7,33z M21.7,32.3L21.7,32.3l-0.2,0c0,0,0,0,0,0l-0.3-0.1c0,0,0,0,0,0L21,32.1c0,0,0,0,0,0L20.9,32
				c0,0,0,0,0,0c0-0.1,0-0.1,0-0.2c0,0,0,0,0,0l0,0c0-0.1,0-0.1,0.1-0.3c0,0,0,0,0,0l0.1-0.1c0,0,0,0,0,0l0.1,0l0,0l0.2,0
				c0,0,0,0,0,0l0.2,0l0.1,0c0,0,0,0,0,0c0.1,0,0.1,0.1,0.2,0.1c0,0,0,0,0,0l0.1,0.1l0.1,0.1c0,0,0,0,0,0.1c0,0.1-0.1,0.3-0.1,0.4
				c0,0,0,0,0,0l-0.1,0C21.8,32.2,21.8,32.2,21.7,32.3C21.7,32.3,21.7,32.3,21.7,32.3z M22.6,34.1L22.6,34.1
				C22.6,34.1,22.6,34.1,22.6,34.1c0,0,0,0.1-0.1,0.2c0,0,0,0,0,0c0,0-0.1,0-0.1,0c0,0-0.1,0-0.1,0c0,0,0,0-0.1,0
				c-0.1,0-0.1,0-0.2,0c0,0,0,0,0,0l-0.1-0.1c0,0,0,0,0,0l0-0.1c0,0,0,0,0,0c0-0.1,0-0.1,0.1-0.1c0,0,0,0,0.1,0c0,0,0.1,0,0.1,0
				c0,0,0.1,0,0.1,0c0,0,0,0,0.1,0c0.2,0,0.2,0,0.3,0c0,0,0,0,0,0L22.6,34.1L22.6,34.1C22.6,34,22.6,34.1,22.6,34.1z M23.1,33.1
				c-0.1,0.1-0.1,0.1-0.1,0.2c0,0,0,0,0,0l-0.1,0.1c0,0,0,0,0,0v0l-0.2,0c0,0,0,0,0,0c-0.2,0-0.2,0-0.3,0c0,0,0,0,0,0
				c0,0,0,0-0.1-0.1c0,0-0.1-0.1-0.1-0.1l-0.1-0.1c0,0,0,0,0,0c0-0.1,0-0.1,0.1-0.2c0,0,0,0,0,0c0,0,0.1-0.1,0.1-0.1c0,0,0,0,0,0
				c0.1,0,0.1,0,0.2,0c0,0,0,0,0,0l0.4,0.1c0,0,0,0,0,0c0,0,0.1,0,0.1,0.1c0,0,0,0,0,0C23.1,33,23.1,33,23.1,33.1L23.1,33.1z
				 M22.9,32.6L22.9,32.6L22.9,32.6l-0.1,0c-0.1-0.1-0.1-0.1-0.2-0.1c0,0,0,0,0,0c0-0.1-0.1-0.1-0.1-0.2c0,0,0,0,0-0.1l0,0
				c0.1-0.2,0.1-0.2,0.2-0.4c0,0,0,0,0,0l0.1,0c0.1,0,0.1,0,0.1-0.1h0c0,0,0,0,0,0l0.3,0h0c0,0,0,0,0.1,0c0,0,0,0,0,0
				c0.1,0.1,0.1,0.1,0.2,0.1c0,0,0,0,0,0l0.1,0.1c0,0,0,0,0,0c0,0.1,0,0.2,0,0.2c0,0,0,0,0,0c0,0,0,0.1-0.1,0.1c0,0,0,0,0,0
				c-0.1,0.1-0.1,0.1-0.2,0.2c0,0,0,0,0,0l-0.1,0c0,0,0,0,0,0L22.9,32.6z M23.8,34.4C23.8,34.4,23.7,34.4,23.8,34.4l-0.1,0.1
				c0,0,0,0-0.1,0l-0.3,0c0,0,0,0,0,0l0,0c0,0,0,0,0,0c0.1-0.1,0.1-0.1,0.1-0.2c0,0,0.1,0,0.1,0l0.4,0c0,0,0,0.1,0,0.1
				C23.8,34.2,23.8,34.3,23.8,34.4z M24.5,33.3l-0.1,0.1c0,0,0,0,0,0l-0.1,0.1l0,0l-0.1,0l0,0l-0.2,0c0,0,0,0,0,0c0,0,0,0-0.1,0h0
				c0,0,0,0,0,0c-0.1,0-0.2-0.1-0.2-0.1c0,0,0,0,0,0l0,0c0,0,0,0,0,0c0,0,0,0,0,0c0.1-0.2,0.1-0.2,0.2-0.4c0,0,0,0,0,0
				c0,0,0,0,0.1,0l0,0l0.2,0c0,0,0,0,0,0l0.2,0c0,0,0,0,0,0l0.1,0.1c0,0,0,0,0,0c0,0,0,0,0.1,0.1v0C24.4,33.3,24.4,33.3,24.5,33.3
				C24.5,33.3,24.5,33.3,24.5,33.3z M24,32.6C24,32.6,24,32.6,24,32.6l-0.1-0.1c0,0,0,0,0-0.1c0,0,0,0,0-0.1l0,0
				c0.1-0.2,0.1-0.2,0.2-0.4c0,0,0,0,0,0l0.1,0l0.1,0c0,0,0,0,0.1,0l0.5,0.1c0,0,0,0,0.1,0l0,0.1l0,0.1c0,0,0,0,0,0
				c-0.1,0.2-0.1,0.2-0.2,0.4c0,0,0,0,0,0c-0.1,0-0.1,0-0.1,0c0,0-0.1,0-0.1,0c0,0,0,0-0.1,0L24,32.6z M25.2,34.3
				c0,0-0.1,0.1-0.1,0.2c0,0,0,0,0,0l-0.1,0c0,0,0,0-0.1,0l-0.3,0c0,0,0,0,0,0c0,0,0,0,0,0c0,0,0,0,0,0c0-0.1,0.1-0.1,0.1-0.2
				c0,0,0,0,0,0c0,0,0,0,0.1,0c0,0,0,0,0.1,0L25.2,34.3C25.1,34.2,25.2,34.2,25.2,34.3C25.2,34.2,25.2,34.2,25.2,34.3
				C25.2,34.3,25.2,34.3,25.2,34.3L25.2,34.3z M25.8,33.4c-0.1,0.2-0.1,0.2-0.2,0.3c0,0,0,0,0,0c0,0,0,0-0.1,0c0,0,0,0-0.1,0
				c-0.2,0-0.2,0-0.5,0c0,0,0,0,0,0c0,0,0,0,0,0c0,0,0,0,0,0l0,0c0.1-0.2,0.1-0.2,0.2-0.3c0,0,0,0,0,0c0,0,0,0,0.1,0c0,0,0,0,0.1,0
				C25.5,33.2,25.5,33.2,25.8,33.4C25.8,33.3,25.8,33.3,25.8,33.4L25.8,33.4C25.8,33.3,25.8,33.3,25.8,33.4L25.8,33.4z M26.3,34.3
				c0,0-0.1,0.1-0.1,0.1c0,0-0.1,0-0.1,0c-0.1,0-0.1,0-0.2,0c0,0,0,0,0,0h0l0.1-0.1c0,0,0.1,0,0.1,0C26.2,34.2,26.2,34.2,26.3,34.3
				C26.3,34.2,26.3,34.3,26.3,34.3z M27.1,33.4L27.1,33.4C27,33.5,27,33.5,27,33.6c0,0,0,0,0,0l-0.1,0l-0.1,0.1c0,0,0,0-0.1,0h-0.3
				c0,0,0,0,0,0h0l0,0c0,0,0,0,0-0.1c0,0,0,0,0,0l0.1-0.2c0,0,0,0,0,0l0.1-0.1l0.1-0.1c0,0,0,0,0.1,0c0.2,0,0.2,0,0.3,0
				c0,0,0,0,0.1,0C27.1,33.3,27.1,33.3,27.1,33.4C27.1,33.4,27.1,33.4,27.1,33.4z M27.5,32.8l-0.1,0.1l-0.1,0c0,0,0,0-0.1,0
				c-0.1,0-0.1,0-0.3,0c0,0,0,0,0,0l0-0.1c0,0,0,0-0.1-0.1c0,0,0,0,0-0.1c0,0,0,0,0,0c0.1-0.1,0.1-0.1,0.1-0.2c0,0,0,0,0,0l0.1-0.1
				c0.1,0,0.1,0,0.1-0.1c0,0,0,0,0.1-0.1c0,0,0,0,0.1,0c0.1,0,0.1,0,0.3,0c0,0,0,0,0,0l0,0.1c0,0,0,0.1,0.1,0.1l0,0.1c0,0,0,0,0,0
				c0,0.1-0.1,0.2-0.1,0.2C27.6,32.7,27.6,32.7,27.5,32.8L27.5,32.8z M28.2,33.4c0,0.1-0.1,0.1-0.1,0.2c0,0,0,0,0,0l-0.1,0
				c0,0,0,0-0.1,0c-0.1,0-0.1,0-0.3,0c0,0,0,0,0,0l0,0c0,0,0,0,0,0c0.1-0.1,0.1-0.1,0.1-0.2c0,0,0,0,0,0l0.1,0c0,0,0,0,0.1,0
				C27.9,33.3,28,33.3,28.2,33.4C28.1,33.3,28.1,33.3,28.2,33.4C28.2,33.3,28.2,33.3,28.2,33.4C28.2,33.3,28.2,33.3,28.2,33.4
				L28.2,33.4z M28.6,32.7L28.6,32.7L28.6,32.7c-0.1,0-0.1,0-0.1,0c-0.2,0-0.2,0-0.4,0c0,0,0,0,0,0c0,0,0,0,0,0c0,0,0,0,0,0
				c0.1-0.2,0.1-0.2,0.2-0.4c0,0,0,0,0,0l0.1,0c0,0,0,0,0.1,0h0.4c0,0,0,0,0,0c0,0,0,0,0,0c0,0,0,0,0,0
				C28.8,32.5,28.8,32.5,28.6,32.7C28.6,32.7,28.6,32.7,28.6,32.7z M29.1,33.3L29,33.4c0,0-0.1,0-0.1,0.1l-0.2,0c0,0,0,0,0,0
				c0-0.1,0-0.1,0.1-0.1c0,0,0.1,0,0.1-0.1L29.1,33.3C29.1,33.2,29.1,33.3,29.1,33.3L29.1,33.3z M29.1,31.8
				C29.1,31.8,29,31.8,29.1,31.8l-0.5,0c0,0,0,0,0,0l0-0.1l0-0.1c0,0,0,0,0,0c0.1-0.2,0.1-0.2,0.2-0.4c0,0,0,0,0,0l0.1-0.1
				c0.1,0,0.1,0,0.1-0.1c0,0,0,0,0.1,0c0.2,0,0.2,0,0.4,0c0,0,0,0,0,0c0,0,0.1,0,0.1,0.1c0,0,0,0,0,0v0.1c0,0,0,0,0,0
				c-0.1,0.2-0.1,0.2-0.2,0.3c0,0,0,0,0,0L29.1,31.8L29.1,31.8z M29.9,32.3c-0.1,0.1-0.1,0.1-0.2,0.3c0,0,0,0-0.1,0.1l0,0l-0.2,0.1
				h0c0,0,0,0,0,0c0,0,0,0,0,0c0,0-0.1,0-0.1,0c0,0,0,0,0,0c0,0,0,0,0-0.1l0,0l0.1-0.1l0,0l0.1-0.1c0,0,0,0,0,0c0.1,0,0.1,0,0.1-0.1
				c0,0,0,0,0,0c0,0,0,0,0,0h0L29.9,32.3C29.9,32.3,29.9,32.3,29.9,32.3z M30.2,31.7c-0.2,0-0.2,0-0.4,0c0,0,0,0,0,0c0,0,0,0,0,0
				c0,0,0,0,0,0c0.1-0.2,0.1-0.2,0.2-0.4c0,0,0,0,0,0c0,0,0,0,0.1,0c0,0,0,0,0.1,0c0.2,0,0.2,0,0.4,0c0,0,0,0,0,0c0,0,0,0,0,0
				c0,0,0,0,0,0c-0.1,0.2-0.1,0.2-0.2,0.4c0,0,0,0,0,0L30.2,31.7C30.2,31.7,30.2,31.7,30.2,31.7L30.2,31.7z M30.7,32.3l-0.1,0.2
				c0,0,0,0,0,0l0,0c0,0,0,0-0.1,0l-0.1,0c0,0,0,0,0,0l0,0c0,0,0,0,0,0c0.1-0.1,0.1-0.1,0.1-0.2c0,0,0,0,0,0l0,0c0,0,0,0,0.1,0
				C30.6,32.2,30.6,32.2,30.7,32.3C30.7,32.2,30.7,32.2,30.7,32.3L30.7,32.3C30.7,32.2,30.7,32.2,30.7,32.3L30.7,32.3z M30.4,30.7
				L30.4,30.7C30.4,30.7,30.3,30.7,30.4,30.7L30.4,30.7l-0.1-0.1c0,0,0,0,0-0.1c0.1-0.2,0.1-0.2,0.2-0.4c0,0,0,0,0,0l0.1-0.1
				c0,0,0,0,0.1-0.1c0,0,0,0,0.1,0c0.2,0,0.2,0,0.3,0c0,0,0,0,0,0c0,0,0.1,0,0.1,0.1c0,0,0,0,0,0c0,0,0,0.1,0,0.1c0,0,0,0,0,0
				c-0.1,0.2-0.1,0.2-0.2,0.4c0,0,0,0,0,0l-0.1,0.1l-0.1,0.1c0,0,0,0,0,0C30.6,30.7,30.6,30.7,30.4,30.7z M31.4,31.3
				c-0.1,0.1-0.1,0.1-0.1,0.2c0,0,0,0,0,0l-0.1,0.1l-0.1,0.1c0,0,0,0-0.1,0l0,0c0,0-0.1,0-0.1,0l0,0h0c0,0,0,0-0.1,0l0,0
				c0,0,0-0.1,0-0.1l0,0c0,0,0-0.1,0.1-0.1c0,0,0,0,0,0l0.1-0.1c0,0,0,0,0,0l0.1-0.1l0,0l0.1,0c0,0,0,0,0,0L31.4,31.3
				C31.4,31.2,31.4,31.2,31.4,31.3C31.4,31.2,31.4,31.2,31.4,31.3z M31.6,30.6L31.6,30.6C31.6,30.6,31.6,30.6,31.6,30.6z M31.6,30.6
				c-0.1,0-0.1,0-0.2,0h0l-0.1-0.1l0,0l0-0.1c0,0,0,0,0,0c0,0,0-0.1,0-0.1c0,0,0,0,0,0c0,0,0,0,0-0.1c0,0,0,0,0,0l0.2-0.2
				c0,0,0,0,0,0l0.1-0.1c0,0,0,0,0,0c0.1,0,0.1,0,0.1-0.1c0,0,0,0,0,0l0.2,0l0,0c0,0,0,0,0,0.1c0,0,0,0,0,0.1l0,0l0,0.1c0,0,0,0,0,0
				c-0.1,0.1-0.1,0.1-0.1,0.3c0,0,0,0,0,0l-0.1,0.1c0,0,0,0,0,0C31.7,30.6,31.7,30.6,31.6,30.6C31.6,30.6,31.6,30.6,31.6,30.6z
				 M32.2,31.1C32.1,31.1,32.1,31.1,32.2,31.1L32.2,31.1c-0.1,0.1-0.1,0.1-0.2,0.2c0,0,0,0,0,0l0,0c0,0,0,0,0,0c-0.1,0-0.1,0-0.2,0
				c0,0,0,0,0,0c0,0,0,0,0,0c0,0,0,0,0,0c0.1-0.1,0.1-0.1,0.1-0.2c0,0,0,0,0,0l0.1,0c0,0,0,0,0,0L32.2,31.1
				C32.2,31,32.2,31,32.2,31.1C32.1,31,32.2,31,32.2,31.1z M31.9,29.5L31.9,29.5C31.9,29.5,31.9,29.5,31.9,29.5
				C31.9,29.4,31.9,29.4,31.9,29.5l-0.1-0.1c0,0,0,0,0-0.1c0.1-0.2,0.1-0.2,0.2-0.4c0,0,0,0,0,0l0.1-0.1l0.1-0.1c0,0,0,0,0.1-0.1
				c0,0,0,0,0,0c0.1,0,0.2,0,0.3,0c0,0,0,0,0,0c0,0,0,0,0,0.1c0,0,0,0,0,0.1c0,0,0,0,0,0.1c-0.1,0.2-0.1,0.2-0.2,0.4c0,0,0,0,0,0
				c0,0,0,0-0.1,0.1c0,0,0,0-0.1,0.1c0,0,0,0,0,0C32.1,29.5,32.1,29.5,31.9,29.5z M32.8,30.1c-0.1,0.1-0.1,0.1-0.1,0.2c0,0,0,0,0,0
				l-0.1,0.1l-0.1,0.1c0,0,0,0,0,0l-0.2,0l0,0l0,0c0,0,0,0,0,0c0,0,0,0,0,0c0.1-0.1,0.1-0.1,0.1-0.2c0,0,0,0,0-0.1l0.1-0.1
				c0,0,0,0,0.1-0.1c0,0,0,0,0,0c0.1,0,0.1,0,0.2,0c0,0,0,0,0,0C32.8,29.9,32.8,29.9,32.8,30.1L32.8,30.1C32.8,30,32.8,30,32.8,30.1
				L32.8,30.1z M33.4,29.9c-0.1,0.1-0.1,0.1-0.1,0.2c0,0,0,0,0,0l0,0c0,0,0,0,0,0c-0.1,0-0.1,0-0.1,0l0,0l0,0c0,0,0,0,0,0l0,0
				l0.1-0.2c0,0,0,0,0,0l0,0c0,0,0,0,0,0C33.3,29.9,33.3,29.8,33.4,29.9C33.4,29.8,33.4,29.8,33.4,29.9
				C33.4,29.9,33.4,29.8,33.4,29.9L33.4,29.9C33.4,29.9,33.4,29.9,33.4,29.9z M33.4,29L33.4,29l-0.1,0.2l0,0
				c-0.1,0.1-0.1,0.1-0.1,0.1c0,0,0,0,0,0L33,29.4c0,0,0,0,0,0c-0.1,0-0.1,0-0.2,0l0,0c0,0,0,0,0-0.1c0,0,0,0,0-0.1c0,0,0,0,0-0.1
				c0,0,0,0,0,0c0-0.1,0-0.1,0.1-0.2c0,0,0,0,0,0l0.1-0.2l0,0l0.1-0.1c0,0,0,0,0,0l0.2-0.1c0,0,0,0,0,0c0,0,0,0,0,0l0,0
				c0,0,0,0,0.1,0.1v0c0,0,0,0.1,0,0.1C33.4,28.8,33.4,28.9,33.4,29z M34,28.9C34,28.9,34,28.9,34,28.9c-0.1,0.1-0.1,0.1-0.1,0.2
				c0,0,0,0,0,0l-0.1,0.1l-0.1,0.1c0,0,0,0,0,0c0,0-0.1,0-0.1,0l0,0c0,0,0,0,0-0.1l0,0c0,0,0,0,0-0.1c0,0,0,0,0,0
				c0-0.1,0-0.1,0.1-0.2c0,0,0,0,0,0l0.1-0.1c0,0,0,0,0,0l0.1-0.1c0,0,0,0,0,0c0,0,0,0,0.1,0l0,0c0,0,0,0,0,0.1c0,0,0,0,0,0l0,0
				L34,28.9z M34.5,27.7L34.5,27.7c-0.1,0.2-0.1,0.2-0.2,0.4c0,0,0,0,0,0l0,0c0,0,0,0,0,0c-0.1,0-0.1,0-0.2,0c0,0,0,0,0,0v0l0,0
				c0,0,0,0,0-0.1l0.2-0.4c0,0,0,0,0,0l0,0c0,0,0,0,0,0L34.5,27.7C34.5,27.6,34.5,27.6,34.5,27.7C34.5,27.6,34.5,27.6,34.5,27.7
				C34.5,27.6,34.5,27.7,34.5,27.7z M35,26.5c-0.1,0.2-0.1,0.2-0.2,0.4l0,0c0,0,0,0,0,0L34.8,27c0,0,0,0,0,0.1c0,0,0,0,0,0
				c-0.1,0-0.1,0-0.2,0l0,0c0,0,0,0,0-0.1c0,0,0,0,0,0l0,0c0,0,0-0.1,0-0.1c0,0,0,0,0,0c0.1-0.2,0.1-0.2,0.1-0.4c0,0,0,0,0-0.1
				c0,0,0,0,0.1-0.1c0,0,0,0,0-0.1c0,0,0,0,0,0c0.1,0,0.1,0,0.2,0c0,0,0,0,0,0l0,0.1L35,26.5C35,26.4,35,26.4,35,26.5z M35.4,25.2
				c-0.1,0.2-0.1,0.2-0.1,0.5c0,0,0,0,0,0.1c0,0,0,0,0,0.1c0,0,0,0,0,0.1c0,0,0,0,0,0l-0.2,0c0,0,0,0,0,0l0-0.1c0,0,0-0.1,0-0.1
				c0,0,0,0,0-0.1c0.1-0.2,0.1-0.2,0.1-0.5c0,0,0,0,0-0.1c0,0,0,0,0-0.1c0,0,0,0,0-0.1c0,0,0,0,0,0c0.1,0,0.1,0,0.2,0c0,0,0,0,0,0
				c0,0,0,0,0,0.1C35.4,25.1,35.4,25.1,35.4,25.2C35.4,25.2,35.4,25.2,35.4,25.2z M35.8,23.8c0,0,0,0.1,0,0.2c0,0,0,0,0,0l-0.1,0.4
				c0,0,0,0,0,0.1c0,0,0,0,0,0.1l-0.1,0.1l0,0c0,0,0,0,0,0l-0.2,0c0,0,0,0,0,0l0-0.1c0,0,0,0,0,0c0,0-0.1-0.1-0.1-0.1v-0.2
				c0,0,0,0,0,0c0-0.2,0-0.2,0.1-0.3c0,0,0,0,0,0c0-0.1,0-0.1,0.1-0.2l0,0c0,0,0,0,0-0.1c0,0,0,0,0,0l0.1,0c0,0,0,0,0,0h0l0.1,0.1
				c0,0,0,0,0,0l0,0.1L35.8,23.8L35.8,23.8L35.8,23.8z M36,22.7c0,0.2,0,0.2-0.1,0.5c0,0,0,0,0,0l0,0.1l0,0.1l0,0.1c0,0,0,0,0,0
				c-0.1,0-0.1-0.1-0.2-0.1h0c0,0,0,0,0,0l0-0.1c0,0,0-0.1,0-0.1l0-0.1c0,0,0,0,0-0.1c0-0.2,0-0.2,0.1-0.5c0,0,0,0,0-0.1l0-0.1
				c0,0,0,0,0.1-0.1l0-0.1c0,0,0,0,0,0c0.1,0,0.1,0,0.2,0.1c0,0,0,0,0,0c0,0,0,0,0,0.1s0,0,0,0.1C36,22.6,36,22.6,36,22.7
				C36,22.6,36,22.6,36,22.7z M36.1,21.3c0,0.2,0,0.2,0,0.5c0,0,0,0,0,0c0,0.1,0,0.1,0,0.1c0,0,0,0,0,0c0,0,0,0-0.1,0v0h0
				c-0.1,0-0.1-0.1-0.2-0.1c0,0,0,0,0,0c0,0,0-0.1,0-0.1c0,0,0,0,0,0c0-0.1,0-0.1,0-0.2c0,0,0,0,0,0c0-0.2,0-0.2,0.1-0.5
				c0,0,0,0,0,0l0-0.1l0-0.1l0-0.1h0c0.1,0,0.1,0.1,0.2,0.1c0,0,0,0,0,0l0,0.1c0,0,0,0.1,0,0.1C36.1,21.2,36.1,21.3,36.1,21.3
				C36.1,21.3,36.1,21.3,36.1,21.3z M36.2,20.7C36.2,20.7,36.2,20.7,36.2,20.7C36.2,20.7,36.2,20.7,36.2,20.7
				C36.2,20.7,36.2,20.7,36.2,20.7l-0.1,0.1c0,0,0,0,0,0c0,0,0,0,0,0c-0.1-0.1-0.1-0.1-0.1-0.1c0,0,0,0,0,0c0,0,0,0,0,0l0-0.1
				c0,0,0,0,0,0c0-0.1,0-0.1,0-0.1l0-0.1c0,0,0,0,0-0.1c0-0.3,0-0.3,0-0.5h0c0,0,0,0,0,0l0,0c0,0,0,0,0,0c0,0,0,0,0,0
				c0.1,0.1,0.1,0.1,0.2,0.2c0,0,0,0,0,0l0,0.1c0,0,0,0,0,0.1c0,0,0,0,0,0.1C36.2,20.4,36.2,20.4,36.2,20.7z M36.2,19.6L36.2,19.6
				L36.2,19.6C36.2,19.6,36.2,19.6,36.2,19.6C36.2,19.7,36.2,19.7,36.2,19.6c-0.1,0-0.2-0.1-0.3-0.1c0,0,0,0,0,0c0,0,0,0,0-0.1
				c0,0,0,0,0-0.1c0,0,0,0,0-0.1c0-0.3,0-0.3,0-0.6c0,0,0,0,0,0c0,0,0,0,0,0l0-0.1h0c0,0,0,0,0.1,0h0c0,0.1,0,0.1,0,0.1c0,0,0,0,0,0
				c0,0.1,0,0.1,0.1,0.2c0,0,0,0,0,0l0,0.1c0,0.1,0,0.1,0,0.1c0,0,0,0,0,0l0.1,0.2v0.1C36.3,19.3,36.2,19.4,36.2,19.6
				C36.2,19.6,36.2,19.6,36.2,19.6z"/>
			<polygon class="st3" points="33.3,28.3 33.3,28.3 33.3,28.3 			"/>
		</g>
	</g>
</g>
</svg>
