<svg width="512" height="512" version="1.1" xmlns="http://www.w3.org/2000/svg" desc="Created with imagetracer.js version 1.2.6" ><path fill="rgb(255,255,255)" stroke="rgb(255,255,255)" stroke-width="1" opacity="0" d="M 0 0 L 512 0 L 512 512 L 0 512 L 0 0 Z M 133 96 L 132 97 L 121 97 Q 119 99 115 98 L 106 101 L 96 106 Q 88 110 83 117 L 81 117 L 81 119 L 70 132 L 65 142 L 62 151 Q 63 155 61 157 L 61 167 L 60 168 L 60 345 L 61 346 L 61 356 L 62 357 L 62 361 L 63 362 L 63 365 L 65 371 L 70 381 L 75 388 Q 84 398 96 406 L 112 413 L 120 414 L 121 415 L 130 415 L 131 416 L 213 416 L 216 415 L 218 413 L 220 407 L 220 393 L 219 392 L 219 387 L 215 385 Q 210 386 210 384 L 124 384 L 123 383 L 117 382 L 107 376 L 100 370 L 96 364 L 92 353 L 92 160 L 93 159 L 94 153 L 100 143 L 107 136 L 113 132 L 124 128 L 213 128 L 216 127 L 218 125 L 220 119 L 220 105 Q 218 104 219 101 L 216 97 Q 212 98 212 96 L 133 96 Z M 296 105 L 292 107 L 287 112 L 284 121 L 284 192 L 173 192 L 164 195 L 159 200 L 156 209 L 156 304 L 159 313 L 164 317 L 172 320 L 284 320 L 284 392 L 287 401 L 292 405 L 300 408 L 309 405 L 449 265 L 451 261 L 451 252 L 449 248 L 309 107 L 305 105 L 296 105 Z " /><path fill="rgb(255,255,255)" stroke="rgb(255,255,255)" stroke-width="1" opacity="1" d="M 132.5 96 L 211.5 96 Q 212.25 97.75 215.5 97 L 219 100.5 Q 218.25 103.75 220 104.5 L 220 118.5 L 218 124.5 L 215.5 127 L 212.5 128 L 123.5 128 L 112.5 132 L 106.5 136 L 100 142.5 L 94 152.5 L 93 158.5 L 92 159.5 L 92 352.5 L 96 363.5 L 100 369.5 L 106.5 376 L 116.5 382 L 122.5 383 L 123.5 384 L 209.5 384 Q 210.5 386 214.5 385 L 219 387 L 219 391.5 L 220 392.5 L 220 406.5 L 218 412.5 L 215.5 415 L 212.5 416 L 130.5 416 L 129.5 415 L 120.5 415 L 119.5 414 L 111.5 413 L 95.5 406 Q 83.63 398.38 75 387.5 L 70 380.5 L 65 370.5 L 63 364.5 L 63 361.5 L 62 360.5 L 62 356.5 L 61 355.5 L 61 345.5 L 60 344.5 L 60 167.5 L 61 166.5 L 61 156.5 Q 63.25 155.25 62 150.5 L 65 141.5 L 70 131.5 L 81 118.5 L 81 117 L 82.5 117 Q 87.8 110.3 95.5 106 L 105.5 101 L 114.5 98 Q 119.25 99.25 120.5 97 L 131.5 97 L 132.5 96 Z " /><path fill="rgb(255,255,255)" stroke="rgb(255,255,255)" stroke-width="1" opacity="1" d="M 295.5 105 L 304.5 105 L 308.5 107 L 449 247.5 L 451 251.5 L 451 260.5 L 449 264.5 L 308.5 405 L 299.5 408 L 291.5 405 L 287 400.5 L 284 391.5 L 284 320 L 171.5 320 L 163.5 317 L 159 312.5 L 156 303.5 L 156 208.5 L 159 199.5 L 163.5 195 L 172.5 192 L 284 192 L 284 120.5 L 287 111.5 L 291.5 107 L 295.5 105 Z " /></svg>